<svg xmlns="http://www.w3.org/2000/svg" xmlns:xlink="http://www.w3.org/1999/xlink" preserveAspectRatio="xMidYMid" width="37" height="30" viewBox="0 0 37 30">
  <defs>
    <style>
      .cls-1 {
        fill: #fff;
        fill-rule: evenodd;
      }
    </style>
  </defs>
  <path d="M35.238,19.966 L35.238,24.526 C35.238,27.592 32.815,30.001 29.732,30.001 L5.506,30.001 C2.422,30.001 -0.000,27.592 -0.000,24.526 L-0.000,5.473 C-0.000,2.407 2.422,-0.002 5.506,-0.002 L29.732,-0.002 C32.815,-0.002 35.238,2.407 35.238,5.472 L35.238,10.252 C36.275,10.933 37.000,12.095 37.000,13.357 L37.000,16.861 C37.000,18.120 36.275,19.285 35.238,19.966 ZM33.035,5.473 C33.035,3.721 31.494,2.188 29.732,2.188 L5.506,2.188 C3.744,2.188 2.202,3.721 2.202,5.473 L2.202,24.526 C2.202,26.277 3.744,27.810 5.506,27.810 L29.732,27.810 C31.494,27.810 33.035,26.277 33.035,24.526 L33.035,20.584 L22.024,20.584 C20.041,20.584 18.280,18.832 18.280,16.861 L18.280,13.357 C18.280,11.386 20.041,9.634 22.024,9.634 L33.035,9.634 L33.035,5.473 ZM34.798,13.357 C34.798,12.480 34.137,11.823 33.256,11.823 L22.024,11.823 C21.143,11.823 20.482,12.481 20.482,13.357 L20.482,16.861 C20.482,17.737 21.143,18.394 22.024,18.394 L33.256,18.394 C34.137,18.394 34.798,17.737 34.798,16.861 L34.798,13.357 ZM23.785,15.766 C23.565,15.985 23.345,16.204 23.125,16.204 C22.905,16.204 22.464,15.985 22.244,15.766 C22.024,15.547 22.024,15.327 22.024,15.109 C22.024,14.890 22.024,14.452 22.244,14.233 C22.685,13.795 23.345,13.795 23.785,14.233 C24.006,14.452 24.226,14.671 24.226,15.109 C24.226,15.327 24.006,15.766 23.785,15.766 Z" class="cls-1"/>
</svg>
