<svg xmlns="http://www.w3.org/2000/svg" xmlns:xlink="http://www.w3.org/1999/xlink" preserveAspectRatio="xMidYMid" width="10.25" height="10.281" viewBox="0 0 10.25 10.281">
  <defs>
    <style>
      .cls-1 {
        fill: #15181f;
        fill-rule: evenodd;
      }
    </style>
  </defs>
  <path d="M9.948,1.711 L5.805,5.854 C7.208,7.256 8.449,8.498 8.557,8.605 C8.878,8.926 8.774,9.508 8.247,9.659 C7.825,9.781 1.479,10.051 0.755,10.255 C0.280,10.389 -0.121,9.976 0.007,9.506 C0.150,8.982 0.426,2.600 0.608,1.993 C0.742,1.548 1.293,1.341 1.647,1.695 C1.799,1.847 3.019,3.067 4.391,4.440 L8.534,0.297 C8.925,-0.094 9.558,-0.094 9.948,0.297 C10.339,0.687 10.339,1.320 9.948,1.711 Z" class="cls-1"/>
</svg>
