<svg xmlns="http://www.w3.org/2000/svg" xmlns:xlink="http://www.w3.org/1999/xlink" preserveAspectRatio="xMidYMid" width="23" height="23" viewBox="0 0 23 23">
  <defs>
    <style>
      .cls-1 {
        fill: #23252a;
        fill-rule: evenodd;
      }
    </style>
  </defs>
  <path d="M22.266,18.826 C23.216,19.776 23.216,21.315 22.266,22.265 C21.316,23.215 19.776,23.215 18.827,22.265 L14.874,18.312 C14.798,18.236 14.739,18.152 14.676,18.070 C10.943,20.289 6.048,19.804 2.836,16.593 C-0.963,12.793 -0.963,6.634 2.836,2.835 C6.635,-0.964 12.794,-0.964 16.593,2.835 C19.805,6.047 20.290,10.942 18.071,14.675 C18.153,14.738 18.238,14.797 18.313,14.873 L22.266,18.826 ZM14.300,5.128 C11.768,2.595 7.662,2.595 5.129,5.128 C2.596,7.661 2.596,11.767 5.129,14.299 C7.662,16.832 11.768,16.832 14.300,14.299 C16.833,11.767 16.833,7.661 14.300,5.128 Z" class="cls-1"/>
</svg>
