<svg xmlns="http://www.w3.org/2000/svg" xmlns:xlink="http://www.w3.org/1999/xlink" preserveAspectRatio="xMidYMid" width="53.156" height="38" viewBox="0 0 53.156 38">
  <defs>
    <style>
      .cls-1 {
        fill: #fff;
        fill-rule: evenodd;
      }
    </style>
  </defs>
  <path d="M52.122,10.971 C51.089,10.971 51.000,10.068 51.000,9.000 L51.000,4.000 C51.000,3.396 49.584,2.000 49.000,2.000 L13.000,2.000 C11.967,2.000 11.163,2.008 11.163,0.940 C11.163,-0.127 11.967,-0.000 13.000,-0.000 L49.000,-0.000 C51.650,-0.000 53.000,1.261 53.000,4.000 L53.000,9.000 C53.000,10.068 53.155,10.971 52.122,10.971 ZM46.000,11.000 L46.000,33.000 C46.000,35.739 44.610,38.000 41.959,38.000 L3.810,38.000 C1.160,38.000 -0.000,36.739 -0.000,34.000 L-0.000,11.000 C-0.000,8.261 1.350,7.000 4.000,7.000 L42.000,7.000 C44.650,7.000 45.917,8.678 46.000,11.000 ZM2.000,34.000 C2.000,34.604 2.416,36.000 3.000,36.000 L43.000,36.000 C43.584,36.000 44.013,34.633 44.013,34.040 L44.000,17.000 L2.000,17.000 L2.000,34.000 ZM3.000,9.000 C2.416,9.000 1.756,9.925 1.756,10.529 L2.000,12.000 L44.000,12.000 L44.013,10.529 C44.013,9.925 43.584,9.000 43.000,9.000 L3.000,9.000 ZM25.000,24.000 L23.000,24.000 C21.967,24.000 20.689,23.832 20.689,22.764 C20.689,21.697 21.967,22.000 23.000,22.000 L24.000,22.000 C25.043,22.000 27.011,21.697 27.011,22.764 C27.011,23.832 26.033,24.000 25.000,24.000 ZM16.000,24.000 L9.000,24.000 C7.967,24.000 7.667,23.832 7.667,22.764 C7.667,21.697 7.967,22.000 9.000,22.000 L16.000,22.000 C17.033,22.000 18.414,21.697 18.414,22.764 C18.414,23.832 17.033,24.000 16.000,24.000 ZM8.608,28.239 L12.635,28.239 C13.668,28.239 15.513,28.112 15.513,29.180 C15.513,30.247 14.033,30.000 13.000,30.000 L9.000,30.000 C7.967,30.000 7.730,30.247 7.730,29.180 C7.730,28.112 7.575,28.239 8.608,28.239 Z" class="cls-1"/>
</svg>
