<svg xmlns="http://www.w3.org/2000/svg" width="15" height="15" viewBox="0 0 15 15">
  <defs>
    <style>
      .cls-1 {
        fill: #FCD40A;
        fill-rule: evenodd;
      }
    </style>
  </defs>
  <path id="Rounded_Rectangle_2_copy_2" data-name="Rounded Rectangle 2 copy 2" class="cls-1" d="M8.755,8.757a1.191,1.191,0,0,1,1.671.094l6.181,6.156a1.12,1.12,0,1,1-1.577,1.57L8.85,10.422A1.179,1.179,0,0,1,8.755,8.757Zm1.522-.031A1.192,1.192,0,0,0,8.6,8.821l-6.205,6.2A1.192,1.192,0,0,0,2.3,16.7a1.192,1.192,0,0,0,1.678-.095l6.205-6.2A1.192,1.192,0,0,0,10.277,8.726ZM2.294,2.3a1.192,1.192,0,0,1,1.678.095l6.205,6.2a1.192,1.192,0,0,1,.095,1.678,1.192,1.192,0,0,1-1.678-.095l-6.2-6.2A1.192,1.192,0,0,1,2.294,2.3Zm14.412,0a1.192,1.192,0,0,0-1.678.095L8.823,8.6a1.192,1.192,0,0,0-.095,1.678,1.193,1.193,0,0,0,1.678-.095l6.205-6.2A1.192,1.192,0,0,0,16.706,2.3ZM8.6,8.821l-6.205,6.2m1.583,1.583,6.205-6.2" transform="translate(-2 -2)"/>
</svg>
