<svg xmlns="http://www.w3.org/2000/svg" xmlns:xlink="http://www.w3.org/1999/xlink" preserveAspectRatio="xMidYMid" width="38" height="39" viewBox="0 0 38 39">
  <defs>
    <style>
      .cls-1 {
        fill: #FCD40A;
        fill-rule: evenodd;
      }
    </style>
  </defs>
  <path d="M37.306,22.253 C37.430,21.362 37.501,20.482 37.501,19.632 C37.501,14.525 35.706,10.112 32.191,6.499 C28.636,2.867 24.263,1.025 19.201,1.025 C18.615,1.025 18.048,1.053 17.512,1.106 C15.913,0.369 14.203,-0.000 12.387,-0.000 C8.996,-0.000 5.945,1.279 3.575,3.695 C1.244,6.079 0.007,9.119 0.007,12.489 C0.007,14.229 0.337,15.888 0.986,17.413 C0.893,18.160 0.841,18.907 0.841,19.632 C0.841,24.750 2.646,29.174 6.193,32.777 C9.758,36.411 14.139,38.243 19.201,38.243 C19.739,38.243 20.357,38.201 21.099,38.120 C22.553,38.712 24.068,39.011 25.625,39.011 C28.977,39.011 32.017,37.730 34.397,35.285 C36.759,32.889 38.005,29.839 38.005,26.461 C38.005,25.039 37.778,23.637 37.306,22.253 L37.306,22.253 ZM26.398,26.522 C25.799,27.423 24.862,28.159 23.574,28.754 C22.284,29.265 20.800,29.522 19.140,29.522 C17.119,29.522 15.430,29.163 14.057,28.437 C13.078,27.884 12.305,27.177 11.748,26.328 C11.152,25.395 10.840,24.525 10.840,23.718 C10.840,23.204 11.038,22.756 11.418,22.376 C11.811,21.988 12.305,21.802 12.904,21.802 C13.326,21.802 13.759,21.957 14.181,22.253 C14.532,22.591 14.780,23.010 14.955,23.524 C14.997,23.563 15.274,24.056 15.789,24.997 C16.005,25.293 16.388,25.591 16.945,25.888 C17.459,26.144 18.140,26.265 19.006,26.265 C20.162,26.265 21.130,26.011 21.893,25.508 C22.585,25.039 22.925,24.444 22.925,23.718 C22.925,23.123 22.727,22.672 22.347,22.376 C21.954,21.988 21.471,21.700 20.872,21.485 C20.697,21.435 20.470,21.383 20.191,21.323 C19.914,21.260 19.594,21.179 19.233,21.066 C18.863,20.964 18.552,20.882 18.296,20.840 C16.842,20.544 15.604,20.164 14.575,19.695 C13.667,19.357 12.862,18.763 12.131,17.913 C11.532,17.104 11.233,16.142 11.233,15.036 C11.233,13.930 11.553,12.958 12.192,12.109 C12.841,11.250 13.759,10.615 14.955,10.196 C16.161,9.724 17.533,9.489 19.069,9.489 C20.233,9.489 21.326,9.633 22.347,9.939 C23.337,10.277 24.131,10.676 24.727,11.147 C25.284,11.658 25.738,12.172 26.079,12.683 C26.377,13.359 26.533,13.912 26.533,14.342 C26.533,14.895 26.337,15.364 25.944,15.744 C25.522,16.163 25.026,16.378 24.471,16.378 C24.007,16.378 23.595,16.255 23.255,15.998 C23.038,15.783 22.759,15.406 22.418,14.853 C22.162,14.250 21.748,13.726 21.202,13.257 C20.687,12.866 19.893,12.683 18.821,12.683 C17.750,12.683 16.934,12.898 16.377,13.317 C15.781,13.705 15.480,14.145 15.480,14.659 C15.480,14.997 15.583,15.283 15.799,15.487 C16.016,15.783 16.285,16.019 16.636,16.194 C16.852,16.318 17.214,16.470 17.728,16.635 C17.863,16.684 18.140,16.758 18.594,16.860 C19.048,16.973 19.418,17.043 19.718,17.085 C20.315,17.206 21.347,17.484 22.801,17.913 C23.667,18.210 24.471,18.590 25.242,19.059 C25.976,19.572 26.512,20.146 26.852,20.780 C27.192,21.548 27.367,22.397 27.367,23.327 C27.356,24.486 27.037,25.549 26.398,26.522 L26.398,26.522 Z" class="cls-1"/>
</svg>
