<svg xmlns="http://www.w3.org/2000/svg" xmlns:xlink="http://www.w3.org/1999/xlink" preserveAspectRatio="xMidYMid" width="29" height="29" viewBox="0 0 29 29">
  <defs>
    <style>
      .cls-1 {
        fill: #fff;
        fill-rule: evenodd;
      }
    </style>
  </defs>
  <path d="M28.000,9.000 L28.000,29.000 L1.000,29.000 L1.000,9.000 L-0.000,9.183 L-0.000,4.016 C-0.000,3.920 0.026,3.833 0.063,3.750 C0.075,3.648 0.118,3.552 0.187,3.471 L3.160,-0.000 L25.840,-0.000 L28.813,3.471 C28.882,3.552 28.924,3.648 28.936,3.750 C28.974,3.833 29.000,3.920 29.000,4.016 L29.000,9.183 L28.000,9.000 ZM3.000,27.000 L26.000,27.000 L26.000,10.000 L3.000,10.000 L3.000,27.000 ZM25.394,0.968 L3.606,0.968 L2.000,3.000 L27.000,3.000 L25.394,0.968 ZM28.000,4.000 L1.000,4.000 L1.000,8.000 L28.000,8.000 L28.000,4.000 ZM9.000,13.000 L20.000,13.000 L20.000,18.000 L9.000,18.000 L9.000,13.000 ZM10.000,17.000 L19.000,17.000 L19.000,14.000 L10.000,14.000 L10.000,17.000 Z" class="cls-1"/>
</svg>
