<svg xmlns="http://www.w3.org/2000/svg" xmlns:xlink="http://www.w3.org/1999/xlink" preserveAspectRatio="xMidYMid" width="27" height="26" viewBox="0 0 27 26">
  <defs>
    <style>
      .cls-1 {
        fill: #FCCF29;
        stroke: #FCCF29;
        stroke-width: 1px;
        fill-rule: evenodd;
      }
    </style>
  </defs>
  <path d="M25.991,20.779 C25.991,21.609 25.498,22.320 24.792,22.652 C24.719,22.729 24.631,22.793 24.527,22.837 L16.482,25.993 L15.071,25.998 C15.068,25.998 15.066,26.000 15.062,26.000 L12.718,26.000 C12.287,26.000 11.937,25.650 11.937,25.219 L11.937,24.439 C11.937,24.008 12.287,23.658 12.718,23.658 L15.062,23.658 C15.494,23.658 15.844,24.008 15.844,24.439 L15.844,24.566 L20.859,22.599 C20.208,22.249 19.758,21.569 19.758,20.779 L19.758,15.568 C19.758,14.425 20.689,13.495 21.833,13.495 L23.915,13.495 C24.077,13.495 24.233,13.518 24.384,13.553 C24.358,12.961 24.324,12.372 24.298,12.141 C23.677,6.585 19.164,2.552 13.566,2.552 C7.737,2.552 3.001,7.054 2.680,13.024 C2.677,13.084 2.666,13.291 2.655,13.538 C2.790,13.510 2.931,13.495 3.074,13.495 L5.181,13.495 C6.325,13.495 7.257,14.425 7.257,15.568 L7.257,20.804 C7.257,21.947 6.325,22.877 5.181,22.877 L3.074,22.877 C1.930,22.877 0.999,21.947 0.999,20.804 L0.999,15.568 C0.999,15.414 1.019,15.265 1.051,15.121 L1.052,14.772 C1.056,14.144 1.111,13.089 1.119,12.940 C1.486,6.128 6.893,0.991 13.566,0.991 C19.973,0.991 25.140,5.607 25.851,11.967 C25.913,12.521 25.994,14.458 25.991,14.972 C25.991,15.042 25.968,15.104 25.951,15.169 C25.976,15.298 25.991,15.431 25.991,15.568 L25.991,20.779 ZM2.561,20.804 C2.561,21.087 2.791,21.316 3.074,21.316 L5.181,21.316 C5.464,21.316 5.694,21.087 5.694,20.804 L5.694,15.568 C5.694,15.285 5.464,15.056 5.181,15.056 L3.074,15.056 C2.791,15.056 2.561,15.285 2.561,15.568 L2.561,20.804 ZM24.429,15.568 C24.429,15.285 24.199,15.056 23.915,15.056 L21.833,15.056 C21.550,15.056 21.321,15.285 21.321,15.568 L21.321,20.779 C21.321,21.062 21.550,21.292 21.833,21.292 L23.915,21.292 C24.199,21.292 24.429,21.062 24.429,20.779 L24.429,15.568 Z" class="cls-1"/>
</svg>
