<svg xmlns="http://www.w3.org/2000/svg" xmlns:xlink="http://www.w3.org/1999/xlink" preserveAspectRatio="xMidYMid" width="40" height="32" viewBox="0 0 40 32">
  <defs>
    <style>
      .cls-1 {
        fill: #FCD40A;
        fill-rule: evenodd;
      }
    </style>
  </defs>
  <path d="M30.015,17.707 C32.144,16.194 34.727,14.391 37.767,12.297 C38.616,11.705 39.360,11.047 40.000,10.320 L40.000,27.871 L30.015,17.707 ZM36.183,9.865 C32.572,12.416 29.846,14.343 27.997,15.650 C26.979,16.370 26.222,16.905 25.738,17.250 C25.666,17.301 25.553,17.382 25.404,17.491 C25.243,17.608 25.039,17.758 24.789,17.943 C24.305,18.299 23.904,18.586 23.583,18.805 C23.262,19.026 22.876,19.271 22.422,19.545 C21.968,19.817 21.540,20.022 21.139,20.157 C20.738,20.294 20.364,20.363 20.022,20.363 L19.978,20.363 C19.636,20.363 19.264,20.294 18.863,20.157 C18.461,20.022 18.032,19.817 17.578,19.545 C17.124,19.271 16.738,19.026 16.417,18.805 C16.098,18.586 15.697,18.299 15.213,17.943 C14.961,17.758 14.757,17.608 14.596,17.491 C14.447,17.382 14.336,17.301 14.264,17.250 C13.642,16.804 12.886,16.267 12.012,15.646 C10.983,14.917 9.789,14.071 8.416,13.103 C5.870,11.307 4.344,10.227 3.839,9.865 C2.917,9.228 2.047,8.354 1.228,7.241 C0.410,6.127 -0.000,5.093 -0.000,4.139 C-0.000,2.957 0.308,1.972 0.927,1.186 C1.543,0.397 2.426,0.004 3.572,0.004 L36.428,0.004 C37.396,0.004 38.233,0.359 38.939,1.071 C39.646,1.784 40.000,2.639 40.000,3.639 C40.000,4.835 39.635,5.979 38.906,7.070 C38.177,8.160 37.270,9.092 36.183,9.865 ZM2.255,12.297 C5.414,14.482 7.990,16.282 9.989,17.703 L-0.000,27.871 L-0.000,10.320 C0.655,11.062 1.406,11.721 2.255,12.297 ZM13.348,20.135 C14.197,20.771 14.885,21.268 15.412,21.624 C15.939,21.979 16.643,22.342 17.522,22.713 C18.401,23.084 19.219,23.269 19.978,23.269 L20.022,23.269 C20.781,23.269 21.599,23.084 22.478,22.713 C23.355,22.342 24.058,21.979 24.588,21.624 C25.115,21.268 25.803,20.771 26.652,20.135 C26.901,19.951 27.164,19.759 27.437,19.561 L38.767,31.096 C38.106,31.693 37.327,31.995 36.428,31.995 L3.572,31.995 C2.672,31.995 1.892,31.693 1.230,31.096 L12.565,19.558 C12.849,19.764 13.112,19.958 13.348,20.135 Z" class="cls-1"/>
</svg>
