<svg xmlns="http://www.w3.org/2000/svg" xmlns:xlink="http://www.w3.org/1999/xlink" preserveAspectRatio="xMidYMid" width="22" height="27" viewBox="0 0 22 27">
  <defs>
    <style>
      .cls-1 {
        stroke: #fff;
        stroke-width: 2px;
        fill: none;
        fill-rule: evenodd;
      }
    </style>
  </defs>
  <path d="M19.909,14.757 C19.015,13.795 17.826,13.157 16.340,12.845 L16.340,12.716 C17.373,12.286 18.183,11.614 18.770,10.700 C19.357,9.786 19.651,8.742 19.651,7.570 C19.651,6.559 19.438,5.667 19.013,4.892 C18.587,4.118 17.944,3.500 17.083,3.037 C16.286,2.607 15.433,2.325 14.523,2.190 C13.613,2.056 12.275,1.989 10.509,1.989 L2.014,1.989 L2.014,26.009 L11.640,26.009 C13.309,26.009 14.684,25.858 15.766,25.557 C16.849,25.256 17.842,24.751 18.746,24.041 C19.511,23.449 20.119,22.702 20.571,21.798 C21.023,20.895 21.249,19.846 21.249,18.653 C21.249,17.018 20.803,15.720 19.909,14.757 ZM13.239,10.167 C13.056,10.565 12.722,10.877 12.238,11.103 C11.796,11.307 11.368,11.420 10.954,11.442 C10.539,11.463 9.815,11.474 8.781,11.474 L8.022,11.474 L8.022,6.393 L8.442,6.393 C9.519,6.393 10.329,6.401 10.873,6.417 C11.416,6.433 11.888,6.527 12.286,6.699 C12.706,6.882 13.015,7.178 13.215,7.586 C13.414,7.995 13.513,8.393 13.513,8.780 C13.513,9.307 13.422,9.770 13.239,10.167 ZM14.652,20.097 C14.399,20.554 13.998,20.901 13.449,21.137 C12.824,21.406 12.211,21.551 11.608,21.573 C11.005,21.594 9.917,21.605 8.345,21.605 L8.022,21.605 L8.022,15.588 L9.137,15.588 C10.213,15.588 11.072,15.596 11.713,15.612 C12.353,15.628 12.857,15.706 13.223,15.846 C13.826,16.061 14.278,16.378 14.579,16.798 C14.881,17.217 15.032,17.798 15.032,18.540 C15.032,19.121 14.905,19.640 14.652,20.097 Z" class="cls-1"/>
</svg>
