<svg xmlns="http://www.w3.org/2000/svg" xmlns:xlink="http://www.w3.org/1999/xlink" preserveAspectRatio="xMidYMid" width="31" height="29" viewBox="0 0 31 29">
  <defs>
    <style>
      .cls-1 {
        fill: #FCD40A;
        fill-rule: evenodd;
      }
    </style>
  </defs>
  <path d="M30.020,29.000 L26.102,29.000 C25.561,29.000 25.122,28.562 25.122,28.022 L25.000,27.000 L18.000,27.000 L17.939,28.022 C17.939,28.562 17.500,29.000 16.959,29.000 L13.041,29.000 C12.500,29.000 12.061,28.562 12.061,28.022 L12.000,27.000 L6.000,27.000 L5.877,28.022 C5.877,28.562 5.439,29.000 4.898,29.000 L0.980,29.000 C0.438,29.000 -0.000,28.562 -0.000,28.022 L-0.000,22.152 C-0.000,21.612 0.438,21.174 0.980,21.174 L2.000,21.000 L2.000,12.000 C2.000,11.459 2.459,11.000 3.000,11.000 L8.000,11.000 L8.000,1.000 C8.000,0.459 8.459,-0.000 9.000,-0.000 L21.000,-0.000 C21.541,-0.000 22.000,0.459 22.000,1.000 L22.000,11.000 L28.000,11.000 C28.541,11.000 29.000,11.459 29.000,12.000 L29.000,21.000 L30.020,21.174 C30.562,21.174 31.000,21.612 31.000,22.152 L31.000,28.022 C31.000,28.562 30.562,29.000 30.020,29.000 ZM3.000,12.000 L3.000,21.000 L15.000,21.000 L15.000,12.000 L3.000,12.000 ZM21.000,1.000 L9.000,1.000 L9.000,11.000 L21.000,11.000 L21.000,1.000 ZM28.000,12.000 L16.000,12.000 L16.000,21.000 L28.000,21.000 L28.000,12.000 ZM29.000,23.000 L2.000,23.000 L2.000,28.000 L4.000,28.000 L4.000,27.000 C4.000,26.460 4.459,26.000 5.000,26.000 L13.000,26.000 C13.541,26.000 14.000,26.460 14.000,27.000 L14.000,28.000 L16.000,28.000 L16.000,27.000 C16.000,26.460 16.459,26.000 17.000,26.000 L26.000,26.000 C26.541,26.000 27.000,26.460 27.000,27.000 L27.000,28.000 L29.000,28.000 L29.000,23.000 ZM24.000,16.000 L20.000,16.000 L20.000,15.000 L24.000,15.000 L24.000,16.000 ZM17.000,5.000 L13.000,5.000 L13.000,4.000 L17.000,4.000 L17.000,5.000 ZM7.000,15.000 L11.000,15.000 L11.000,16.000 L7.000,16.000 L7.000,15.000 Z" class="cls-1"/>
</svg>
