<svg xmlns="http://www.w3.org/2000/svg" xmlns:xlink="http://www.w3.org/1999/xlink" preserveAspectRatio="xMidYMid" width="25.125" height="35.906" viewBox="0 0 25.125 35.906">
  <defs>
    <style>
      .cls-1 {
        fill: #000;
        fill-rule: evenodd;
      }
    </style>
  </defs>
  <path d="M23.765,18.240 L13.579,35.316 C13.268,35.837 12.764,35.893 12.562,35.893 C12.360,35.893 11.856,35.837 11.545,35.316 L1.359,18.240 C0.447,16.446 -0.010,14.508 0.002,12.479 C0.042,5.689 5.597,0.088 12.384,-0.006 C15.773,-0.051 18.969,1.232 21.381,3.611 C23.794,5.990 25.122,9.167 25.122,12.555 C25.122,14.558 24.666,16.470 23.765,18.240 ZM12.562,7.150 C9.582,7.150 7.158,9.575 7.158,12.555 C7.158,15.535 9.582,17.960 12.562,17.960 C15.542,17.960 17.967,15.535 17.967,12.555 C17.967,9.575 15.542,7.150 12.562,7.150 ZM12.562,15.592 C10.888,15.592 9.526,14.229 9.526,12.555 C9.526,10.881 10.888,9.518 12.562,9.518 C14.236,9.518 15.598,10.881 15.598,12.555 C15.598,14.229 14.236,15.592 12.562,15.592 Z" class="cls-1"/>
</svg>
