<svg xmlns="http://www.w3.org/2000/svg" xmlns:xlink="http://www.w3.org/1999/xlink" preserveAspectRatio="xMidYMid" width="32.06" height="23.03" viewBox="0 0 32.06 23.03">
  <defs>
    <style>
      .cls-1 {
        fill: #15181F;
        fill-rule: evenodd;
      }
    </style>
  </defs>
  <path d="M29.428,21.573 C28.564,22.193 26.151,23.018 16.021,23.018 C5.161,23.018 3.561,22.072 3.045,21.762 C0.362,20.153 0.046,13.645 0.013,11.690 C0.037,10.209 0.298,2.906 3.047,1.256 C3.563,0.945 5.173,-0.006 16.021,-0.006 C26.144,-0.006 28.561,0.822 29.428,1.446 C31.836,3.178 32.041,9.712 32.047,11.664 C32.040,14.091 31.770,19.889 29.428,21.573 ZM28.260,3.067 C27.909,2.815 25.902,1.992 16.021,1.992 C6.472,1.992 4.458,2.739 4.078,2.968 C3.124,3.540 2.092,6.976 2.013,11.684 C2.093,16.402 3.111,19.472 4.076,20.050 C4.455,20.279 6.461,21.020 16.021,21.020 C25.910,21.020 27.911,20.202 28.260,19.952 C29.110,19.340 30.033,16.488 30.047,11.670 C30.033,6.927 29.116,3.683 28.260,3.067 ZM13.545,17.948 C13.387,18.044 13.207,18.091 13.028,18.091 C12.859,18.091 12.689,18.048 12.537,17.963 C12.223,17.785 12.028,17.453 12.028,17.093 L12.028,6.060 C12.028,5.700 12.223,5.368 12.537,5.190 C12.851,5.014 13.235,5.019 13.545,5.205 L22.543,10.720 C22.843,10.901 23.026,11.226 23.026,11.576 C23.026,11.926 22.843,12.250 22.543,12.431 L13.545,17.948 ZM14.028,7.829 L14.028,15.323 L20.091,11.576 L14.028,7.829 Z" class="cls-1"/>
</svg>
