<svg xmlns="http://www.w3.org/2000/svg" xmlns:xlink="http://www.w3.org/1999/xlink" preserveAspectRatio="xMidYMid" width="49" height="54" viewBox="0 0 49 54">
  <defs>
    <style>
      .cls-1 {
        fill: #fff;
        fill-rule: evenodd;
      }
    </style>
  </defs>
  <path d="M0.304,7.903 C-0.735,4.753 0.981,1.343 4.132,0.304 C7.282,-0.736 10.691,0.982 11.730,4.133 L23.551,39.966 C22.450,39.675 21.278,39.622 20.108,39.835 L8.664,5.144 C8.182,3.684 6.603,2.889 5.143,3.370 C3.684,3.852 2.888,5.431 3.370,6.891 C3.649,7.738 3.189,8.651 2.343,8.930 C1.496,9.210 0.583,8.750 0.304,7.903 L0.304,7.903 ZM46.879,36.013 L27.511,42.404 C28.199,43.185 28.743,44.112 29.089,45.161 C29.101,45.199 29.108,45.236 29.120,45.274 L47.891,39.080 C48.738,38.800 49.198,37.887 48.918,37.040 C48.639,36.193 47.726,35.733 46.879,36.013 L46.879,36.013 ZM27.556,45.667 C28.654,48.993 26.847,52.580 23.521,53.678 C20.195,54.775 16.609,52.968 15.512,49.642 C14.414,46.315 16.221,42.729 19.547,41.631 C22.873,40.534 26.459,42.341 27.556,45.667 L27.556,45.667 ZM24.545,46.661 C23.997,44.998 22.204,44.094 20.541,44.643 C18.878,45.192 17.974,46.985 18.523,48.648 C19.072,50.311 20.865,51.215 22.528,50.666 C24.191,50.117 25.094,48.324 24.545,46.661 L24.545,46.661 ZM41.557,10.851 L48.133,30.783 C48.272,31.207 48.042,31.663 47.619,31.803 L26.923,38.633 C26.499,38.772 26.043,38.542 25.903,38.119 L19.328,18.186 C19.188,17.763 19.418,17.307 19.841,17.167 L40.537,10.337 C40.961,10.197 41.417,10.428 41.557,10.851 L41.557,10.851 ZM38.819,22.429 L31.772,18.552 L28.417,25.862 L30.638,26.884 L32.089,23.722 L34.708,31.662 L37.215,30.834 L34.596,22.896 L37.643,24.573 L38.819,22.429 Z" class="cls-1"/>
</svg>
