<svg xmlns="http://www.w3.org/2000/svg" xmlns:xlink="http://www.w3.org/1999/xlink" preserveAspectRatio="xMidYMid" width="34" height="27" viewBox="0 0 34 27">
  <defs>
    <style>
      .cls-1 {
        fill: #000;
        fill-rule: evenodd;
      }
    </style>
  </defs>
  <path d="M32.009,27.000 L2.009,27.000 C0.905,27.000 0.009,26.104 0.009,25.000 L0.009,9.000 L-0.000,9.000 L-0.000,7.000 L0.009,7.000 L0.009,2.000 C0.009,0.895 0.905,-0.000 2.009,-0.000 L12.009,-0.000 L15.009,3.000 L32.009,3.000 C33.114,3.000 34.009,3.895 34.009,5.000 L34.009,25.000 C34.009,26.104 33.114,27.000 32.009,27.000 ZM2.009,25.000 L32.009,25.000 L32.009,9.000 L2.009,9.000 L2.009,25.000 ZM15.009,5.000 L14.181,5.000 L13.552,4.414 L11.095,2.000 L11.009,2.000 L2.009,2.000 L2.009,7.000 L32.009,7.000 L32.009,5.000 L15.009,5.000 Z" class="cls-1"/>
</svg>
