<svg xmlns="http://www.w3.org/2000/svg" xmlns:xlink="http://www.w3.org/1999/xlink" preserveAspectRatio="xMidYMid" width="15.813" height="30.97" viewBox="0 0 15.813 30.97">
  <defs>
    <style>
      .cls-1 {
        fill: #fff;
        fill-rule: evenodd;
      }
    </style>
  </defs>
  <path d="M10.048,2.007 C10.165,2.007 10.232,2.011 10.232,2.011 L12.802,2.011 L12.788,5.011 L10.236,5.011 C8.831,5.011 8.864,6.230 8.864,6.230 L8.864,10.985 L13.834,10.985 L13.140,13.980 L8.847,13.980 L8.847,28.971 L5.898,28.971 L5.896,13.980 L1.979,13.980 L1.971,10.985 L5.898,10.985 C5.898,10.985 5.898,7.317 5.898,6.323 C5.898,2.259 9.220,2.007 10.048,2.007 M12.802,2.011 L12.807,2.011 M10.048,0.007 L10.048,0.007 C9.340,0.007 7.958,0.126 6.648,0.927 C5.408,1.685 3.930,3.238 3.930,6.323 L3.930,8.985 L1.971,8.985 C1.448,8.985 0.947,9.197 0.577,9.573 C0.208,9.950 0.001,10.459 0.003,10.991 L0.011,13.987 C0.015,15.088 0.895,15.980 1.979,15.980 L3.928,15.980 L3.930,28.971 C3.930,30.076 4.811,30.971 5.898,30.971 L8.847,30.971 C9.934,30.971 10.815,30.076 10.815,28.971 L10.815,15.980 L13.140,15.980 C14.014,15.980 14.782,15.395 15.028,14.544 L15.722,11.548 C15.897,10.943 15.781,10.290 15.409,9.786 C15.038,9.282 14.454,8.985 13.834,8.985 L10.832,8.985 L10.832,7.011 L12.788,7.010 C13.871,7.010 14.751,6.121 14.756,5.020 L14.770,2.121 C14.772,2.084 14.773,2.048 14.773,2.011 C14.773,0.907 13.893,0.011 12.807,0.011 L12.802,0.011 L10.287,0.011 C10.231,0.009 10.149,0.007 10.048,0.007 L10.048,0.007 Z" class="cls-1"/>
</svg>
