<svg xmlns="http://www.w3.org/2000/svg" xmlns:xlink="http://www.w3.org/1999/xlink" preserveAspectRatio="xMidYMid" width="41" height="28" viewBox="0 0 41 28">
  <defs>
    <style>
      .cls-1 {
        fill: #FCD40A;
        fill-rule: evenodd;
      }
    </style>
  </defs>
  <path d="M40.933,22.330 C40.933,22.789 40.558,23.157 40.098,23.157 L38.404,23.157 C37.945,23.157 37.569,22.781 37.569,22.321 C37.569,21.861 37.945,21.485 38.404,21.485 L39.272,21.485 L39.330,10.035 L33.887,5.520 L27.158,5.520 L27.158,21.502 L28.836,21.502 C29.295,21.502 29.671,21.878 29.671,22.338 C29.671,22.798 29.295,23.174 28.836,23.174 L18.643,23.174 C18.183,23.174 17.808,22.798 17.808,22.338 C17.808,21.878 18.183,21.502 18.643,21.502 L25.488,21.502 L25.488,1.673 L5.885,1.673 L5.885,6.958 C5.885,7.418 5.510,7.794 5.051,7.794 C4.592,7.794 4.216,7.418 4.216,6.958 L4.216,0.836 C4.216,0.376 4.592,-0.000 5.051,-0.000 L26.315,-0.000 C26.774,-0.000 27.150,0.376 27.150,0.836 L27.150,3.847 L34.179,3.847 C34.380,3.847 34.563,3.914 34.714,4.039 L40.691,8.998 C40.883,9.158 40.992,9.400 41.000,9.651 L40.933,22.330 ZM14.360,8.455 C14.819,8.455 15.195,8.831 15.195,9.291 C15.195,9.751 14.819,10.128 14.360,10.128 L4.233,10.128 C3.773,10.128 3.398,9.751 3.398,9.291 C3.398,8.831 3.773,8.455 4.233,8.455 L14.360,8.455 ZM13.500,13.155 C13.491,13.615 13.116,13.983 12.657,13.983 L2.529,13.924 C2.070,13.924 1.694,13.548 1.703,13.080 C1.703,12.620 2.079,12.252 2.538,12.252 L2.546,12.252 L12.673,12.311 C13.132,12.311 13.508,12.687 13.500,13.155 ZM11.796,16.943 C11.796,17.412 11.421,17.780 10.962,17.780 L0.835,17.780 C0.376,17.780 -0.000,17.404 -0.000,16.943 C-0.000,16.484 0.376,16.107 0.835,16.107 L10.962,16.107 C11.421,16.107 11.796,16.484 11.796,16.943 ZM5.051,18.440 C5.510,18.440 5.885,18.817 5.885,19.277 L5.885,21.502 L7.564,21.502 C8.023,21.502 8.399,21.878 8.399,22.338 C8.399,22.798 8.023,23.174 7.564,23.174 L5.051,23.174 C4.592,23.174 4.216,22.798 4.216,22.338 L4.216,19.277 C4.216,18.817 4.592,18.440 5.051,18.440 ZM13.132,20.473 C15.186,20.473 16.856,22.162 16.856,24.236 C16.856,26.310 15.186,28.000 13.132,28.000 C12.130,28.000 11.187,27.606 10.461,26.896 C9.735,26.176 9.342,25.240 9.342,24.236 C9.342,23.233 9.743,22.296 10.461,21.577 C11.179,20.866 12.130,20.473 13.132,20.473 ZM13.132,26.327 C14.268,26.327 15.186,25.390 15.186,24.236 C15.186,23.082 14.268,22.145 13.132,22.145 C11.980,22.145 11.012,23.099 11.012,24.236 C11.012,25.374 11.980,26.327 13.132,26.327 ZM36.441,16.250 L29.646,16.250 C29.187,16.250 28.811,15.873 28.811,15.413 L28.811,8.555 C28.811,8.096 29.187,7.719 29.646,7.719 L33.929,7.719 C34.138,7.719 34.338,7.794 34.488,7.937 L37.001,10.203 C37.176,10.362 37.276,10.588 37.276,10.822 L37.276,15.413 C37.276,15.873 36.901,16.250 36.441,16.250 ZM35.607,11.190 L33.603,9.384 L30.481,9.384 L30.481,14.577 L35.607,14.577 L35.607,11.190 ZM33.520,20.473 C35.573,20.473 37.243,22.162 37.243,24.236 C37.243,26.310 35.573,28.000 33.520,28.000 C32.518,28.000 31.574,27.606 30.848,26.896 C30.122,26.176 29.729,25.240 29.729,24.236 C29.729,23.233 30.130,22.296 30.848,21.577 C31.566,20.866 32.518,20.473 33.520,20.473 ZM33.520,26.327 C34.655,26.327 35.573,25.390 35.573,24.236 C35.573,23.082 34.655,22.145 33.520,22.145 C32.367,22.145 31.399,23.099 31.399,24.236 C31.399,25.374 32.367,26.327 33.520,26.327 Z" class="cls-1"/>
</svg>
