<svg xmlns="http://www.w3.org/2000/svg" xmlns:xlink="http://www.w3.org/1999/xlink" preserveAspectRatio="xMidYMid" width="28" height="37" viewBox="0 0 28 37">
  <defs>
    <style>
      .cls-1 {
        fill: #FCD40A;
        fill-rule: evenodd;
      }
    </style>
  </defs>
  <path d="M27.439,36.999 L25.691,36.999 C25.381,36.999 25.129,35.747 25.129,35.435 C25.129,35.123 25.381,34.870 25.691,34.870 L26.000,35.000 L26.000,2.000 L25.691,2.129 C25.381,2.129 25.129,1.876 25.129,1.564 C25.129,1.253 25.381,-0.000 25.691,-0.000 L27.439,-0.000 C27.748,-0.000 28.000,1.253 28.000,1.564 L28.000,35.435 C28.000,35.747 27.748,36.999 27.439,36.999 ZM23.446,36.000 L0.561,36.000 C0.251,36.000 0.000,35.747 0.000,35.435 L0.000,6.833 C0.000,6.814 0.001,6.796 0.003,6.777 C0.004,6.763 0.007,6.749 0.009,6.736 C0.010,6.731 0.010,6.726 0.011,6.722 C0.014,6.706 0.018,6.690 0.023,6.675 C0.023,6.673 0.024,6.671 0.025,6.669 C0.029,6.653 0.035,6.638 0.041,6.623 C0.042,6.621 0.042,6.619 0.043,6.617 C0.049,6.603 0.056,6.589 0.063,6.575 C0.064,6.572 0.065,6.570 0.067,6.567 C0.073,6.554 0.080,6.542 0.088,6.531 C0.090,6.527 0.092,6.523 0.095,6.519 C0.102,6.508 0.110,6.498 0.118,6.488 C0.122,6.483 0.124,6.479 0.127,6.475 C0.138,6.462 0.149,6.450 0.161,6.438 C0.162,6.437 0.163,6.435 0.164,6.434 L5.402,1.165 C5.403,1.164 5.404,1.163 5.405,1.162 C5.417,1.150 5.430,1.139 5.442,1.128 C5.446,1.125 5.450,1.123 5.453,1.120 C5.464,1.112 5.475,1.103 5.486,1.095 C5.490,1.093 5.493,1.091 5.496,1.089 C5.508,1.081 5.521,1.074 5.534,1.067 C5.536,1.066 5.539,1.064 5.541,1.063 C5.555,1.056 5.569,1.049 5.583,1.043 C5.585,1.042 5.586,1.042 5.588,1.041 C5.604,1.035 5.619,1.029 5.635,1.024 C5.637,1.024 5.639,1.024 5.641,1.023 C5.656,1.018 5.672,1.014 5.688,1.011 C5.692,1.010 5.697,1.010 5.702,1.009 C5.715,1.006 5.729,1.004 5.743,1.003 C5.761,1.001 5.780,1.000 5.798,1.000 L23.446,1.000 C23.756,1.000 24.007,1.253 24.007,1.564 L24.007,35.435 C24.007,35.747 23.756,36.000 23.446,36.000 ZM5.000,3.000 L2.000,6.000 L5.000,6.000 L5.000,3.000 ZM22.000,3.000 L6.000,3.000 L6.000,7.000 L2.000,7.000 L2.000,34.000 L22.000,34.000 L22.000,3.000 ZM4.000,18.000 C3.690,18.000 4.000,17.688 4.000,18.000 ZM11.068,18.123 C11.068,18.435 10.966,18.969 11.000,19.000 L4.000,19.000 C3.971,19.000 4.000,18.311 4.000,18.000 L11.000,18.000 C11.060,18.000 11.068,17.812 11.068,18.123 ZM4.000,24.000 C3.690,24.000 4.000,23.688 4.000,24.000 ZM10.955,24.000 C10.972,23.922 11.000,23.852 11.000,24.000 C11.000,24.312 10.966,25.000 11.000,25.000 L5.000,25.000 L5.000,30.000 L10.000,30.000 L10.000,26.000 C9.969,26.001 10.690,26.000 11.000,26.000 L11.000,30.000 C10.884,30.283 10.944,30.995 11.000,31.000 L4.000,31.000 C3.909,31.000 4.000,30.311 4.000,30.000 L4.000,24.000 L10.955,24.000 ZM11.000,26.000 C11.000,25.688 11.310,26.000 11.000,26.000 ZM13.000,27.000 C12.690,27.000 13.000,26.688 13.000,27.000 ZM20.000,27.000 C20.000,27.312 19.997,28.000 20.000,28.000 L13.000,28.000 C12.971,28.031 13.000,27.312 13.000,27.000 L19.987,27.000 C19.990,26.922 20.000,26.823 20.000,27.000 ZM13.000,30.000 L16.000,30.000 C16.029,29.937 16.000,30.688 16.000,31.000 L13.000,31.000 C13.070,31.055 12.993,30.228 12.958,30.192 C12.806,30.037 12.935,30.171 13.000,30.000 ZM16.000,31.000 C16.310,31.000 16.000,31.311 16.000,31.000 ZM20.000,25.000 L13.000,25.000 C12.971,25.094 13.000,23.688 13.000,24.000 C13.000,24.001 13.690,24.000 14.000,24.000 L20.000,24.000 C20.000,24.312 19.966,24.969 20.000,25.000 ZM20.000,24.000 C20.000,23.688 20.310,24.000 20.000,24.000 ZM20.000,16.000 L13.000,16.000 C12.909,16.031 13.000,15.418 12.939,15.113 C12.907,14.957 13.690,15.000 14.000,15.000 L20.000,15.000 C20.000,15.311 20.029,15.969 20.000,16.000 ZM20.000,15.000 C20.000,14.688 20.310,15.000 20.000,15.000 ZM20.000,7.000 C20.310,7.000 20.000,7.311 20.000,7.000 ZM8.000,7.000 L8.043,7.398 C7.733,7.398 8.000,7.311 8.000,7.000 ZM8.000,6.000 L20.000,6.000 C19.622,6.125 20.000,6.688 20.000,7.000 L8.000,7.000 C8.000,6.688 7.690,6.000 8.000,6.000 ZM20.000,19.000 L13.000,19.000 C12.909,19.000 12.939,18.435 12.939,18.123 C12.939,17.812 13.034,17.969 13.000,18.000 L20.000,18.000 L20.000,19.000 ZM4.000,21.000 C3.909,21.031 4.000,20.688 4.000,21.000 ZM20.000,22.000 L4.000,22.000 C3.971,21.969 4.000,21.311 4.000,21.000 L20.000,21.000 C20.000,21.000 20.088,22.000 20.000,22.000 ZM4.000,16.000 C3.909,16.094 4.000,15.311 4.000,15.000 L11.000,15.000 C11.000,15.311 10.935,16.031 11.000,16.000 L4.000,16.000 ZM4.000,15.000 C3.971,15.062 4.000,14.688 4.000,15.000 ZM11.000,15.000 C11.000,14.688 11.310,15.000 11.000,15.000 ZM20.000,12.000 C20.000,11.688 20.060,12.187 20.000,12.000 ZM20.000,13.000 L4.000,13.000 C3.971,13.000 4.000,12.311 4.000,12.000 L20.000,12.000 C20.000,12.311 20.060,13.000 20.000,13.000 ZM4.000,12.000 C3.878,12.000 4.000,11.688 4.000,12.000 ZM6.000,7.000 C6.310,7.000 6.000,7.311 6.000,7.000 Z" class="cls-1"/>
</svg>
