<svg xmlns="http://www.w3.org/2000/svg" xmlns:xlink="http://www.w3.org/1999/xlink" preserveAspectRatio="xMidYMid" width="35" height="36" viewBox="0 0 35 36">
  <defs>
    <style>
      .cls-1 {
        fill: #fff;
        fill-rule: evenodd;
      }
    </style>
  </defs>
  <path d="M34.502,2.891 L27.549,9.968 C29.903,12.364 31.987,14.485 32.166,14.668 C32.706,15.216 32.531,16.210 31.647,16.469 C30.938,16.676 20.288,17.138 19.074,17.486 C18.277,17.714 17.603,17.010 17.818,16.208 C18.058,15.312 18.521,4.409 18.827,3.373 C19.051,2.613 19.976,2.259 20.570,2.864 C20.825,3.124 22.872,5.208 25.175,7.552 L32.129,0.475 C32.784,-0.192 33.847,-0.192 34.502,0.475 C35.157,1.141 35.157,2.224 34.502,2.891 ZM20.480,27.279 C21.205,26.528 23.680,23.959 24.406,23.993 C25.132,24.026 33.184,27.870 33.910,27.904 C34.636,27.936 34.408,32.240 33.034,33.665 C31.861,34.882 25.781,39.303 15.211,31.409 C14.052,30.716 12.216,29.130 9.432,26.245 C9.430,26.242 9.429,26.241 9.427,26.239 C9.425,26.237 9.423,26.235 9.421,26.233 C9.419,26.230 9.417,26.229 9.415,26.227 C9.413,26.224 9.411,26.223 9.410,26.220 C6.628,23.334 5.099,21.428 4.432,20.226 C-3.177,9.259 1.083,2.953 2.257,1.735 C3.630,0.311 7.779,0.072 7.810,0.825 C7.842,1.580 11.548,9.934 11.580,10.687 C11.612,11.439 9.136,14.008 8.412,14.759 C7.695,15.505 13.255,22.023 13.360,22.145 C13.479,22.255 19.763,28.023 20.480,27.279 Z" class="cls-1"/>
</svg>
