<svg xmlns="http://www.w3.org/2000/svg" xmlns:xlink="http://www.w3.org/1999/xlink" preserveAspectRatio="xMidYMid" width="36" height="48" viewBox="0 0 36 48">
  <defs>
    <style>
      .cls-1 {
        fill: #fff;
        fill-rule: evenodd;
      }
    </style>
  </defs>
  <path d="M29.558,32.922 L35.885,46.307 C36.097,46.755 36.007,47.287 35.661,47.641 C35.434,47.874 35.127,47.998 34.814,47.998 C34.652,47.998 34.488,47.964 34.333,47.895 L26.407,44.366 L18.482,47.895 C18.175,48.032 17.825,48.032 17.518,47.895 L9.593,44.366 L1.667,47.895 C1.215,48.096 0.685,47.995 0.339,47.641 C-0.007,47.287 -0.097,46.755 0.115,46.307 L6.442,32.922 C6.563,32.665 6.772,32.461 7.031,32.346 L10.196,30.937 L4.743,21.795 C4.730,21.773 4.717,21.751 4.706,21.728 C3.623,19.614 3.058,17.232 3.072,14.840 C3.095,10.926 4.637,7.228 7.414,4.428 C10.191,1.627 13.876,0.055 17.789,0.001 C21.818,-0.056 25.615,1.472 28.482,4.299 C31.349,7.128 32.928,10.903 32.928,14.930 C32.928,17.324 32.378,19.611 31.294,21.728 C31.282,21.751 31.270,21.773 31.257,21.795 L25.803,30.937 L28.951,32.338 C29.213,32.450 29.432,32.655 29.558,32.922 ZM18.000,7.992 C14.142,7.992 11.003,11.131 11.003,14.990 C11.003,18.849 14.142,21.989 18.000,21.989 C21.859,21.989 24.998,18.849 24.998,14.990 C24.998,11.131 21.859,7.992 18.000,7.992 ZM24.581,32.986 L21.050,38.904 C20.403,39.989 19.263,40.637 18.000,40.637 C16.737,40.637 15.596,39.989 14.949,38.904 L11.418,32.986 L8.395,34.332 L3.620,44.433 L9.111,41.988 C9.417,41.851 9.768,41.851 10.074,41.988 L18.000,45.517 L25.926,41.988 C26.232,41.851 26.582,41.851 26.889,41.988 L32.379,44.433 L27.605,34.332 L24.581,32.986 ZM18.000,18.922 C15.833,18.922 14.069,17.158 14.069,14.990 C14.069,12.822 15.833,11.059 18.000,11.059 C20.168,11.059 21.932,12.822 21.932,14.990 C21.932,17.158 20.168,18.922 18.000,18.922 Z" class="cls-1"/>
</svg>
