<svg xmlns="http://www.w3.org/2000/svg" xmlns:xlink="http://www.w3.org/1999/xlink" preserveAspectRatio="xMidYMid" width="44" height="42" viewBox="0 0 44 42">
  <defs>
    <style>
      .cls-1 {
        fill: #fff;
        fill-rule: evenodd;
      }
    </style>
  </defs>
  <path d="M37.996,32.541 L37.996,41.104 C37.996,41.604 37.593,42.008 37.097,42.008 C36.601,42.008 36.199,41.604 36.199,41.104 L36.199,32.541 C32.828,32.093 30.210,29.214 30.210,25.703 C30.210,22.190 32.828,19.312 36.199,18.863 L36.199,0.888 C36.199,0.389 36.601,-0.016 37.097,-0.016 C37.593,-0.016 37.996,0.389 37.996,0.888 L37.996,18.863 C41.366,19.312 43.985,22.190 43.985,25.703 C43.985,29.214 41.366,32.093 37.996,32.541 ZM37.097,20.580 C34.290,20.580 32.006,22.878 32.006,25.703 C32.006,28.527 34.290,30.825 37.097,30.825 C39.904,30.825 42.188,28.527 42.188,25.703 C42.188,22.878 39.904,20.580 37.097,20.580 ZM23.000,16.374 L23.000,41.104 C23.000,41.604 22.598,42.008 22.101,42.008 C21.605,42.008 21.203,41.604 21.203,41.104 L21.203,16.374 C17.832,15.926 15.214,13.047 15.214,9.535 C15.214,6.023 17.832,3.145 21.203,2.696 L21.203,0.888 C21.203,0.389 21.605,-0.016 22.101,-0.016 C22.598,-0.016 23.000,0.389 23.000,0.888 L23.000,2.696 C26.370,3.145 28.989,6.023 28.989,9.535 C28.989,13.047 26.370,15.926 23.000,16.374 ZM22.101,4.413 C19.294,4.413 17.010,6.711 17.010,9.535 C17.010,12.359 19.293,14.656 22.099,14.657 C22.100,14.657 22.101,14.657 22.102,14.657 C22.102,14.657 22.103,14.657 22.104,14.657 C24.910,14.656 27.192,12.359 27.192,9.535 C27.192,6.711 24.909,4.413 22.101,4.413 ZM7.777,39.297 L7.777,41.104 C7.777,41.604 7.375,42.008 6.879,42.008 C6.383,42.008 5.980,41.604 5.980,41.104 L5.980,39.297 C2.610,38.848 -0.009,35.969 -0.009,32.458 C-0.009,28.946 2.610,26.067 5.980,25.619 L5.980,0.888 C5.980,0.389 6.383,-0.016 6.879,-0.016 C7.375,-0.016 7.777,0.389 7.777,0.888 L7.777,25.619 C11.148,26.067 13.767,28.946 13.767,32.458 C13.767,35.969 11.148,38.848 7.777,39.297 ZM6.879,27.335 C4.072,27.335 1.788,29.633 1.788,32.458 C1.788,35.281 4.070,37.578 6.876,37.580 C6.877,37.580 6.879,37.579 6.879,37.579 C6.880,37.579 6.881,37.580 6.882,37.580 C9.688,37.578 11.970,35.281 11.970,32.458 C11.970,29.633 9.686,27.335 6.879,27.335 Z" class="cls-1"/>
</svg>
