<svg xmlns="http://www.w3.org/2000/svg" xmlns:xlink="http://www.w3.org/1999/xlink" preserveAspectRatio="xMidYMid" width="71" height="56" viewBox="0 0 71 56">
  <defs>
    <style>
      .cls-1 {
        fill: #15181f;
        fill-rule: evenodd;
      }
    </style>
  </defs>
  <path d="M68.186,39.479 C66.310,42.252 63.734,44.593 60.462,46.503 C60.725,47.139 60.996,47.723 61.274,48.252 C61.552,48.785 61.882,49.295 62.264,49.786 C62.646,50.277 62.943,50.661 63.154,50.940 C63.365,51.219 63.710,51.609 64.185,52.113 C64.660,52.616 64.963,52.947 65.097,53.107 C65.123,53.133 65.175,53.192 65.253,53.286 C65.334,53.379 65.393,53.445 65.432,53.484 C65.472,53.524 65.524,53.591 65.590,53.684 C65.657,53.774 65.702,53.848 65.731,53.901 L65.828,54.099 C65.828,54.099 65.854,54.179 65.909,54.339 C65.959,54.497 65.966,54.585 65.928,54.597 C65.887,54.609 65.875,54.697 65.887,54.854 C65.809,55.226 65.636,55.517 65.372,55.729 C65.108,55.942 64.816,56.034 64.500,56.009 C63.181,55.822 62.043,55.610 61.093,55.372 C57.025,54.311 53.354,52.613 50.080,50.279 C47.701,50.704 45.378,50.916 43.106,50.916 C35.947,50.916 29.714,49.166 24.404,45.666 C25.936,45.771 27.100,45.824 27.890,45.824 C32.143,45.824 36.225,45.227 40.133,44.035 C44.042,42.841 47.530,41.129 50.593,38.902 C53.896,36.461 56.432,33.651 58.201,30.470 C59.972,27.287 60.856,23.918 60.856,20.366 C60.856,18.322 60.552,16.308 59.944,14.317 C63.351,16.201 66.046,18.561 68.027,21.398 C70.007,24.235 70.997,27.287 70.997,30.549 C70.997,33.732 70.062,36.707 68.186,39.479 ZM41.898,38.008 C37.607,39.825 32.936,40.733 27.893,40.731 C25.620,40.731 23.296,40.519 20.919,40.094 C17.644,42.429 13.973,44.126 9.903,45.187 C8.953,45.425 7.818,45.637 6.498,45.824 L6.377,45.824 C6.088,45.824 5.817,45.718 5.565,45.506 C5.316,45.294 5.164,45.015 5.109,44.672 C5.083,44.591 5.071,44.505 5.071,44.412 C5.071,44.321 5.078,44.233 5.090,44.155 C5.104,44.073 5.130,43.995 5.169,43.916 L5.268,43.718 C5.268,43.718 5.316,43.644 5.408,43.499 C5.499,43.353 5.553,43.287 5.565,43.301 C5.580,43.313 5.639,43.246 5.746,43.100 C5.850,42.955 5.902,42.896 5.902,42.922 C6.036,42.762 6.339,42.431 6.814,41.928 C7.289,41.425 7.634,41.034 7.845,40.754 C8.056,40.476 8.353,40.092 8.735,39.601 C9.120,39.110 9.450,38.600 9.728,38.070 C10.003,37.539 10.274,36.957 10.540,36.318 C7.263,34.411 4.689,32.062 2.813,29.278 C0.937,26.493 -0.001,23.522 -0.001,20.366 C-0.001,16.680 1.241,13.273 3.725,10.143 C6.206,7.015 9.595,4.540 13.886,2.724 C18.178,0.907 22.847,-0.002 27.893,-0.002 C32.939,-0.002 37.607,0.907 41.898,2.724 C46.190,4.540 49.577,7.012 52.061,10.143 C54.542,13.273 55.784,16.680 55.784,20.366 C55.784,24.052 54.542,27.461 52.061,30.589 C49.577,33.719 46.190,36.192 41.898,38.008 ZM47.603,12.768 C45.530,10.408 42.736,8.538 39.224,7.158 C35.710,5.780 31.934,5.091 27.893,5.091 C23.851,5.091 20.073,5.780 16.562,7.158 C13.047,8.538 10.255,10.408 8.182,12.768 C6.109,15.128 5.071,17.660 5.071,20.366 C5.071,22.540 5.772,24.636 7.170,26.653 C8.572,28.668 10.537,30.417 13.073,31.902 L16.918,34.129 L15.531,37.472 C16.428,36.942 17.248,36.423 17.986,35.920 L19.732,34.687 L21.831,35.085 C23.892,35.455 25.912,35.641 27.893,35.641 C31.934,35.641 35.710,34.952 39.224,33.574 C42.736,32.196 45.530,30.324 47.603,27.964 C49.677,25.604 50.714,23.072 50.714,20.366 C50.714,17.660 49.677,15.128 47.603,12.768 ZM28.327,31.247 C22.393,31.247 17.628,26.462 17.628,20.507 C17.628,14.549 22.393,9.764 28.327,9.764 C34.259,9.764 39.024,14.549 39.024,20.507 C39.024,26.462 34.259,31.247 28.327,31.247 ZM34.161,20.018 C34.161,19.724 33.967,19.529 33.674,19.529 L29.543,19.529 C29.396,19.529 29.298,19.431 29.298,19.286 L29.298,15.135 C29.298,14.842 29.104,14.646 28.811,14.646 L27.841,14.646 C27.548,14.646 27.354,14.842 27.354,15.135 L27.354,19.286 C27.354,19.431 27.256,19.529 27.112,19.529 L22.978,19.529 C22.685,19.529 22.491,19.724 22.491,20.018 L22.491,20.993 C22.491,21.286 22.685,21.481 22.978,21.481 L27.112,21.481 C27.256,21.481 27.354,21.579 27.354,21.727 L27.354,25.875 C27.354,26.169 27.548,26.364 27.841,26.364 L28.811,26.364 C29.104,26.364 29.298,26.169 29.298,25.875 L29.298,21.727 C29.298,21.579 29.396,21.481 29.543,21.481 L33.674,21.481 C33.967,21.481 34.161,21.286 34.161,20.993 L34.161,20.018 Z" class="cls-1"/>
</svg>
