<svg xmlns="http://www.w3.org/2000/svg" xmlns:xlink="http://www.w3.org/1999/xlink" preserveAspectRatio="xMidYMid" width="45" height="48" viewBox="0 0 45 48">
  <defs>
    <style>
      .cls-1 {
        fill: #fff;
        fill-rule: evenodd;
      }
    </style>
  </defs>
  <path d="M40.156,9.937 C37.481,9.937 35.312,7.713 35.312,4.968 C35.312,2.224 37.481,-0.000 40.156,-0.000 C42.831,-0.000 45.000,2.224 45.000,4.968 C45.000,7.713 42.831,9.937 40.156,9.937 ZM39.014,13.005 C39.369,12.863 39.752,12.778 40.156,12.778 C41.902,12.778 43.318,14.230 43.318,16.021 L43.318,28.610 C43.318,29.705 42.785,30.669 41.975,31.256 L44.024,45.941 C44.147,46.827 43.547,47.648 42.683,47.775 C41.820,47.903 41.018,47.286 40.894,46.400 L39.753,38.223 L37.727,46.762 C37.551,47.504 36.905,48.000 36.193,48.000 C36.069,48.000 35.943,47.986 35.818,47.954 C34.970,47.743 34.449,46.866 34.656,45.995 L38.183,31.125 C37.464,30.531 36.995,29.631 36.995,28.610 L36.995,19.045 L30.490,25.286 C30.185,25.578 29.797,25.722 29.411,25.722 C28.988,25.722 28.567,25.550 28.256,25.209 C27.659,24.555 27.693,23.529 28.331,22.917 L38.245,13.405 C38.468,13.192 38.735,13.062 39.014,13.005 ZM26.000,23.000 L19.000,23.000 C18.836,22.677 18.017,21.989 17.750,21.733 L14.000,18.000 L14.000,11.000 C14.000,9.666 14.700,10.000 16.000,10.000 L19.000,10.000 L19.000,12.000 L22.000,12.000 L22.000,10.000 L25.000,10.000 C26.300,10.000 27.000,9.666 27.000,11.000 L27.000,22.000 C27.000,23.334 27.300,23.000 26.000,23.000 ZM23.000,14.000 L18.000,14.000 L18.000,16.000 L23.000,16.000 L23.000,14.000 ZM4.844,9.937 C2.169,9.937 -0.000,7.713 -0.000,4.968 C-0.000,2.224 2.169,-0.000 4.844,-0.000 C7.520,-0.000 9.688,2.224 9.688,4.968 C9.688,7.713 7.520,9.937 4.844,9.937 ZM1.683,28.610 L1.683,16.021 C1.683,14.230 3.099,12.778 4.844,12.778 C5.248,12.778 5.631,12.863 5.987,13.005 C6.265,13.062 6.532,13.192 6.755,13.405 L16.670,22.917 C17.307,23.529 17.341,24.555 16.744,25.209 C16.433,25.550 16.012,25.722 15.590,25.722 C15.203,25.722 14.815,25.578 14.510,25.286 L8.006,19.045 L8.006,28.610 C8.006,29.631 7.536,30.531 6.817,31.125 L10.344,45.995 C10.551,46.866 10.031,47.743 9.182,47.954 C9.057,47.986 8.931,48.000 8.807,48.000 C8.095,48.000 7.449,47.503 7.273,46.762 L5.247,38.223 L4.106,46.400 C3.982,47.286 3.180,47.903 2.318,47.775 C1.453,47.648 0.853,46.827 0.977,45.941 L3.026,31.256 C2.216,30.669 1.683,29.705 1.683,28.610 Z" class="cls-1"/>
</svg>
