<svg xmlns="http://www.w3.org/2000/svg" xmlns:xlink="http://www.w3.org/1999/xlink" preserveAspectRatio="xMidYMid" width="36.281" height="36.281" viewBox="0 0 36.281 36.281">
  <defs>
    <style>
      .cls-1 {
        fill: #FCD40A;
        fill-rule: evenodd;
      }
    </style>
  </defs>
  <path d="M20.246,18.125 L35.817,33.695 C36.403,34.281 36.403,35.231 35.817,35.816 C35.231,36.402 34.282,36.402 33.696,35.816 L18.125,20.245 L2.554,35.816 C1.968,36.402 1.018,36.402 0.432,35.816 C-0.153,35.231 -0.153,34.281 0.432,33.695 L16.003,18.125 L0.432,2.554 C-0.153,1.968 -0.153,1.019 0.432,0.433 C1.018,-0.153 1.968,-0.153 2.554,0.433 L18.125,16.004 L33.696,0.433 C34.282,-0.153 35.231,-0.153 35.817,0.433 C36.403,1.019 36.403,1.968 35.817,2.554 L20.246,18.125 Z" class="cls-1"/>
</svg>
