<svg xmlns="http://www.w3.org/2000/svg" xmlns:xlink="http://www.w3.org/1999/xlink" preserveAspectRatio="xMidYMid" width="33" height="33.969" viewBox="0 0 33 33.969">
  <defs>
    <style>
      .cls-1 {
        fill: #FCCF29;
        fill-rule: evenodd;
      }
    </style>
  </defs>
  <path d="M2.158,1.249 C3.479,-0.112 7.470,-0.340 7.500,0.379 C7.530,1.101 11.096,9.083 11.127,9.802 C11.157,10.520 8.776,12.975 8.079,13.694 C7.389,14.405 12.738,20.635 12.839,20.751 C12.953,20.855 18.998,26.368 19.688,25.656 C20.385,24.939 22.766,22.484 23.464,22.516 C24.163,22.548 31.909,26.222 32.608,26.253 C33.306,26.285 33.086,30.397 31.765,31.758 C30.636,32.921 24.788,37.146 14.620,29.602 C13.505,28.941 11.738,27.426 9.061,24.668 C9.059,24.666 9.057,24.664 9.056,24.663 C9.054,24.661 9.052,24.659 9.050,24.657 C9.048,24.654 9.046,24.653 9.044,24.651 C9.042,24.648 9.040,24.647 9.039,24.645 C6.362,21.886 4.892,20.066 4.250,18.917 C-3.069,8.438 1.029,2.412 2.158,1.249 Z" class="cls-1"/>
</svg>
