<svg xmlns="http://www.w3.org/2000/svg" xmlns:xlink="http://www.w3.org/1999/xlink" preserveAspectRatio="xMidYMid" width="71" height="44" viewBox="0 0 71 44">
  <defs>
    <style>
      .cls-1 {
        fill: #fff;
        fill-rule: evenodd;
      }
    </style>
  </defs>
  <path d="M69.605,40.120 L66.392,40.120 C65.779,42.353 63.732,44.000 61.306,44.000 C58.880,44.000 56.833,42.353 56.220,40.120 L36.614,40.120 C36.001,42.353 33.953,44.000 31.527,44.000 C29.101,44.000 27.054,42.353 26.441,40.120 L23.531,40.120 C22.760,40.120 22.136,39.495 22.136,38.725 L22.136,37.308 L14.063,37.308 C13.293,37.308 12.669,36.684 12.669,35.914 C12.669,35.144 13.293,34.519 14.063,34.519 L22.136,34.519 L22.136,22.495 C16.581,21.790 12.271,17.037 12.271,11.294 C12.271,5.067 17.338,0.000 23.566,0.000 C29.486,0.000 34.353,4.579 34.820,10.380 L53.330,10.380 C54.100,10.380 54.724,11.004 54.724,11.774 L54.724,17.499 L61.486,17.499 C61.887,17.499 62.270,17.672 62.535,17.975 L70.654,27.244 C70.877,27.498 71.000,27.825 71.000,28.163 L71.000,38.725 C71.000,39.495 70.375,40.120 69.605,40.120 ZM31.527,41.211 C32.898,41.211 34.013,40.096 34.013,38.725 C34.013,37.355 32.898,36.239 31.527,36.239 C30.157,36.239 29.041,37.355 29.041,38.725 C29.041,40.096 30.157,41.211 31.527,41.211 ZM23.566,2.789 C18.875,2.789 15.060,6.604 15.060,11.294 C15.060,15.984 18.875,19.800 23.566,19.800 C28.256,19.800 32.072,15.984 32.072,11.294 C32.072,6.604 28.256,2.789 23.566,2.789 ZM51.935,13.169 L34.702,13.169 C33.880,18.068 29.895,21.905 24.925,22.504 L24.925,37.331 L26.441,37.331 C27.054,35.097 29.101,33.451 31.527,33.451 C33.953,33.451 36.000,35.097 36.614,37.331 L51.935,37.331 L51.935,13.169 ZM61.306,41.211 C62.677,41.211 63.792,40.096 63.792,38.725 C63.792,37.355 62.676,36.239 61.306,36.239 C59.935,36.239 58.820,37.355 58.820,38.725 C58.820,40.096 59.935,41.211 61.306,41.211 ZM68.211,28.687 L60.853,20.288 L54.724,20.288 L54.724,37.331 L56.220,37.331 C56.833,35.097 58.880,33.451 61.306,33.451 C63.732,33.451 65.779,35.097 66.392,37.331 L68.211,37.331 L68.211,28.687 ZM57.000,23.000 L61.000,23.000 L65.000,28.000 L57.000,28.000 L57.000,23.000 ZM25.959,15.082 C25.602,15.082 25.245,14.946 24.973,14.674 L22.580,12.280 C22.318,12.019 22.171,11.664 22.171,11.294 L22.171,4.767 C22.171,3.997 22.796,3.373 23.566,3.373 C24.336,3.373 24.960,3.997 24.960,4.767 L24.960,10.717 L26.945,12.702 C27.490,13.246 27.490,14.129 26.945,14.674 C26.673,14.946 26.316,15.082 25.959,15.082 ZM8.725,16.445 L3.164,16.445 C2.394,16.445 1.770,15.820 1.770,15.050 C1.770,14.280 2.394,13.656 3.164,13.656 L8.725,13.656 C9.495,13.656 10.120,14.280 10.120,15.050 C10.120,15.820 9.495,16.445 8.725,16.445 ZM17.732,25.341 C17.732,26.111 17.108,26.735 16.338,26.735 L1.394,26.735 C0.624,26.735 -0.000,26.111 -0.000,25.341 C-0.000,24.571 0.624,23.947 1.394,23.947 L16.338,23.947 C17.108,23.947 17.732,24.571 17.732,25.341 ZM8.725,34.519 L9.469,34.519 C10.239,34.519 10.864,35.144 10.864,35.914 C10.864,36.684 10.239,37.308 9.469,37.308 L8.725,37.308 C7.955,37.308 7.331,36.684 7.331,35.914 C7.331,35.144 7.955,34.519 8.725,34.519 Z" class="cls-1"/>
</svg>
