<svg xmlns="http://www.w3.org/2000/svg" xmlns:xlink="http://www.w3.org/1999/xlink" preserveAspectRatio="xMidYMid" width="58" height="55" viewBox="0 0 58 55">
  <defs>
    <style>
      .cls-1 {
        fill: #fff;
        fill-rule: evenodd;
      }
    </style>
  </defs>
  <path d="M57.121,39.228 L54.220,39.228 C53.799,39.228 53.434,38.921 53.360,38.497 C52.623,34.212 51.508,28.753 50.020,26.880 C50.545,28.299 50.685,30.699 50.539,32.363 C50.411,33.794 49.448,34.936 49.198,36.342 C49.271,36.821 49.545,37.379 49.807,38.006 C50.051,38.589 49.624,39.228 49.003,39.228 L36.320,39.228 C35.698,39.228 35.271,38.583 35.515,38.006 C35.777,37.379 36.051,36.821 36.124,36.342 C36.307,35.175 34.924,33.561 34.784,32.333 C34.643,31.098 34.845,29.760 35.186,28.508 L35.948,27.967 C36.411,27.635 36.722,27.144 36.819,26.580 C36.917,26.015 36.795,25.444 36.466,24.977 L32.760,19.666 C34.071,18.328 35.643,17.726 37.355,17.179 C38.361,16.860 39.428,17.413 39.775,18.426 C40.391,20.194 41.317,23.276 41.957,25.425 C42.171,26.131 43.158,26.131 43.365,25.425 C44.005,23.276 44.938,20.194 45.547,18.426 C45.900,17.413 46.967,16.860 47.967,17.179 C50.179,17.885 52.160,18.684 53.647,21.041 C55.311,23.681 55.938,26.954 56.609,30.048 C57.194,32.744 57.639,35.476 57.993,38.227 C58.059,38.749 57.651,39.215 57.121,39.228 ZM47.455,13.508 C46.169,14.631 44.493,16.547 42.658,16.547 C40.824,16.547 39.148,14.631 37.861,13.508 C36.612,14.171 34.777,14.822 33.034,14.048 C33.388,13.096 33.686,12.114 33.936,11.125 C34.613,8.479 34.363,5.790 36.106,3.518 C37.685,1.473 40.135,-0.000 42.658,-0.000 C45.181,-0.000 47.637,1.473 49.210,3.518 C50.959,5.790 50.703,8.479 51.380,11.125 C51.630,12.114 51.928,13.096 52.282,14.048 C50.539,14.822 48.704,14.165 47.455,13.508 ZM35.145,27.483 L16.830,40.609 C16.765,40.656 16.688,40.668 16.619,40.704 L16.259,41.277 L14.164,44.581 L7.331,51.742 C7.119,51.960 6.817,52.062 6.517,52.008 C6.355,51.979 6.206,51.908 6.083,51.799 L2.386,48.584 C2.080,48.323 1.985,47.876 2.156,47.508 C5.803,39.631 7.549,35.136 8.494,34.520 C8.731,34.369 9.066,34.253 9.486,34.328 C9.546,34.339 9.600,34.349 9.659,34.366 L12.239,38.316 L11.433,38.428 L11.376,38.436 C10.495,38.621 10.700,38.508 10.515,38.893 C10.045,39.869 10.575,40.999 10.640,41.123 C10.762,41.376 10.998,41.549 11.274,41.599 L11.322,41.607 C11.613,41.641 11.892,41.535 12.100,41.304 L13.509,39.636 L13.660,39.451 L13.842,39.231 L8.433,31.571 C7.908,30.828 8.081,29.794 8.818,29.265 L27.133,16.139 C27.871,15.610 28.897,15.784 29.422,16.527 L35.531,25.177 C36.055,25.920 35.882,26.954 35.145,27.483 ZM14.690,38.207 L15.210,37.580 C14.936,37.615 14.663,37.684 14.404,37.803 L14.690,38.207 ZM11.077,29.229 L9.560,30.316 C9.398,30.432 9.360,30.660 9.475,30.823 L10.554,32.351 C11.340,31.518 11.548,30.276 11.077,29.229 ZM28.379,17.275 C28.264,17.111 28.038,17.073 27.875,17.189 L26.360,18.275 C27.187,19.066 28.419,19.276 29.458,18.802 L28.379,17.275 ZM30.209,19.866 C28.581,20.733 26.560,20.390 25.304,19.032 L12.132,28.472 C12.994,30.113 12.653,32.149 11.305,33.414 L13.653,36.739 C14.469,36.304 15.383,36.179 16.250,36.327 L17.154,35.239 C17.607,34.709 18.397,34.651 18.923,35.108 C19.449,35.564 19.506,36.360 19.053,36.890 L19.025,36.910 L18.580,37.610 C18.611,37.643 18.646,37.669 18.676,37.704 L31.816,28.286 C30.848,26.622 31.167,24.496 32.557,23.190 L30.209,19.866 ZM34.488,25.925 L33.308,24.254 C32.483,25.130 32.296,26.458 32.865,27.535 L34.403,26.432 C34.565,26.316 34.603,26.088 34.488,25.925 ZM26.409,25.201 C25.780,24.310 25.987,23.069 26.872,22.435 C27.756,21.801 28.988,22.011 29.617,22.902 C30.246,23.793 30.039,25.033 29.154,25.667 C28.270,26.301 27.038,26.092 26.409,25.201 ZM28.574,23.649 C28.354,23.338 27.923,23.264 27.614,23.486 C27.304,23.708 27.232,24.142 27.452,24.453 C27.672,24.765 28.103,24.838 28.412,24.616 C28.722,24.394 28.794,23.961 28.574,23.649 ZM24.664,32.112 C22.607,33.586 19.743,33.100 18.279,31.027 C16.816,28.955 17.298,26.070 19.356,24.596 C21.413,23.121 24.277,23.608 25.740,25.680 C27.204,27.752 26.721,30.638 24.664,32.112 ZM24.697,26.428 C23.643,24.935 21.580,24.584 20.097,25.646 C18.616,26.708 18.268,28.787 19.322,30.280 C20.376,31.773 22.440,32.123 23.922,31.061 C25.404,29.999 25.752,27.920 24.697,26.428 ZM17.147,34.272 C16.263,34.906 15.031,34.697 14.402,33.806 C13.773,32.915 13.981,31.675 14.865,31.041 C15.750,30.407 16.981,30.616 17.610,31.507 C18.239,32.398 18.032,33.638 17.147,34.272 ZM16.568,32.254 C16.347,31.943 15.917,31.870 15.607,32.091 C15.298,32.313 15.225,32.747 15.445,33.059 C15.665,33.371 16.096,33.443 16.405,33.222 C16.715,33.000 16.788,32.566 16.568,32.254 ZM3.335,50.378 L5.739,52.462 C5.846,52.562 5.944,52.636 6.067,52.746 C6.518,53.169 6.603,53.846 6.203,54.323 L5.991,54.578 C5.574,55.077 4.838,55.144 4.343,54.725 L0.419,51.426 C-0.076,51.006 -0.143,50.265 0.273,49.766 L0.486,49.511 C0.902,49.012 1.638,48.944 2.134,49.364 L3.335,50.378 ZM19.939,40.070 C20.092,40.507 20.087,40.974 19.919,41.397 C19.750,41.820 19.441,42.155 19.069,42.316 C18.603,42.514 17.844,42.597 17.232,42.150 C17.000,41.981 16.809,41.743 16.672,41.453 L18.859,40.055 L19.939,40.070 ZM34.582,28.919 C33.498,31.449 32.516,35.292 31.962,38.485 C31.889,38.908 31.529,39.215 31.102,39.215 L28.201,39.215 C27.677,39.215 27.269,38.755 27.336,38.227 C27.537,36.661 27.768,35.108 28.037,33.554 L34.582,28.919 Z" class="cls-1"/>
</svg>
