<svg xmlns="http://www.w3.org/2000/svg" xmlns:xlink="http://www.w3.org/1999/xlink" preserveAspectRatio="xMidYMid" width="33" height="27" viewBox="0 0 33 27">
  <defs>
    <style>
      .cls-1 {
        fill: #fff;
        fill-rule: evenodd;
      }
    </style>
  </defs>
  <path d="M32.429,27.010 L0.575,27.010 C0.261,27.010 0.006,26.746 0.006,26.422 L0.006,0.583 C0.006,0.258 0.261,-0.005 0.575,-0.005 L32.429,-0.005 C32.743,-0.005 32.995,0.258 32.995,0.583 L32.995,26.422 C32.995,26.746 32.743,27.010 32.429,27.010 ZM6.000,1.000 L1.000,1.000 L1.000,7.000 L6.000,7.000 L6.000,1.000 ZM6.000,8.000 L1.000,8.000 L1.000,13.000 L6.000,13.000 L6.000,8.000 ZM6.000,14.000 L1.000,14.000 L1.000,19.000 L6.000,19.000 L6.000,14.000 ZM6.000,20.000 L1.000,20.000 L1.000,26.000 L6.000,26.000 L6.000,20.000 ZM25.000,2.000 L8.000,2.000 L8.000,25.000 L25.000,25.000 L25.000,2.000 ZM32.000,1.000 L27.000,1.000 L27.000,7.000 L32.000,7.000 L32.000,1.000 ZM32.000,8.000 L27.000,8.000 L27.000,13.000 L32.000,13.000 L32.000,8.000 ZM32.000,14.000 L27.000,14.000 L27.000,19.000 L32.000,19.000 L32.000,14.000 ZM32.000,20.000 L27.000,20.000 L27.000,26.000 L32.000,26.000 L32.000,20.000 ZM13.908,8.896 C13.919,8.891 13.923,8.891 13.951,8.876 C14.134,8.772 14.357,8.781 14.532,8.895 L20.788,13.008 C20.953,13.113 21.053,13.300 21.053,13.500 C21.053,13.702 20.953,13.891 20.788,13.996 L14.532,18.109 C14.440,18.169 14.331,18.201 14.226,18.201 C14.131,18.201 14.037,18.175 13.951,18.129 C13.770,18.026 14.000,18.215 14.000,18.000 L14.000,9.000 C14.000,8.893 13.943,8.887 13.908,8.896 ZM15.000,16.000 L19.423,13.500 L15.000,11.000 L15.000,16.000 ZM13.908,8.896 C13.884,8.905 13.884,8.902 13.908,8.896 Z" class="cls-1"/>
</svg>
