<svg xmlns="http://www.w3.org/2000/svg" xmlns:xlink="http://www.w3.org/1999/xlink" preserveAspectRatio="xMidYMid" width="45" height="42" viewBox="0 0 45 42">
  <defs>
    <style>
      .cls-1 {
        fill: #fff;
        fill-rule: evenodd;
      }
    </style>
  </defs>
  <path d="M42.486,21.409 L8.061,21.409 C6.675,21.409 5.548,20.269 5.548,18.867 L5.548,2.543 C5.548,1.141 6.675,-0.000 8.061,-0.000 L42.486,-0.000 C43.872,-0.000 45.000,1.141 45.000,2.543 L45.000,18.867 C45.000,20.269 43.872,21.409 42.486,21.409 ZM7.508,18.867 C7.508,19.176 7.757,19.427 8.061,19.427 L10.954,19.427 C10.715,17.565 9.311,16.070 7.508,15.714 L7.508,18.867 ZM8.061,1.983 C7.757,1.983 7.508,2.234 7.508,2.543 L7.508,5.425 C9.223,5.087 10.577,3.717 10.911,1.983 L8.061,1.983 ZM43.040,2.543 C43.040,2.234 42.792,1.983 42.486,1.983 L39.639,1.983 C39.973,3.716 41.326,5.086 43.040,5.425 L43.040,2.543 ZM43.040,7.432 C40.243,7.057 38.024,4.812 37.654,1.983 L12.896,1.983 C12.525,4.812 10.305,7.058 7.508,7.432 L7.508,13.707 C10.394,14.093 12.666,16.471 12.926,19.427 L37.624,19.427 C37.884,16.472 40.155,14.094 43.040,13.707 L43.040,7.432 ZM43.040,15.714 C41.238,16.071 39.835,17.566 39.595,19.427 L42.486,19.427 C42.792,19.427 43.040,19.176 43.040,18.867 L43.040,15.714 ZM36.610,13.754 C34.948,13.754 33.596,12.386 33.596,10.705 C33.596,9.023 34.948,7.655 36.610,7.655 C38.273,7.655 39.625,9.023 39.625,10.705 C39.625,12.386 38.273,13.754 36.610,13.754 ZM36.610,9.638 C36.029,9.638 35.556,10.117 35.556,10.705 C35.556,11.293 36.029,11.771 36.610,11.771 C37.192,11.771 37.665,11.293 37.665,10.705 C37.665,10.117 37.192,9.638 36.610,9.638 ZM25.327,17.797 C21.460,17.797 18.315,14.615 18.315,10.704 C18.315,6.794 21.460,3.612 25.327,3.612 C29.193,3.612 32.339,6.794 32.339,10.704 C32.339,14.615 29.193,17.797 25.327,17.797 ZM25.327,5.595 C22.541,5.595 20.275,7.887 20.275,10.705 C20.275,13.522 22.541,15.814 25.327,15.814 C28.112,15.814 30.378,13.522 30.378,10.705 C30.378,7.887 28.112,5.595 25.327,5.595 ZM14.043,13.754 C12.380,13.754 11.028,12.386 11.028,10.705 C11.028,9.023 12.380,7.655 14.043,7.655 C15.705,7.655 17.057,9.023 17.057,10.705 C17.057,12.386 15.705,13.754 14.043,13.754 ZM14.043,9.638 C13.461,9.638 12.988,10.117 12.988,10.705 C12.988,11.293 13.461,11.771 14.043,11.771 C14.624,11.771 15.097,11.293 15.097,10.705 C15.097,10.117 14.624,9.638 14.043,9.638 ZM6.030,26.884 C6.427,26.420 6.925,25.910 7.551,25.370 C11.086,22.319 16.192,22.417 16.617,22.430 L26.624,22.430 C28.130,22.430 29.356,23.669 29.356,25.192 L29.356,27.362 C29.356,28.885 28.130,30.124 26.624,30.124 L22.974,30.124 C23.159,30.465 23.490,30.849 24.082,31.163 C24.960,31.628 27.922,32.057 29.549,31.954 C31.432,31.835 33.891,31.322 36.270,30.826 C38.031,30.458 39.695,30.111 40.966,29.964 C41.722,29.876 42.465,30.122 43.057,30.656 C43.707,31.243 44.096,32.123 44.096,33.010 L44.096,35.536 C44.096,36.400 43.735,37.942 41.317,38.559 C40.420,38.788 39.406,39.078 38.332,39.386 C36.013,40.049 33.385,40.801 31.295,41.099 C29.605,41.339 28.033,41.522 26.087,41.522 C23.370,41.522 19.922,41.166 14.397,40.117 C9.718,39.228 7.507,38.984 6.532,38.922 L6.532,39.684 C6.532,40.961 5.505,42.000 4.242,42.000 L0.980,42.000 C0.720,42.000 0.471,41.896 0.287,41.709 C0.103,41.524 0.000,41.271 0.000,41.009 L0.000,27.003 C0.000,26.456 0.439,26.012 0.980,26.012 L4.242,26.012 C4.965,26.012 5.610,26.353 6.030,26.884 ZM6.532,36.937 C7.686,36.999 10.032,37.271 14.759,38.168 C23.950,39.914 27.166,39.684 31.022,39.135 C32.980,38.856 35.540,38.124 37.799,37.477 C38.886,37.167 39.913,36.872 40.838,36.637 C42.135,36.306 42.135,35.747 42.135,35.536 L42.135,33.011 C42.135,32.685 41.988,32.349 41.752,32.136 C41.633,32.028 41.438,31.905 41.189,31.934 C40.005,32.071 38.383,32.409 36.666,32.768 C34.221,33.278 31.692,33.805 29.671,33.933 C28.021,34.038 24.566,33.657 23.173,32.919 C21.649,32.112 21.093,30.937 20.892,30.124 L16.600,30.124 C16.059,30.124 15.620,29.680 15.620,29.133 C15.620,28.586 16.059,28.142 16.600,28.142 L26.625,28.142 C27.050,28.142 27.396,27.792 27.396,27.362 L27.396,25.192 C27.396,24.762 27.050,24.412 26.625,24.412 L16.600,24.412 C16.587,24.412 16.575,24.412 16.562,24.412 C16.516,24.410 11.844,24.271 8.823,26.878 C7.497,28.022 6.878,28.970 6.627,29.433 C6.599,29.485 6.567,29.532 6.532,29.576 L6.532,36.937 ZM4.572,28.328 C4.572,28.144 4.424,27.995 4.242,27.995 L1.960,27.995 L1.960,40.017 L4.242,40.017 C4.424,40.017 4.572,39.868 4.572,39.684 L4.572,28.328 Z" class="cls-1"/>
</svg>
