<svg xmlns="http://www.w3.org/2000/svg" xmlns:xlink="http://www.w3.org/1999/xlink" preserveAspectRatio="xMidYMid" width="23" height="23" viewBox="0 0 23 23">
  <defs>
    <style>
      .cls-1 {
        fill: #FCCF29;
        fill-rule: evenodd;
      }
    </style>
  </defs>
  <path d="M22.266,18.826 C23.216,19.776 23.216,21.316 22.266,22.266 C21.316,23.215 19.777,23.215 18.827,22.266 L14.874,18.313 C14.798,18.237 14.739,18.153 14.676,18.071 C10.943,20.290 6.048,19.805 2.836,16.593 C-0.963,12.794 -0.963,6.635 2.836,2.836 C6.635,-0.963 12.794,-0.963 16.593,2.836 C19.805,6.048 20.290,10.942 18.071,14.676 C18.153,14.739 18.238,14.798 18.313,14.873 L22.266,18.826 ZM14.301,5.128 C11.768,2.596 7.662,2.596 5.129,5.128 C2.596,7.661 2.596,11.767 5.129,14.300 C7.662,16.833 11.768,16.833 14.301,14.300 C16.833,11.767 16.833,7.661 14.301,5.128 Z" class="cls-1"/>
</svg>
