<svg xmlns="http://www.w3.org/2000/svg" xmlns:xlink="http://www.w3.org/1999/xlink" preserveAspectRatio="xMidYMid" width="31.5" height="26.09" viewBox="0 0 31.5 26.09">
  <defs>
    <style>
      .cls-1 {
        fill: #15181F;
        fill-rule: evenodd;
      }
    </style>
  </defs>
  <path d="M21.042,2.010 C22.668,2.010 24.136,2.685 25.170,3.771 C26.456,3.518 27.669,3.057 28.759,2.419 C28.337,3.720 27.440,4.811 26.274,5.501 C27.416,5.365 28.508,5.067 29.522,4.622 C28.762,5.739 27.805,6.722 26.700,7.508 C26.710,7.746 26.716,7.987 26.716,8.228 C26.716,15.594 21.027,24.088 10.624,24.088 C7.431,24.088 4.457,23.162 1.955,21.581 C2.397,21.635 2.847,21.660 3.303,21.660 C5.953,21.660 8.393,20.770 10.329,19.273 C7.853,19.230 5.763,17.617 5.046,15.403 C5.391,15.469 5.745,15.504 6.111,15.504 C6.625,15.504 7.125,15.437 7.599,15.309 C5.012,14.798 3.062,12.545 3.062,9.843 C3.062,9.819 3.062,9.796 3.062,9.772 C3.825,10.190 4.697,10.441 5.625,10.470 C4.107,9.470 3.109,7.766 3.109,5.832 C3.109,4.809 3.388,3.851 3.874,3.031 C6.663,6.400 10.831,8.619 15.532,8.854 C15.435,8.446 15.385,8.017 15.385,7.584 C15.385,4.504 17.917,2.010 21.042,2.010 M29.522,4.622 L29.527,4.622 M21.042,0.010 C17.178,0.010 13.976,2.879 13.483,6.585 C10.321,5.940 7.446,4.239 5.380,1.744 C5.005,1.290 4.453,1.031 3.874,1.031 C3.823,1.031 3.772,1.033 3.720,1.037 C3.086,1.088 2.517,1.446 2.189,1.999 C1.503,3.156 1.141,4.481 1.141,5.832 C1.141,6.733 1.300,7.610 1.602,8.432 C1.280,8.795 1.094,9.270 1.094,9.772 L1.094,9.843 C1.094,11.802 1.856,13.620 3.122,14.982 C3.049,15.324 3.065,15.685 3.177,16.028 C3.613,17.378 4.408,18.541 5.438,19.426 C4.746,19.581 4.032,19.660 3.303,19.660 C2.918,19.660 2.543,19.639 2.189,19.595 C2.110,19.586 2.032,19.581 1.954,19.581 C1.128,19.581 0.377,20.111 0.099,20.918 C-0.207,21.803 0.133,22.784 0.916,23.279 C3.822,25.117 7.180,26.087 10.624,26.087 C21.818,26.087 28.551,17.183 28.682,8.485 C29.599,7.715 30.408,6.824 31.095,5.824 C31.345,5.491 31.493,5.074 31.493,4.622 C31.493,3.941 31.158,3.340 30.648,2.978 C30.869,2.209 30.617,1.376 30.001,0.867 C29.642,0.571 29.202,0.419 28.759,0.419 C28.421,0.419 28.082,0.507 27.776,0.687 C27.125,1.067 26.430,1.369 25.697,1.586 C24.372,0.574 22.729,0.010 21.042,0.010 L21.042,0.010 Z" class="cls-1"/>
</svg>
