<svg xmlns="http://www.w3.org/2000/svg" xmlns:xlink="http://www.w3.org/1999/xlink" preserveAspectRatio="xMidYMid" width="56.969" height="52.969" viewBox="0 0 56.969 52.969">
  <defs>
    <style>
      .cls-1 {
        fill: #000;
        fill-rule: evenodd;
      }
    </style>
  </defs>
  <path d="M56.620,10.062 C56.275,9.595 55.727,9.318 55.141,9.318 L14.015,9.318 C13.938,9.318 13.857,9.323 13.780,9.333 L12.088,4.511 C11.912,4.014 11.525,3.616 11.031,3.424 L2.499,0.112 C1.559,-0.252 0.500,0.203 0.131,1.133 C-0.237,2.058 0.224,3.109 1.163,3.473 L8.910,6.481 L18.392,33.496 C17.975,33.640 17.618,33.957 17.457,34.401 L14.717,41.929 C14.548,42.390 14.617,42.901 14.902,43.304 C15.188,43.704 15.655,43.943 16.148,43.943 L17.559,43.943 C16.684,44.904 16.148,46.168 16.148,47.555 C16.148,50.546 18.609,52.975 21.631,52.975 C24.657,52.975 27.117,50.546 27.117,47.555 C27.117,46.168 26.581,44.904 25.707,43.943 L37.663,43.943 C36.792,44.904 36.257,46.168 36.257,47.555 C36.257,50.546 38.713,52.975 41.739,52.975 C44.762,52.975 47.222,50.546 47.222,47.555 C47.222,46.168 46.686,44.904 45.814,43.943 L47.525,43.943 C48.367,43.943 49.048,43.269 49.048,42.437 C49.048,41.608 48.367,40.932 47.525,40.932 L18.317,40.932 L20.013,36.271 C20.233,36.362 20.471,36.416 20.718,36.416 L47.525,36.416 C48.322,36.416 49.024,35.910 49.266,35.163 L56.882,11.676 C57.060,11.127 56.962,10.526 56.620,10.062 L56.620,10.062 ZM21.631,49.964 C20.290,49.964 19.195,48.885 19.195,47.555 C19.195,46.227 20.290,45.148 21.631,45.148 C22.976,45.148 24.071,46.227 24.071,47.555 C24.071,48.885 22.976,49.964 21.631,49.964 L21.631,49.964 ZM41.739,49.964 C40.394,49.964 39.303,48.885 39.303,47.555 C39.303,46.227 40.394,45.148 41.739,45.148 C43.083,45.148 44.175,46.227 44.175,47.555 C44.175,48.885 43.083,49.964 41.739,49.964 L41.739,49.964 ZM51.318,16.998 L41.992,16.998 L41.992,12.931 L52.636,12.931 L51.318,16.998 ZM48.634,25.278 L41.992,25.278 L41.992,20.609 L50.146,20.609 L48.634,25.278 ZM29.908,25.278 L29.908,20.609 L38.336,20.609 L38.336,25.278 L29.908,25.278 ZM38.336,28.888 L38.336,32.805 L29.908,32.805 L29.908,28.888 L38.336,28.888 ZM17.740,20.609 L26.252,20.609 L26.252,25.278 L19.377,25.278 L17.740,20.609 ZM29.908,16.998 L29.908,12.931 L38.336,12.931 L38.336,16.998 L29.908,16.998 ZM26.252,12.931 L26.252,16.998 L16.470,16.998 L15.045,12.931 L26.252,12.931 ZM20.646,28.888 L26.252,28.888 L26.252,32.805 L22.018,32.805 L20.646,28.888 ZM41.992,32.805 L41.992,28.888 L47.462,28.888 L46.192,32.805 L41.992,32.805 Z" class="cls-1"/>
</svg>
