<svg xmlns="http://www.w3.org/2000/svg" xmlns:xlink="http://www.w3.org/1999/xlink" preserveAspectRatio="xMidYMid" width="41" height="24" viewBox="0 0 41 24">
  <defs>
    <style>
      .cls-1 {
        fill: #3f434c;
        fill-rule: evenodd;
      }
    </style>
  </defs>
  <path d="M15.000,24.000 L15.000,19.999 L41.000,19.999 L41.000,24.000 L15.000,24.000 ZM15.000,9.999 L41.000,9.999 L41.000,13.999 L15.000,13.999 L15.000,9.999 ZM15.000,-0.001 L41.000,-0.001 L41.000,3.999 L15.000,3.999 L15.000,-0.001 ZM-0.000,19.999 L10.000,19.999 L10.000,24.000 L-0.000,24.000 L-0.000,19.999 ZM-0.000,9.999 L10.000,9.999 L10.000,13.999 L-0.000,13.999 L-0.000,9.999 ZM-0.000,-0.001 L10.000,-0.001 L10.000,3.999 L-0.000,3.999 L-0.000,-0.001 Z" class="cls-1"/>
</svg>
