<svg xmlns="http://www.w3.org/2000/svg" xmlns:xlink="http://www.w3.org/1999/xlink" preserveAspectRatio="xMidYMid" width="41" height="24" viewBox="0 0 41 24">
  <defs>
    <style>
      .cls-1 {
        fill: #3f434c;
        fill-rule: evenodd;
      }
    </style>
  </defs>
  <path d="M33.000,24.000 L33.000,17.999 L41.000,17.999 L41.000,24.000 L33.000,24.000 ZM33.000,8.999 L41.000,8.999 L41.000,14.999 L33.000,14.999 L33.000,8.999 ZM33.000,-0.001 L41.000,-0.001 L41.000,5.999 L33.000,5.999 L33.000,-0.001 ZM22.000,17.999 L30.000,17.999 L30.000,24.000 L22.000,24.000 L22.000,17.999 ZM22.000,8.999 L30.000,8.999 L30.000,14.999 L22.000,14.999 L22.000,8.999 ZM22.000,-0.001 L30.000,-0.001 L30.000,5.999 L22.000,5.999 L22.000,-0.001 ZM11.000,17.999 L19.000,17.999 L19.000,24.000 L11.000,24.000 L11.000,17.999 ZM11.000,8.999 L19.000,8.999 L19.000,14.999 L11.000,14.999 L11.000,8.999 ZM11.000,-0.001 L19.000,-0.001 L19.000,5.999 L11.000,5.999 L11.000,-0.001 ZM-0.000,17.999 L8.000,17.999 L8.000,24.000 L-0.000,24.000 L-0.000,17.999 ZM-0.000,8.999 L8.000,8.999 L8.000,14.999 L-0.000,14.999 L-0.000,8.999 ZM-0.000,-0.001 L8.000,-0.001 L8.000,5.999 L-0.000,5.999 L-0.000,-0.001 Z" class="cls-1"/>
</svg>
