<svg xmlns="http://www.w3.org/2000/svg" xmlns:xlink="http://www.w3.org/1999/xlink" preserveAspectRatio="xMidYMid" width="30.969" height="22" viewBox="0 0 30.969 22">
  <defs>
    <style>
      .cls-1 {
        fill: #eec52c;
        fill-rule: evenodd;
      }
    </style>
  </defs>
  <path d="M30.703,7.718 C30.332,8.114 29.719,8.125 29.334,7.743 C25.600,4.035 20.683,1.993 15.488,1.992 C10.293,1.993 5.375,4.035 1.641,7.743 C1.454,7.929 1.211,8.022 0.969,8.022 C0.716,8.022 0.463,7.920 0.273,7.718 C-0.098,7.322 -0.087,6.691 0.297,6.309 C4.394,2.241 9.788,0.000 15.487,-0.000 L15.489,-0.000 C21.187,0.000 26.581,2.241 30.678,6.309 C31.063,6.691 31.073,7.322 30.703,7.718 ZM15.487,7.212 C22.211,7.212 27.248,11.903 29.102,13.920 C29.454,14.305 29.454,14.905 29.102,15.290 C27.248,17.306 22.211,21.998 15.487,21.998 C8.762,21.998 3.725,17.306 1.872,15.290 C1.519,14.905 1.519,14.305 1.872,13.920 C3.726,11.903 8.763,7.212 15.487,7.212 ZM21.456,18.597 C23.913,17.436 25.842,15.793 27.037,14.605 C25.816,13.392 23.829,11.703 21.295,10.538 C22.045,11.779 22.440,13.212 22.440,14.712 C22.440,16.104 22.087,17.440 21.456,18.597 ZM13.005,19.761 C13.800,19.917 14.628,20.006 15.487,20.006 C16.199,20.006 16.890,19.944 17.560,19.834 C19.353,18.893 20.504,16.898 20.504,14.712 C20.504,12.217 18.991,9.988 16.819,9.277 C16.383,9.231 15.939,9.205 15.487,9.205 C14.881,9.205 14.290,9.250 13.715,9.331 C11.605,10.106 10.190,12.261 10.190,14.712 C10.190,16.859 11.266,18.783 13.005,19.761 ZM9.127,18.407 C8.564,17.299 8.254,16.037 8.254,14.712 C8.254,13.268 8.626,11.897 9.286,10.725 C6.939,11.878 5.094,13.456 3.938,14.605 C5.068,15.729 6.856,17.261 9.127,18.407 ZM15.347,12.191 C15.347,13.582 16.447,14.712 17.801,14.712 C17.801,16.104 16.702,17.234 15.347,17.234 C13.992,17.234 12.894,16.104 12.894,14.712 C12.894,13.320 13.992,12.191 15.347,12.191 Z" class="cls-1"/>
</svg>
