<svg xmlns="http://www.w3.org/2000/svg" xmlns:xlink="http://www.w3.org/1999/xlink" preserveAspectRatio="xMidYMid" width="32" height="30" viewBox="0 0 32 30">
  <defs>
    <style>
      .cls-1 {
        fill: #fff;
        fill-rule: evenodd;
      }
    </style>
  </defs>
  <path d="M31.805,5.712 C31.611,5.448 31.303,5.291 30.974,5.291 L7.879,5.291 C7.835,5.291 7.790,5.294 7.747,5.299 L6.796,2.570 C6.698,2.289 6.480,2.064 6.203,1.955 L1.412,0.081 C0.884,-0.125 0.289,0.133 0.082,0.659 C-0.125,1.183 0.134,1.777 0.661,1.983 L5.012,3.685 L10.337,18.974 C10.103,19.055 9.902,19.234 9.812,19.486 L8.273,23.746 C8.178,24.007 8.216,24.296 8.376,24.524 C8.537,24.750 8.799,24.886 9.077,24.886 L9.869,24.886 C9.377,25.429 9.077,26.145 9.077,26.930 C9.077,28.622 10.458,29.997 12.156,29.997 C13.855,29.997 15.237,28.622 15.237,26.930 C15.237,26.145 14.935,25.429 14.445,24.886 L21.159,24.886 C20.670,25.429 20.369,26.145 20.369,26.930 C20.369,28.622 21.749,29.997 23.448,29.997 C25.145,29.997 26.527,28.622 26.527,26.930 C26.527,26.145 26.226,25.429 25.736,24.886 L26.697,24.886 C27.170,24.886 27.552,24.504 27.552,24.033 C27.552,23.564 27.170,23.182 26.697,23.182 L10.295,23.182 L11.247,20.544 C11.370,20.596 11.504,20.626 11.643,20.626 L26.697,20.626 C27.145,20.626 27.539,20.340 27.675,19.917 L31.952,6.625 C32.052,6.314 31.997,5.975 31.805,5.712 L31.805,5.712 ZM12.156,28.293 C11.402,28.293 10.787,27.682 10.787,26.930 C10.787,26.178 11.402,25.568 12.156,25.568 C12.911,25.568 13.526,26.178 13.526,26.930 C13.526,27.682 12.911,28.293 12.156,28.293 L12.156,28.293 ZM23.448,28.293 C22.693,28.293 22.080,27.682 22.080,26.930 C22.080,26.178 22.693,25.568 23.448,25.568 C24.203,25.568 24.816,26.178 24.816,26.930 C24.816,27.682 24.203,28.293 23.448,28.293 L23.448,28.293 ZM28.827,9.637 L23.590,9.637 L23.590,7.336 L29.567,7.336 L28.827,9.637 ZM27.320,14.323 L23.590,14.323 L23.590,11.681 L28.169,11.681 L27.320,14.323 ZM16.804,14.323 L16.804,11.681 L21.537,11.681 L21.537,14.323 L16.804,14.323 ZM21.537,16.366 L21.537,18.582 L16.804,18.582 L16.804,16.366 L21.537,16.366 ZM9.970,11.681 L14.750,11.681 L14.750,14.323 L10.890,14.323 L9.970,11.681 ZM16.804,9.637 L16.804,7.336 L21.537,7.336 L21.537,9.637 L16.804,9.637 ZM14.750,7.336 L14.750,9.637 L9.257,9.637 L8.457,7.336 L14.750,7.336 ZM11.603,16.366 L14.750,16.366 L14.750,18.582 L12.373,18.582 L11.603,16.366 ZM23.590,18.582 L23.590,16.366 L26.662,16.366 L25.949,18.582 L23.590,18.582 Z" class="cls-1"/>
</svg>
