<svg xmlns="http://www.w3.org/2000/svg" xmlns:xlink="http://www.w3.org/1999/xlink" preserveAspectRatio="xMidYMid" width="22" height="23" viewBox="0 0 22 23">
  <defs>
    <style>
      .cls-1 {
        fill: #FCCF29;
        fill-rule: evenodd;
      }
    </style>
  </defs>
  <path d="M17.959,8.085 C16.873,8.085 15.893,7.652 15.167,6.955 L8.066,10.987 C8.068,11.039 8.081,11.088 8.081,11.140 C8.081,11.405 8.052,11.664 8.003,11.915 L15.110,16.090 C15.841,15.363 16.847,14.913 17.959,14.913 C20.191,14.913 22.000,16.724 22.000,18.956 C22.000,21.189 20.191,22.999 17.959,22.999 C15.727,22.999 13.918,21.189 13.918,18.956 C13.918,18.848 13.942,18.745 13.950,18.639 L6.546,14.289 C5.856,14.840 4.992,15.183 4.040,15.183 C1.809,15.183 -0.000,13.373 -0.000,11.140 C-0.000,8.907 1.809,7.097 4.040,7.097 C5.209,7.097 6.254,7.601 6.991,8.395 L13.958,4.438 C13.945,4.306 13.918,4.178 13.918,4.042 C13.918,1.809 15.727,-0.001 17.959,-0.001 C20.191,-0.001 22.000,1.809 22.000,4.042 C22.000,6.275 20.191,8.085 17.959,8.085 Z" class="cls-1"/>
</svg>
