<svg xmlns="http://www.w3.org/2000/svg" xmlns:xlink="http://www.w3.org/1999/xlink" preserveAspectRatio="xMidYMid" width="31.469" height="31.531" viewBox="0 0 31.469 31.531">
  <defs>
    <style>
      .cls-1 {
        stroke: #FCD40A;
        stroke-width: 2px;
        fill: none;
        fill-rule: evenodd;
      }
    </style>
  </defs>
  <path d="M4.506,3.761 C5.541,2.723 8.669,2.549 8.693,3.098 C8.717,3.648 11.512,9.735 11.536,10.284 C11.560,10.832 9.693,12.704 9.147,13.251 C8.606,13.794 12.799,18.545 12.878,18.634 C12.968,18.714 17.706,22.917 18.247,22.375 C18.793,21.828 20.660,19.956 21.207,19.980 C21.755,20.004 27.827,22.806 28.374,22.830 C28.921,22.854 28.749,25.990 27.714,27.028 C26.829,27.915 22.244,31.137 14.274,25.385 C13.400,24.880 12.015,23.724 9.916,21.621 C9.915,21.619 9.914,21.619 9.913,21.617 C9.911,21.615 9.909,21.614 9.908,21.613 C9.906,21.610 9.905,21.610 9.903,21.608 C9.902,21.606 9.901,21.605 9.899,21.604 C7.801,19.500 6.649,18.111 6.146,17.235 C0.408,9.244 3.621,4.648 4.506,3.761 Z" class="cls-1"/>
</svg>
