<svg xmlns="http://www.w3.org/2000/svg" xmlns:xlink="http://www.w3.org/1999/xlink" preserveAspectRatio="xMidYMid" width="20.47" height="20.844" viewBox="0 0 20.47 20.844">
  <defs>
    <style>
      .cls-1 {
        fill: #15181f;
        fill-rule: evenodd;
      }
    </style>
  </defs>
  <path d="M1.365,0.785 C2.183,-0.049 4.655,-0.189 4.674,0.252 C4.692,0.694 6.901,5.584 6.920,6.025 C6.939,6.465 5.464,7.968 5.032,8.409 C4.605,8.845 7.918,12.661 7.981,12.732 C8.051,12.796 11.796,16.174 12.223,15.737 C12.655,15.298 14.130,13.794 14.562,13.814 C14.995,13.833 19.793,16.084 20.226,16.103 C20.658,16.122 20.522,18.642 19.704,19.476 C19.005,20.188 15.382,22.777 9.084,18.155 C8.393,17.750 7.299,16.821 5.640,15.132 C5.639,15.131 5.638,15.130 5.637,15.129 C5.636,15.128 5.635,15.126 5.633,15.125 C5.632,15.123 5.631,15.123 5.630,15.122 C5.629,15.120 5.628,15.119 5.627,15.118 C3.969,13.428 3.058,12.312 2.661,11.609 C-1.873,5.189 0.665,1.497 1.365,0.785 Z" class="cls-1"/>
</svg>
