<svg xmlns="http://www.w3.org/2000/svg" xmlns:xlink="http://www.w3.org/1999/xlink" preserveAspectRatio="xMidYMid" width="36" height="43" viewBox="0 0 36 43">
  <defs>
    <style>
      .cls-1 {
        fill: #fff;
        fill-rule: evenodd;
      }
    </style>
  </defs>
  <path d="M28.957,43.000 C25.073,43.000 21.913,39.785 21.913,35.833 C21.913,31.881 25.073,28.666 28.957,28.666 C32.841,28.666 36.000,31.881 36.000,35.833 C36.000,39.785 32.841,43.000 28.957,43.000 ZM28.957,30.259 C25.936,30.259 23.479,32.759 23.479,35.833 C23.479,38.906 25.936,41.407 28.957,41.407 C31.977,41.407 34.435,38.906 34.435,35.833 C34.435,32.759 31.977,30.259 28.957,30.259 ZM29.499,35.348 C30.563,35.761 30.992,36.302 30.992,37.187 C30.992,38.063 30.429,38.811 29.400,39.007 L29.400,40.011 L28.000,40.000 L28.000,39.000 C27.401,38.970 27.344,38.870 27.004,38.653 L27.272,37.502 C27.648,37.728 28.175,37.935 28.756,37.935 C29.266,37.935 29.615,37.719 29.615,37.325 C29.615,36.951 29.329,36.715 28.667,36.469 C27.710,36.115 27.058,35.623 27.058,34.669 C27.058,33.803 27.043,33.207 28.000,33.000 L28.000,32.000 L29.445,31.983 L29.445,32.849 C30.044,32.878 30.446,33.016 30.742,33.173 L30.482,34.285 C30.250,34.177 29.838,33.951 29.195,33.951 C28.613,33.951 28.426,34.226 28.426,34.501 C28.426,34.826 28.739,35.033 29.499,35.348 ZM15.652,28.666 L4.696,28.666 C4.264,28.666 3.913,28.310 3.913,27.870 C3.913,27.430 4.264,27.074 4.696,27.074 L15.652,27.074 C16.085,27.074 16.435,27.430 16.435,27.870 C16.435,28.310 16.085,28.666 15.652,28.666 ZM15.652,24.685 L4.696,24.685 C4.264,24.685 3.913,24.329 3.913,23.889 C3.913,23.449 4.264,23.092 4.696,23.092 L15.652,23.092 C16.085,23.092 16.435,23.449 16.435,23.889 C16.435,24.329 16.085,24.685 15.652,24.685 ZM15.652,20.704 L4.696,20.704 C4.264,20.704 3.913,20.347 3.913,19.907 C3.913,19.468 4.264,19.111 4.696,19.111 L15.652,19.111 C16.085,19.111 16.435,19.468 16.435,19.907 C16.435,20.347 16.085,20.704 15.652,20.704 ZM15.652,16.722 L4.696,16.722 C4.264,16.722 3.913,16.366 3.913,15.926 C3.913,15.486 4.264,15.129 4.696,15.129 L15.652,15.129 C16.085,15.129 16.435,15.486 16.435,15.926 C16.435,16.366 16.085,16.722 15.652,16.722 ZM4.696,8.759 C4.264,8.759 3.913,8.403 3.913,7.963 C3.913,7.523 4.264,7.167 4.696,7.167 L8.609,7.167 C9.041,7.167 9.391,7.523 9.391,7.963 C9.391,8.403 9.041,8.759 8.609,8.759 L4.696,8.759 ZM16.435,11.944 C16.435,12.384 16.085,12.741 15.652,12.741 L4.696,12.741 C4.264,12.741 3.913,12.384 3.913,11.944 C3.913,11.505 4.264,11.148 4.696,11.148 L15.652,11.148 C16.085,11.148 16.435,11.505 16.435,11.944 ZM28.957,27.074 C28.525,27.074 28.000,26.440 28.000,26.000 L28.000,2.000 L2.000,2.000 L2.000,38.000 L4.293,37.539 C4.565,37.372 4.910,37.390 5.165,37.585 L7.874,39.653 L11.336,37.539 C11.609,37.372 11.953,37.390 12.209,37.585 L14.918,39.653 L18.380,37.539 C18.750,37.313 19.231,37.435 19.453,37.812 C19.676,38.189 19.556,38.678 19.185,38.905 L15.272,41.293 C15.148,41.370 15.008,41.407 14.869,41.407 C14.704,41.407 14.539,41.354 14.400,41.248 L11.691,39.180 L8.229,41.293 C7.956,41.460 7.611,41.442 7.356,41.248 L4.647,39.180 L1.185,41.293 C0.943,41.442 0.642,41.445 0.397,41.304 C0.152,41.162 -0.000,40.898 -0.000,40.611 L-0.000,0.796 C-0.000,0.356 0.350,0.000 0.783,0.000 L28.957,0.000 C29.389,0.000 30.000,0.560 30.000,1.000 L30.000,26.000 C30.000,26.440 29.389,27.074 28.957,27.074 ZM23.478,28.666 L19.565,28.666 C19.133,28.666 18.783,28.310 18.783,27.870 C18.783,27.430 19.133,27.074 19.565,27.074 L23.478,27.074 C23.911,27.074 24.261,27.430 24.261,27.870 C24.261,28.310 23.911,28.666 23.478,28.666 ZM23.478,24.685 L19.565,24.685 C19.133,24.685 18.783,24.329 18.783,23.889 C18.783,23.449 19.133,23.092 19.565,23.092 L23.478,23.092 C23.911,23.092 24.261,23.449 24.261,23.889 C24.261,24.329 23.911,24.685 23.478,24.685 ZM23.478,20.704 L19.565,20.704 C19.133,20.704 18.783,20.347 18.783,19.907 C18.783,19.468 19.133,19.111 19.565,19.111 L23.478,19.111 C23.911,19.111 24.261,19.468 24.261,19.907 C24.261,20.347 23.911,20.704 23.478,20.704 ZM23.478,12.741 L19.565,12.741 C19.133,12.741 18.783,12.384 18.783,11.944 C18.783,11.505 19.133,11.148 19.565,11.148 L23.478,11.148 C23.911,11.148 24.261,11.505 24.261,11.944 C24.261,12.384 23.911,12.741 23.478,12.741 ZM23.478,16.722 L19.565,16.722 C19.133,16.722 18.783,16.366 18.783,15.926 C18.783,15.486 19.133,15.129 19.565,15.129 L23.478,15.129 C23.911,15.129 24.261,15.486 24.261,15.926 C24.261,16.366 23.911,16.722 23.478,16.722 Z" class="cls-1"/>
</svg>
