<?xml version="1.0" standalone="no"?>
<!DOCTYPE svg PUBLIC "-//W3C//DTD SVG 1.1//EN" "http://www.w3.org/Graphics/SVG/1.1/DTD/svg11.dtd" >
<svg xmlns="http://www.w3.org/2000/svg" xmlns:xlink="http://www.w3.org/1999/xlink" version="1.1">
<metadata></metadata>
<defs>
<font id="pf_dindisplay_prolight" horiz-adv-x="997" >
<font-face units-per-em="2048" ascent="1536" descent="-512" />
<missing-glyph horiz-adv-x="456" />
<glyph unicode="&#xfb01;" horiz-adv-x="923" d="M57 889v123h125v200q0 63 20 112q20 50 53 80q36 33 80 47q46 15 97 15h146v-120h-127q-39 0 -68 -13q-27 -12 -42 -33q-16 -22 -20 -49q-6 -38 -6 -59v-180h478v-1012h-134v889h-344v-889h-133v889h-125zM643 1335q0 35 24 61q24 25 58 25q35 0 60 -25q26 -26 26 -61 t-26 -59q-27 -25 -60 -25t-58 25q-24 24 -24 59z" />
<glyph unicode="&#xfb02;" horiz-adv-x="1019" d="M57 889v123h125v190q0 87 27 144q26 56 71 91q40 32 101 48q53 14 119 14q49 0 113 -7q71 -8 178 -36v-1204q0 -90 35 -113q37 -24 120 -20l4 -123q-15 -3 -43 -5q-14 -1 -41 -1q-123 0 -166 62t-43 181v1119q-38 14 -77 19q-43 5 -84 5q-181 0 -181 -174v-190h232v-123 h-232v-889h-133v889h-125z" />
<glyph horiz-adv-x="0" />
<glyph horiz-adv-x="682" />
<glyph unicode=" "  horiz-adv-x="456" />
<glyph unicode="&#x09;" horiz-adv-x="456" />
<glyph unicode="&#xa0;" horiz-adv-x="456" />
<glyph unicode="!" horiz-adv-x="458" d="M131 92q0 34 25 65q23 29 71 29q49 0 75 -29q28 -31 28 -65q0 -42 -28 -70t-75 -28q-48 0 -71 26q-25 28 -25 72zM158 1425h141l-14 -1077h-115q-1 167 -5 539q-4 354 -7 538z" />
<glyph unicode="&#x22;" horiz-adv-x="565" d="M115 1053v372h110v-372h-110zM338 1053v372h108v-372h-108z" />
<glyph unicode="#" horiz-adv-x="1042" d="M43 446v103h205l45 334h-193v102h209l62 438h106l-57 -438h264l61 438h109l-59 -438h198v-102h-213l-47 -334h203v-103h-215l-62 -446h-114l63 446h-262l-61 -446h-115l63 446h-190zM360 549h263l45 334h-262z" />
<glyph unicode="$" d="M49 145l74 105q82 -58 183 -95q97 -36 200 -36q144 0 227 67q84 68 84 193q0 75 -30 121q-31 48 -76 77q-46 30 -107 45q-60 15 -117 27q-78 16 -146 40q-74 26 -130 69q-58 45 -93 108q-36 66 -36 162q0 79 28 147q27 67 75 116q50 51 115 81q69 31 146 37v172h99v-84 q0 -28 -2 -86q93 -5 181 -27q92 -23 173 -71l-61 -117q-78 45 -163 69q-82 23 -173 23q-58 0 -106 -16q-50 -16 -90 -48q-37 -29 -63 -82q-24 -50 -24 -118q0 -66 30 -108t76 -69q49 -29 101 -44q63 -19 108 -29q78 -17 160 -44q77 -26 134 -68q58 -44 93 -111 q33 -65 33 -172q0 -88 -29 -155t-83 -118q-51 -48 -129 -77q-77 -29 -168 -33l2 -195h-99v195q-109 6 -208 42q-101 37 -189 107z" />
<glyph unicode="%" horiz-adv-x="1597" d="M94 791v397q0 50 23 94q23 45 61 74q40 31 90 47q49 16 109 16q59 0 108 -16q50 -16 90 -47t61 -74q21 -44 21 -94v-397q0 -53 -21 -97q-20 -42 -59 -73q-40 -32 -90 -48q-49 -16 -110 -16q-64 0 -113 16t-89 48q-39 31 -59 73q-22 46 -22 97zM211 805q0 -42 16 -68 q15 -24 41 -44q20 -15 54 -24q27 -7 55 -7t56 7q33 8 54 24q26 20 41 44q17 28 17 68v366q0 39 -17 67q-16 26 -41 45q-23 17 -54 25q-28 7 -56 7t-55 -7q-32 -8 -54 -25q-25 -19 -41 -45t-16 -67v-366zM309 -35l869 1495h110l-870 -1495h-109zM938 225v398q0 51 22 94 q23 44 62 74t90 48q48 17 109 17q60 0 108 -17q51 -18 90 -48q40 -31 61 -74t21 -94v-400q0 -53 -21 -95t-60 -73q-38 -31 -89 -47q-49 -16 -110 -16q-64 0 -113 16q-51 16 -89 47q-40 32 -60 74q-21 43 -21 96zM1055 238q0 -42 16 -68q15 -24 41 -44q23 -17 53 -25 q27 -7 56 -7q28 0 56 7q31 8 54 25q26 20 41 44q17 28 17 68v366q0 41 -17 69q-16 26 -41 45q-21 16 -54 24q-32 8 -56 8q-26 0 -56 -8q-32 -9 -53 -24q-25 -19 -41 -45t-16 -69v-366z" />
<glyph unicode="&#x26;" horiz-adv-x="1660" d="M90 1026q0 119 49 229q49 111 141 195q93 86 218 134q129 50 282 50q183 0 319 -62q139 -63 231 -169q93 -107 141 -249q49 -145 49 -302q0 -191 -80 -354q-79 -160 -205 -279q77 -73 157 -130t162 -91l-53 -100q-90 39 -188 107q-95 66 -168 138q-97 -75 -218 -116 t-235 -41q-90 0 -169 24q-74 22 -138 75q-57 47 -93 124q-34 72 -34 172q0 146 94 253q91 105 254 195q-62 84 -90 153q-27 66 -27 128q0 61 20 115q20 53 55 93q34 38 88 63q53 24 118 24q62 0 117 -22t91 -58q39 -39 59 -85q22 -50 22 -103q0 -116 -76 -198 q-78 -84 -205 -155q83 -123 176 -243q104 -133 205 -246q111 107 180 249q70 145 70 308q0 137 -40 258q-41 125 -119 216q-82 95 -194 148q-115 54 -270 54q-131 0 -238 -40t-184 -108t-120 -157t-43 -189q0 -74 22 -144q23 -74 72 -145l-94 -59q-57 82 -84 168t-27 172z M375 385q0 -73 24 -129q22 -52 66 -92q40 -37 97 -55q60 -19 118 -19q92 0 192 33q103 34 197 100l-111 125q-62 74 -105 131l-96 130l-85 124q-73 -39 -116 -69q-55 -38 -94 -80q-40 -43 -64 -92q-23 -47 -23 -107zM612 1118q0 -52 29 -110q26 -52 76 -123q43 23 86 50 t72 56t48 67q17 34 17 79q0 69 -51 113q-52 44 -119 44q-45 0 -73 -17q-30 -18 -49 -44q-20 -27 -27 -57q-9 -36 -9 -58z" />
<glyph unicode="'" horiz-adv-x="479" d="M193 1053v372h108v-372h-108z" />
<glyph unicode="(" horiz-adv-x="565" d="M119 621q0 124 27 244q26 115 76 231q46 106 113 209q61 93 138 180l70 -43q-64 -87 -115 -186q-51 -98 -88 -203q-36 -100 -56 -211q-20 -109 -20 -211q0 -113 21 -224q23 -123 57 -219q36 -103 87 -203q48 -95 112 -182l-62 -49q-72 82 -137 180q-66 99 -115 209 q-48 108 -79 231q-29 116 -29 247z" />
<glyph unicode=")" horiz-adv-x="565" d="M47 -199q122 168 201 385q78 214 78 443q0 101 -20 212q-20 112 -56 212q-36 102 -88 202q-50 96 -115 185l70 43q77 -87 138 -180q67 -103 113 -209q48 -111 75 -231q28 -124 28 -245q0 -124 -30 -245q-30 -123 -79 -232q-50 -113 -113 -209q-65 -99 -136 -178z" />
<glyph unicode="*" horiz-adv-x="720" d="M59 1167q14 42 17 54t9 33t7 24l234 -98l-19 250h115l-19 -250l51 21l66 28l68 27q13 5 30 12.5t21 9.5l33 -113l-242 -65l164 -191l-47 -37q-7 -5 -47 -34l-135 217l-29 -46l-39 -63l-38 -62l-28 -48l-94 73l160 191q-40 10 -51 13q-35 10 -68 21q-23 8 -67 20z" />
<glyph unicode="+" d="M59 537v104h387v391h105v-391h385v-104h-385v-396h-105v396h-387z" />
<glyph unicode="," horiz-adv-x="460" d="M119 -176q45 33 69 72q25 40 29 92q-41 2 -65 30q-25 30 -25 70q0 39 29 68q28 28 75 28q60 0 87 -42q28 -44 28 -95q0 -50 -14 -91q-15 -44 -39 -81q-23 -35 -57 -65q-35 -30 -68 -46z" />
<glyph unicode="-" horiz-adv-x="780" d="M106 485v123h568v-123h-568z" />
<glyph unicode="." horiz-adv-x="417" d="M111 94q0 37 26 66q27 30 74 30q48 0 75 -30t27 -66q0 -45 -26 -74q-27 -30 -76 -30q-47 0 -74 28q-26 27 -26 76z" />
<glyph unicode="/" horiz-adv-x="622" d="M0 -70l510 1549h106l-507 -1549h-109z" />
<glyph unicode="0" d="M80 352v705q0 83 36 151q37 69 94 116q59 49 134 75q74 26 156 26q83 0 157 -26q77 -27 135 -75t93 -116t35 -151v-705q0 -83 -35 -150q-36 -69 -93 -114q-61 -48 -135 -73q-75 -25 -157 -25q-85 0 -160 25t-133 74q-57 48 -92 115t-35 148zM217 387q0 -74 28 -128 q27 -52 68 -84q39 -30 91 -46q46 -14 96 -14q49 0 95 14q52 16 91 46q43 33 69 84q27 53 27 128v635q0 76 -27 128q-25 50 -69 85q-38 31 -91 47q-46 14 -95 14q-50 0 -96 -14q-53 -16 -91 -47q-42 -34 -68 -85q-28 -54 -28 -128v-635z" />
<glyph unicode="1" d="M242 1174l64 53l83 66l83 66l65 52h131v-1411h-138v1245l-46 -36l-61 -49l-63 -50l-45 -37z" />
<glyph unicode="2" d="M82 0v143q0 91 32 169q32 77 85 144q51 64 123 122q59 47 143 104q62 40 118 82q54 41 98 90q42 46 68 97q25 49 25 104q0 63 -25 109t-68 75q-40 27 -95 43q-49 14 -109 14q-96 0 -171 -31q-76 -31 -134 -77l-37 51l-37 51q69 55 162 94q97 41 213 41q87 0 164 -19 t141 -64t100 -112q37 -68 37 -167q0 -76 -32 -140t-83 -126q-50 -60 -113 -110q-71 -56 -122 -89l-106 -75q-60 -42 -112 -94q-51 -51 -88 -116q-36 -63 -36 -137v-55h688v-121h-829z" />
<glyph unicode="3" d="M51 123q17 24 39 54l39 52q64 -49 139 -82q78 -34 164 -34q138 0 222 74q85 75 85 204q0 66 -20 116q-21 54 -54 89q-33 36 -79 56t-94 20h-158v123h160q37 0 78 16q42 17 78 48q36 32 59 82q22 48 22 118q0 67 -23 110q-24 46 -63 74q-40 29 -88 41q-50 12 -98 12 q-85 0 -167 -33q-84 -34 -140 -81l-39 52l-39 52q74 62 171 99q99 38 220 38q76 0 146 -19q74 -20 130 -63q60 -45 94 -110q35 -66 35 -166q0 -54 -13 -102q-13 -49 -39 -93q-25 -42 -65 -75q-43 -35 -91 -52q57 -22 96 -56q41 -36 66 -82q26 -47 39 -98q14 -54 14 -104 q0 -101 -35 -180q-34 -78 -94 -130q-61 -53 -140 -80q-80 -27 -168 -27q-128 0 -227 42q-98 41 -162 95z" />
<glyph unicode="4" d="M53 223v121l239 534l236 533h146l-471 -1063h475v432h139v-432h123v-125h-123v-223h-139v223h-625z" />
<glyph unicode="5" d="M96 129l80 107q65 -59 136 -90t159 -31q39 0 86 11q52 12 97 40t79 80q33 51 33 131v192q0 118 -56 174q-58 58 -151 58q-34 0 -81 -13q-49 -14 -88 -31q-51 -23 -85 -43q-47 -28 -69 -44l-132 51v690h760v-127h-620v-465q94 59 179 88q90 31 148 31q155 0 244 -95 q88 -94 88 -255v-234q0 -82 -34 -149q-36 -71 -92 -115q-60 -48 -137 -74t-167 -26q-130 0 -221 41q-89 40 -156 98z" />
<glyph unicode="6" d="M88 354v701q0 86 34 154q35 70 91 117q58 49 133 74t162 25q128 0 219 -41q90 -40 152 -98l-82 -108q-60 57 -129 87q-67 29 -158 29q-47 0 -93 -14q-52 -16 -92 -47q-43 -34 -71 -85q-29 -53 -29 -128v-270q115 71 203 100q93 31 156 31q153 0 239 -97t86 -256v-166 q0 -87 -32 -154q-33 -69 -90 -117q-58 -49 -132 -75t-159 -26q-86 0 -161 24q-72 23 -129 72q-54 47 -86 115q-32 69 -32 153zM225 387q0 -73 26 -125t65 -84q40 -33 87 -48t93 -15q45 0 93 15q49 15 89 48t67 85q27 53 27 124v125q0 120 -57 177q-56 56 -148 56 q-80 0 -164 -37q-81 -35 -178 -96v-225z" />
<glyph unicode="7" d="M88 1069v342h819v-125l-526 -1286h-148l523 1286h-537v-217h-131z" />
<glyph unicode="8" d="M61 381q0 48 16 102q15 50 44 98q27 44 72 83q40 35 96 57q-47 17 -86 50q-37 31 -62 73q-26 43 -37 89q-12 48 -12 99q0 96 35 169q35 74 91 122q57 49 129 75q71 25 151 25q79 0 151 -25q74 -26 131 -75q57 -50 92 -122q35 -73 35 -167q0 -97 -50 -185t-150 -128 q64 -23 106 -59q42 -37 70 -81q25 -40 38 -94q11 -45 11 -94q0 -101 -38 -179t-99 -127q-64 -52 -141 -75q-80 -24 -160 -24q-91 0 -166 23q-79 24 -138 73t-94 123q-35 75 -35 174zM203 383q0 -124 79 -196q80 -72 216 -72q130 0 210 71t80 201q0 61 -22 109q-23 50 -61 84 t-93 54q-51 19 -114 19q-62 0 -113 -19q-55 -20 -94 -55q-42 -37 -65 -85q-23 -47 -23 -111zM225 1034q0 -58 23 -106q23 -47 60 -80q38 -33 87 -51q52 -19 103 -19q48 0 100 19q50 18 87 52t61 81q24 46 24 106q0 65 -22 112t-61 81q-37 32 -87 49q-48 16 -100 16 q-53 0 -101 -16q-50 -17 -88 -49t-62 -82q-24 -49 -24 -113z" />
<glyph unicode="9" d="M76 893v158q0 86 34 154q35 70 90 118q57 50 132 76q74 26 160 26q83 0 155 -25q70 -24 130 -73q55 -44 89 -115q33 -68 33 -151v-703q0 -86 -34 -153q-35 -69 -91 -116q-58 -49 -133 -74t-162 -25q-130 0 -221 41q-87 39 -149 98l81 109q60 -57 129 -87t156 -30 q46 0 92 14q49 15 92 46q44 32 71 84q28 54 28 130v275q-117 -70 -201 -100q-87 -31 -154 -31q-153 0 -240 93t-87 261zM213 907q0 -120 58 -177q57 -56 149 -56q79 0 163 40q83 39 175 93v221q0 72 -25 125q-24 52 -63 83q-40 32 -86 47t-92 15t-95 -15t-90 -48 q-40 -32 -67 -84q-27 -51 -27 -123v-121z" />
<glyph unicode=":" horiz-adv-x="460" d="M127 94q0 35 26 66q25 30 72 30t76 -30q29 -31 29 -66q0 -43 -28 -74q-27 -30 -75 -30q-46 0 -73 28q-27 29 -27 76zM127 733q0 37 26 68q25 30 72 30t76 -30q29 -31 29 -68q0 -43 -28 -74q-27 -30 -75 -30q-46 0 -73 28q-27 29 -27 76z" />
<glyph unicode=";" horiz-adv-x="460" d="M111 -176q45 33 69 72q25 40 29 92q-42 2 -66 30q-24 29 -24 70q0 40 28 68t76 28q60 0 87 -42q28 -44 28 -95q0 -50 -14 -91q-15 -44 -39 -81q-21 -33 -58 -65q-36 -31 -67 -46zM127 733q0 37 26 68q25 30 72 30t76 -30q29 -31 29 -68q0 -43 -28 -74q-27 -30 -75 -30 q-46 0 -73 28q-27 29 -27 76z" />
<glyph unicode="&#x3c;" d="M84 541v98l827 393v-114l-698 -328q12 -4 75 -34l125 -59l149 -72l150 -71l125 -58q66 -31 74 -34v-117z" />
<glyph unicode="=" d="M59 336v108h877v-108h-877zM59 715v106h877v-106h-877z" />
<glyph unicode="&#x3e;" d="M84 145v117q12 4 75 34l124 58l149 71l150 72l124 58q36 16 74 35l-696 328v114l827 -393v-98z" />
<glyph unicode="?" horiz-adv-x="913" d="M61 1321q87 59 177 85t188 26q85 0 154 -27q71 -28 119 -73q52 -49 78 -109q28 -65 28 -138q0 -90 -46 -167q-49 -82 -102 -151q-45 -59 -101 -145q-46 -71 -46 -153v-111h-131v109q0 75 20 129t52 107q35 57 67 96q38 46 68 89q29 42 51 89q20 43 20 98q0 98 -66 164 t-181 66q-75 0 -152 -25q-70 -23 -129 -66zM352 92q0 35 25 66q24 30 72 30q47 0 74 -30q28 -31 28 -66q0 -40 -27 -70t-73 -30q-48 0 -73 28q-26 29 -26 72z" />
<glyph unicode="@" horiz-adv-x="1708" d="M98 705q0 163 65 302q64 137 175 239q109 100 258 158q144 56 313 56q174 0 306 -55q136 -57 228 -153q92 -97 142 -226q49 -128 49 -276q0 -113 -29 -193q-30 -83 -78 -135q-49 -54 -108 -79q-61 -26 -119 -26q-63 0 -130 28q-65 27 -89 89q-93 -52 -157 -75 q-76 -27 -144 -27q-112 0 -180 61q-70 62 -70 172q0 64 28 111q27 46 70 73q42 27 90 39q52 13 89 13h252v57q0 51 -16 88q-15 33 -43 54q-29 21 -66 28q-42 8 -84 8q-41 0 -92 -13q-53 -14 -119 -60l-64 84q70 53 145 75q71 21 134 21q315 0 315 -277v-338q1 -40 36 -76 t104 -36q41 0 81 21q39 20 70 64t50 104q20 65 20 147q0 130 -43 240q-44 113 -124 193q-81 81 -196 128t-258 47q-144 0 -273 -50q-125 -49 -224 -138q-97 -88 -153 -206t-56 -259q0 -143 49 -262t137 -207q89 -89 209 -138t264 -49q65 0 122 10q63 11 140 43l37 -96 q-87 -36 -169 -47q-73 -10 -130 -10q-167 0 -306 56q-140 57 -242 157q-101 99 -158 238q-58 140 -58 303zM647 567q0 -66 44 -101q43 -34 110 -34q61 0 131 32q77 35 127 68v170h-225q-33 0 -62 -4q-37 -5 -60 -18q-30 -16 -46 -41q-19 -29 -19 -72z" />
<glyph unicode="A" horiz-adv-x="1193" d="M33 0l245 706l244 705h152l491 -1411h-155l-56 164l-55 164h-604l-111 -328h-151zM342 459h512q-13 43 -53 166l-74 218l-74 218l-53 164h-6l-52 -164l-72 -218l-73 -218z" />
<glyph unicode="B" horiz-adv-x="1196" d="M117 0v1411h571q98 0 172 -30t123 -79t75 -116q25 -65 25 -139q0 -47 -10 -88q-10 -42 -33 -83q-22 -40 -60 -75q-40 -37 -95 -60q57 -23 101 -62q42 -37 69 -84t39 -97q12 -51 12 -99q0 -74 -26 -147q-25 -70 -75 -128q-47 -54 -124 -90q-72 -34 -170 -34h-594zM260 129 h422q128 0 205 69q76 69 76 201q0 64 -24 115q-25 53 -62 87t-91 55q-52 20 -104 20h-422v-547zM260 807h418q50 0 96 15q45 15 84 44q36 27 58 73t22 103q0 62 -23 110q-23 47 -60 74q-38 28 -89 41q-49 13 -109 13h-397v-473z" />
<glyph unicode="C" horiz-adv-x="1054" d="M109 453v510q0 106 38 189t107 146q68 62 159 95q89 32 197 32q226 0 381 -116l-73 -113q-64 49 -143 72q-81 24 -165 24q-71 0 -131 -20q-64 -21 -114 -64q-54 -46 -82 -111q-31 -71 -31 -165v-451q0 -95 32 -165q30 -67 82 -112q52 -46 113 -66q63 -21 127 -21 q89 0 168 23q81 23 148 77l71 -111q-59 -46 -159 -83q-99 -37 -224 -37q-110 0 -199 32q-91 33 -159 95q-69 63 -106 147t-37 193z" />
<glyph unicode="D" horiz-adv-x="1214" d="M117 0v1411h526q105 0 191 -33q87 -34 147 -92q62 -60 96 -145q35 -87 35 -191v-491q0 -103 -36 -188q-36 -86 -98 -145q-63 -60 -150 -93t-189 -33h-522zM260 127h344q64 0 128 18t116 62t84 110q33 67 33 166v441q0 96 -31 166q-29 66 -80 109t-112 62t-126 19h-356 v-1153z" />
<glyph unicode="E" horiz-adv-x="1116" d="M121 0v1411h926v-131h-783v-504h672v-131h-672v-516h783v-129h-926z" />
<glyph unicode="F" horiz-adv-x="1077" d="M121 0v1411h926v-131h-783v-504h672v-131h-672v-645h-143z" />
<glyph unicode="G" horiz-adv-x="1157" d="M104 453v510q0 105 40 189q39 83 110 146q69 61 165 95q92 32 206 32q112 0 206 -28q99 -29 175 -88l-74 -113q-63 49 -142 72q-82 24 -165 24q-76 0 -139 -20q-68 -22 -119 -64q-55 -46 -85 -111q-32 -70 -32 -165v-451q0 -94 31 -165q29 -67 80 -112q52 -46 116 -66 q66 -21 135 -21q52 0 129 16q81 17 166 84v373h-235v133h379v-563q-90 -93 -203 -133q-115 -41 -234 -41q-111 0 -201 32q-92 33 -162 95q-69 61 -108 147q-39 85 -39 193z" />
<glyph unicode="H" horiz-adv-x="1243" d="M111 0v1411h143v-629h729v629h150v-1411h-150v651h-729v-651h-143z" />
<glyph unicode="I" horiz-adv-x="479" d="M168 0v1411h143v-1411h-143z" />
<glyph unicode="J" horiz-adv-x="1050" d="M41 84l70 115q136 -82 268 -82q77 0 143 21q63 20 114 66q48 44 75 114q26 68 26 169v924h144v-954q0 -106 -35 -194q-34 -85 -100 -148q-64 -61 -153 -96q-85 -33 -196 -33q-98 0 -192 25t-164 73z" />
<glyph unicode="K" horiz-adv-x="1138" d="M115 0v1411h143v-803h8l652 803h174l-54 -65l-79 -98l-91 -112l-91 -113l-79 -97l-53 -66l502 -860h-168l-53 91l-76 130l-87 150l-87 149l-75 130l-52 91l-291 -352v-389h-143z" />
<glyph unicode="L" horiz-adv-x="1062" d="M127 0v1411h143v-1282h779v-129h-922z" />
<glyph unicode="M" horiz-adv-x="1484" d="M115 0v1411h139l491 -1014h9l481 1014h133v-1411h-143v1071h-6l-414 -854h-113l-418 840h-8l-8 -1057h-143z" />
<glyph unicode="N" horiz-adv-x="1288" d="M117 0v1411h139l83 -125l133 -201l159 -238l160 -240l136 -204q55 -82 89 -129h10v1137h143v-1411h-143l-57 86l-89 134l-111 166l-122 182l-122 183l-111 164l-90 133l-58 82h-6v-1130h-143z" />
<glyph unicode="O" horiz-adv-x="1228" d="M106 459v493q0 105 36 192q35 84 103 149q67 64 161 98q93 34 208 34q114 0 207 -34q94 -34 162 -98q67 -62 104 -149q37 -86 37 -192v-495q0 -108 -38 -196q-37 -86 -105 -148t-162 -95q-92 -32 -205 -32q-118 0 -207 33q-95 35 -160 96q-67 63 -104 148q-37 86 -37 196 zM250 475q0 -94 31 -164q29 -66 81 -110q50 -43 117 -64q63 -20 135 -20q78 0 141 20q64 20 115 65q49 43 79 111q30 67 30 162v457q0 94 -30 162q-30 67 -80 111q-52 46 -115 66q-66 21 -140 21q-76 0 -142 -21q-64 -20 -116 -66q-48 -42 -77 -111t-29 -162v-457z" />
<glyph unicode="P" horiz-adv-x="1120" d="M111 0v1411h571q101 0 175 -37q76 -38 124 -95q49 -58 73 -133q23 -72 23 -149q0 -76 -26 -147q-27 -74 -78 -132q-49 -56 -124 -95q-71 -37 -167 -37h-428v-586h-143zM254 721h399q59 0 109 19t89 55q38 35 59 86q22 53 22 116q0 61 -22 116q-20 50 -59 89 q-36 36 -89 58q-49 20 -109 20h-399v-559z" />
<glyph unicode="Q" horiz-adv-x="1228" d="M106 459v493q0 105 36 192q35 84 103 149q67 64 161 98q93 34 208 34q114 0 207 -34q94 -34 162 -98q67 -62 104 -149q37 -86 37 -192v-495q0 -101 -32 -181q-32 -81 -92 -142t-139 -98q-84 -39 -179 -46v-51q0 -106 46 -140q47 -35 128 -35h21q4 0 11.5 1.5t8.5 1.5 v-117q-19 -4 -39 -4h-35q-83 0 -135 21q-54 22 -84 59q-32 40 -43 89q-12 52 -12 113v62q-99 7 -182 45q-85 39 -140 98q-58 63 -89 143q-32 84 -32 183zM250 475q0 -94 31 -164q29 -66 81 -110q50 -43 117 -64q63 -20 135 -20q78 0 141 20q64 20 115 65q49 43 79 111 q30 67 30 162v457q0 94 -30 162q-30 67 -80 111q-52 46 -115 66q-66 21 -140 21q-76 0 -142 -21q-64 -20 -116 -66q-48 -42 -77 -111t-29 -162v-457z" />
<glyph unicode="R" horiz-adv-x="1155" d="M115 0v1411h569q105 0 179 -37q76 -38 124 -95q49 -58 73 -133q23 -72 23 -149q0 -61 -17 -118q-19 -64 -51 -111q-36 -54 -83 -92q-52 -43 -115 -64l270 -612h-159l-250 586h-420v-586h-143zM258 719h399q61 0 112 19q52 19 90 56q40 38 60 87q21 51 21 116 q0 63 -21 116q-19 48 -60 89q-36 36 -90 56t-112 20h-399v-559z" />
<glyph unicode="S" horiz-adv-x="1118" d="M61 145l76 107q92 -59 203 -97q109 -38 223 -38q155 0 248 68q94 69 94 196q0 77 -33 123q-34 48 -85 77q-52 30 -116 46q-55 14 -128 28q-89 16 -163 41q-76 26 -140 71q-62 44 -100 111t-38 164q0 84 31 158q29 70 89 124q58 52 142 81t187 29q111 0 229 -22 q112 -21 213 -81l-65 -123q-90 50 -189 72q-101 23 -194 23q-56 0 -114 -16q-54 -15 -96 -48q-43 -34 -67 -83q-24 -50 -24 -118q0 -66 32 -108q33 -44 84 -72t113 -45q70 -19 121 -29q100 -23 176 -46q82 -25 146 -69q63 -44 101 -113q38 -70 38 -175q0 -93 -36 -165 q-38 -75 -100 -123q-68 -52 -156 -78q-91 -27 -202 -27q-141 0 -263 39q-126 40 -237 118z" />
<glyph unicode="T" horiz-adv-x="1060" d="M33 1278v133h993v-133h-422v-1278h-145v1278h-426z" />
<glyph unicode="U" horiz-adv-x="1228" d="M106 449v962h146v-936q0 -96 30 -164q30 -67 80 -110t117 -64q63 -20 137 -20t137 20q68 22 116 64q53 46 81 110q31 70 31 164v936h145v-965q0 -105 -39 -191q-39 -85 -108 -145q-71 -62 -163 -93t-200 -31q-109 0 -201 31q-90 31 -162 93q-69 60 -108 145 q-39 86 -39 194z" />
<glyph unicode="V" horiz-adv-x="1136" d="M27 1411h157l106 -334l105 -334l168 -526h10l83 271l83 272l209 651h156l-231 -705l-228 -706h-160z" />
<glyph unicode="W" horiz-adv-x="1740" d="M20 1411h156l299 -1198h6l307 1198h152l53 -206l62 -241l81 -318l111 -433h6l31 125l52 208l64 251l64 255l55 218q6 25 13.5 56t13 51.5t8.5 33.5h154l-375 -1411h-166l-32 123l-52 198l-61 236l-64 241l-55 208l-37 137h-8l-36 -141l-53 -208l-62 -241l-62 -237 l-51 -196q-22 -86 -33 -120h-166z" />
<glyph unicode="X" horiz-adv-x="1077" d="M20 0l437 723l-408 688h168l322 -565l321 565h166l-408 -688l439 -723h-168l-350 602l-351 -602h-168z" />
<glyph unicode="Y" horiz-adv-x="1052" d="M25 1411h157l33 -69l57 -122l71 -152l74 -156l65 -136q36 -74 46 -92l37 80l62 131l72 156l72 154l60 129l37 77h154l-424 -872v-539h-145v535l-213 438z" />
<glyph unicode="Z" horiz-adv-x="1064" d="M78 0v127l739 1153h-708v131h880v-125l-741 -1157h739v-129h-909z" />
<glyph unicode="[" horiz-adv-x="507" d="M152 -219v1649h319v-95h-197v-1462h197v-92h-319z" />
<glyph unicode="\" horiz-adv-x="624" d="M-4 1485h102l516 -1571h-104z" />
<glyph unicode="]" horiz-adv-x="507" d="M63 -127h195v1462h-195v95h318v-1649h-318v92z" />
<glyph unicode="^" horiz-adv-x="991" d="M70 676l383 745h98l381 -743h-115l-317 625q-7 -18 -32 -67l-56 -112l-69 -134l-69 -134l-56 -113q-29 -60 -32 -67h-116z" />
<glyph unicode="_" horiz-adv-x="1017" d="M0 -141h1018v-101h-1018v101z" />
<glyph unicode="`" d="M410 1468l133 45l153 -339l-84 -33z" />
<glyph unicode="a" horiz-adv-x="985" d="M72 285q0 81 36 138q35 56 89 91t114 50q66 16 115 16h330v90q0 118 -65 174q-64 55 -191 55q-68 0 -140 -17q-76 -18 -153 -77l-68 102q90 66 186 91q93 24 185 24q202 0 291 -90q88 -89 88 -258v-674h-115l-18 109l-4 2q-137 -80 -217 -100q-84 -21 -144 -21 q-142 0 -231 77q-88 76 -88 218zM211 285q0 -91 59 -132q60 -42 146 -42q41 0 86 12q37 10 90 31q41 17 87 41q53 28 77 43v229h-299q-32 0 -80 -5q-40 -4 -80 -25q-37 -19 -61 -55q-25 -38 -25 -97z" />
<glyph unicode="b" horiz-adv-x="1005" d="M100 0v1466h136v-577q54 32 128 69q45 22 95 41q38 14 72 19q28 4 61 4q160 0 242 -90q81 -88 81 -264v-326q0 -86 -24 -152q-23 -62 -69 -110q-44 -45 -104 -68q-59 -22 -134 -22q-29 0 -62 3q-32 3 -73 15q-40 12 -94 35q-52 22 -119 61l-19 -104h-117zM236 240 q45 -32 87 -52q44 -21 91 -37q53 -18 87 -25q42 -9 72 -9q97 0 152 58t55 190v280q0 135 -54 191q-54 55 -153 55q-65 0 -156 -42q-95 -43 -181 -101v-508z" />
<glyph unicode="c" horiz-adv-x="860" d="M98 352v301q0 82 31 153q29 68 85 117q52 46 126 74q72 27 154 27t171 -23q86 -22 152 -90l-82 -102q-63 55 -124 72q-58 16 -109 16q-50 0 -95 -14q-51 -16 -88 -46t-62 -84q-24 -53 -24 -126v-242q0 -74 24 -125q25 -53 61 -83q38 -32 86 -47t98 -15q46 0 114 18 t115 62l84 -97q-67 -60 -150 -84t-167 -24q-93 0 -164 26q-74 27 -126 75q-52 47 -81 115q-29 67 -29 146z" />
<glyph unicode="d" horiz-adv-x="1005" d="M96 342v324q0 172 100 264t255 92q62 0 135 -14q76 -15 188 -60v518h133v-1466h-114l-19 119q-76 -46 -118 -67q-53 -26 -94 -39q-42 -14 -76 -18q-38 -5 -62 -5q-149 0 -238 85q-90 85 -90 267zM229 356q0 -133 55 -186t150 -53q66 0 160 39q98 40 180 98v559 q-183 82 -311 82h-7q-104 0 -164 -58q-63 -60 -63 -194v-287z" />
<glyph unicode="e" horiz-adv-x="972" d="M98 358v275q0 89 30 161t83 122q54 51 127 78q76 28 162 28q88 0 160 -27q74 -28 125 -76q51 -49 81 -120q29 -70 29 -156v-190h-662v-80q0 -73 24 -122q25 -52 62 -82t90 -46q46 -14 105 -14q65 0 134 24q67 23 128 80l84 -92q-72 -72 -162 -102q-87 -29 -188 -29 q-88 0 -161 22q-74 22 -130 69q-54 45 -88 116q-33 69 -33 161zM233 565h527v62q0 72 -22 125q-21 52 -58 84q-38 33 -84 48t-96 15q-53 0 -100 -16q-48 -17 -85 -49q-35 -31 -59 -83q-23 -51 -23 -120v-66z" />
<glyph unicode="f" horiz-adv-x="600" d="M57 889v123h125v202q0 63 20 112q20 50 53 80q36 33 80 47q46 15 97 15h166v-118h-147q-39 0 -68 -13q-27 -12 -42 -33t-20 -50q-6 -36 -6 -60v-182h283v-123h-283v-889h-133v889h-125z" />
<glyph unicode="g" horiz-adv-x="1001" d="M88 340v328q0 83 25 152q25 68 68 111q42 42 106 67q61 24 133 24q29 0 60 -4q33 -4 77 -18q45 -14 94 -37q41 -19 117 -66l18 115h117v-1082q0 -86 -33 -153q-33 -68 -90 -113q-55 -43 -134 -68q-77 -24 -163 -24q-85 0 -180 27t-168 90l86 100q23 -21 58 -39 q37 -19 67 -29q34 -12 71 -18q36 -6 66 -6q59 0 108 14q53 15 91 46q37 30 62 83q24 51 24 125v152q-126 -80 -208 -103q-86 -24 -144 -24h-6q-144 0 -232 88q-90 90 -90 262zM223 365q0 -133 53 -191q52 -57 152 -57q71 0 161 37q91 37 179 94v508q-89 64 -181 100 q-90 35 -155 35q-98 0 -153 -56q-56 -58 -56 -192v-278z" />
<glyph unicode="h" horiz-adv-x="999" d="M98 0v1466h135v-581q126 81 218 110q86 27 145 27q160 0 239 -90q78 -88 78 -264v-668h-135v645q0 135 -54 191q-54 55 -151 55q-67 0 -160 -39q-99 -42 -180 -94v-758h-135z" />
<glyph unicode="i" horiz-adv-x="417" d="M123 1329q0 38 25 62t61 24q35 0 60 -24q26 -24 26 -62q0 -34 -26 -60t-60 -26q-35 0 -61 26q-25 25 -25 60zM141 0v1012h133v-1012h-133z" />
<glyph unicode="j" horiz-adv-x="475" d="M-29 -301h72q85 0 115 38t30 142v1131h136v-1151q0 -151 -67 -216t-196 -65h-90v121zM172 1329q0 37 25 62q24 24 59 24q34 0 60 -24t26 -62q0 -34 -26 -60t-60 -26q-35 0 -59 26q-25 27 -25 60z" />
<glyph unicode="k" horiz-adv-x="952" d="M96 0v1466h133v-819h191q62 0 118 25q54 24 95 110l115 234h149l-119 -258q-30 -63 -61 -101q-34 -41 -99 -65q43 -10 71 -32q26 -21 47 -49t32 -60q16 -44 23 -66l131 -385h-148l-115 338q-19 59 -38 90q-20 33 -46 54q-24 19 -56 27q-29 7 -77 7h-213v-516h-133z" />
<glyph unicode="l" horiz-adv-x="540" d="M178 233v1233h133v-1214q0 -89 36 -113q32 -21 97 -21q11 0 23 1l4 -123q-15 -3 -43 -5q-14 -1 -41 -1q-123 0 -166 62t-43 181z" />
<glyph unicode="m" horiz-adv-x="1531" d="M88 0v1012h117l18 -129q53 40 104 70q53 31 85 43q46 18 71 21q37 5 64 5q106 0 165 -46q61 -47 89 -118q66 55 114 86q44 29 94 50q44 19 73 23q35 5 61 5q145 0 223 -83t78 -249v-690h-135v657q0 114 -42 174t-147 60q-62 0 -135 -38q-68 -36 -158 -108q5 -24 6 -39 q1 -12 1 -40v-666h-136v662q0 229 -176 229q-61 0 -131 -29q-71 -29 -168 -100v-762h-135z" />
<glyph unicode="n" horiz-adv-x="1001" d="M94 0v1012h117l18 -127q131 80 221 110q82 27 144 27q150 0 232 -90q83 -91 83 -264v-668h-135v645q0 136 -56 192q-54 54 -146 54h-7q-66 0 -156 -38q-95 -40 -180 -97v-756h-135z" />
<glyph unicode="o" horiz-adv-x="1007" d="M96 356v299q0 87 33 154q34 70 88 115q56 47 130 72q76 26 159 26q87 0 163 -26q75 -26 129 -72q55 -47 85 -115q30 -67 30 -154v-299q0 -85 -30 -154t-86 -116q-59 -49 -130 -72q-75 -24 -163 -24t-163 24q-73 23 -129 73q-55 49 -85 116q-31 70 -31 153zM231 385 q0 -72 23 -126q22 -52 60 -85q35 -31 88 -47q46 -14 106 -14q51 0 99 15q47 15 87 47q39 31 63 84q23 50 23 126v242q0 74 -24 125q-24 50 -65 84q-39 32 -88 47q-45 14 -95 14q-52 0 -98 -14q-50 -15 -89 -47q-41 -34 -65 -84q-25 -53 -25 -125v-242z" />
<glyph unicode="p" horiz-adv-x="1007" d="M102 -410v1418h115l19 -119q64 39 118 67q43 22 96 41q45 16 74 20q37 5 62 5q146 0 238 -86q91 -85 91 -268v-324q0 -173 -94 -264q-95 -92 -260 -92q-59 0 -136 12q-72 11 -189 66v-476h-134zM236 197q114 -51 176 -66q72 -18 137 -18q107 0 169 56t62 189v293 q0 135 -55 187q-56 53 -150 53q-32 0 -72 -10q-39 -10 -87 -29q-40 -16 -91 -44q-40 -22 -89 -54v-557z" />
<glyph unicode="q" d="M92 342v328q0 172 92 262q91 90 238 90q32 0 61 -4q30 -4 75 -17q47 -13 94 -35q52 -24 120 -63l19 107h114v-1422h-133v525q-68 -42 -119 -65q-48 -22 -95 -37q-37 -12 -76 -17q-31 -4 -62 -4q-147 0 -238 89q-90 89 -90 263zM225 365q0 -130 55 -190q52 -56 149 -56h3 q68 0 155 34q95 37 185 99v516q-85 56 -184 93q-90 34 -154 34q-98 0 -153 -59q-56 -61 -56 -189v-282z" />
<glyph unicode="r" horiz-adv-x="643" d="M135 0v1012h119l16 -150h2q29 28 71 56t90 51q50 23 101 38q55 16 103 17v-147q-139 -15 -227 -55q-98 -44 -140 -72v-750h-135z" />
<glyph unicode="s" horiz-adv-x="915" d="M68 106l71 101q75 -59 157 -83q81 -24 177 -24q38 0 86 10q43 9 78 30q34 21 56 57t22 86q0 66 -43 100q-45 35 -121 53q-78 20 -153 32q-78 13 -148 41q-67 27 -112 78q-44 50 -44 140q0 66 27 120q27 53 74 93q46 39 113 60q69 22 145 22q106 0 194 -22q82 -21 160 -74 l-34 -50l-34 -51q-72 43 -137 60q-69 18 -147 18q-106 0 -168 -49q-64 -50 -64 -127q0 -35 19 -62q17 -24 50 -43q27 -16 76 -29q35 -10 95 -22l132 -26q69 -15 126 -45q56 -30 93 -83q36 -53 36 -138q0 -65 -28 -119q-27 -52 -79 -92q-51 -39 -121 -60q-67 -20 -159 -20 q-106 0 -201 23q-99 24 -194 95z" />
<glyph unicode="t" horiz-adv-x="714" d="M61 889v123h152l35 237h96v-237h291v-123h-291v-553q0 -126 42 -173q42 -46 130 -46q35 0 71 4q38 4 83 12l20 -115q-50 -16 -108 -22q-56 -6 -84 -6q-156 0 -222 70q-65 69 -65 237v592h-150z" />
<glyph unicode="u" horiz-adv-x="1007" d="M92 342v670h135v-650q0 -131 58 -189q56 -56 153 -56q68 0 155 39q92 41 179 104v752h137v-1012h-118l-19 123q-75 -46 -117 -67q-53 -27 -92 -41q-42 -16 -74 -20q-37 -5 -63 -5q-160 0 -247 89t-87 263z" />
<glyph unicode="v" horiz-adv-x="909" d="M23 1010h145l147 -435l41 -120q15 -42 37 -113q21 -68 31 -95l22 -67h13l127 385l151 445h146l-363 -1010h-135l-181 504z" />
<glyph unicode="w" horiz-adv-x="1406" d="M31 1012h139l20 -75l30 -111l30 -110l20 -75l123 -442h4l154 458q7 17 18 52l27 78l27 78q9 25 16 53h139l119 -357q3 -7 22 -64l38 -117l39 -117q19 -57 22 -64h6l115 426l104 387h135l-35 -121l-50 -179l-58 -207l-58 -206l-50 -178q-23 -89 -33 -121h-136l-139 420 q-4 10 -13 37t-14 41l-35 103l-32 93q-14 38 -16 51h-4l-111 -335l-135 -410h-133l-36 121l-52 178l-61 206l-59 207l-51 178z" />
<glyph unicode="x" horiz-adv-x="856" d="M6 0l340 518l-321 494h163l236 -385l238 385h161l-325 -492l340 -520h-164l-252 410l-254 -410h-162z" />
<glyph unicode="y" horiz-adv-x="917" d="M18 1010h144q3 -9 29 -94l40 -135l40 -135q19 -64 30 -93l133 -430h4l154 430l34 93l48 135l47 135l33 94h143l-62 -171l-92 -250l-106 -289l-106 -289l-91 -250l-61 -171h-146l150 422l-72 66z" />
<glyph unicode="z" horiz-adv-x="890" d="M74 0v109l571 782h-541v119h707v-111l-569 -780h569v-119h-737z" />
<glyph unicode="{" horiz-adv-x="507" d="M45 565v80q41 7 73 36q27 25 47 67q17 37 25 87q9 58 9 97v276q0 99 49 158t127 59h117v-86h-76q-34 0 -54 -17q-18 -15 -31 -45q-11 -25 -16 -59q-4 -28 -4 -63v-266q0 -65 -15 -115q-14 -46 -38 -83q-20 -30 -47 -54q-24 -21 -45 -27v-4q22 -6 46 -26q26 -22 48 -55 t37 -82q14 -45 14 -109v-281q0 -34 4 -63q5 -36 16 -61q13 -30 31 -45q20 -17 54 -17h76v-84h-117q-79 0 -128 52q-50 53 -50 163v285q0 121 -33 193t-119 89z" />
<glyph unicode="|" horiz-adv-x="387" d="M145 -332v1798h103v-1798h-103z" />
<glyph unicode="}" horiz-adv-x="507" d="M39 -133h78q33 0 53 17q19 17 32 45q10 22 15 61q4 29 4 63v281q0 61 15 109q16 51 36 82q21 32 47 55q22 19 48 26v4q-20 6 -46 27q-30 25 -48 54q-22 35 -36 83q-16 53 -16 115v266q0 21 -2 63q-2 32 -12 59q-10 26 -32 45q-20 17 -58 17h-78v80h117q91 0 134 -59 q44 -61 44 -152v-276q0 -52 7 -97q7 -46 26 -87t48 -67q32 -29 72 -36v-80q-85 -16 -118 -89q-33 -72 -33 -193v-285q0 -99 -49 -157t-127 -58h-121v84z" />
<glyph unicode="~" d="M51 549q50 79 114 116t136 37q52 0 102 -19q62 -24 103 -43q47 -22 100 -43q48 -19 99 -19q54 0 87 26q30 24 72 80l86 -61q-51 -80 -105 -120q-57 -42 -145 -42q-48 0 -99 19q-53 20 -104 43q-43 20 -104 43q-52 20 -94 20q-53 0 -89 -27q-35 -26 -75 -74z" />
<glyph unicode="&#xa1;" horiz-adv-x="458" d="M131 920q0 42 27 71t73 29q47 0 73 -28t26 -72q0 -34 -26 -65q-26 -30 -73 -30q-46 0 -73 30t-27 65zM162 -412q1 164 5 538q4 354 7 538h115q3 -184 7 -538q4 -374 5 -538h-139z" />
<glyph unicode="&#xa2;" horiz-adv-x="892" d="M98 352v301q0 78 28 145q26 62 76 112q49 49 112 77q66 29 141 35v-129q-42 -6 -83 -24q-43 -19 -71 -50q-31 -35 -49 -80q-19 -49 -19 -112v-242q0 -64 19 -113q17 -44 49 -79q31 -34 71 -52q41 -18 83 -24v-125q-81 6 -148 35q-63 27 -111 75q-45 45 -72 111 q-26 64 -26 139zM455 -8q14 -2 21 -2h22h32v-228h-75v230zM455 117v776q14 2 22 3t25 1h13q5 0 15 -2v-780h-28h-25q-8 0 -22 2zM455 1022v215h75v-215q-14 2 -18 2h-18h-20q-5 0 -19 -2zM530 -10v125q51 5 104 23q56 19 97 57l84 -97q-63 -54 -135 -79q-70 -24 -150 -29z M530 895v127q77 -5 152 -28q76 -24 135 -83l-82 -102q-55 46 -107 64q-50 17 -98 22z" />
<glyph unicode="&#xa3;" d="M94 604v105h152q-6 42 -24 93l-31 88q-9 25 -26 88q-11 40 -11 91q0 69 24 134q23 62 72 114q45 48 116 79q67 29 158 29q133 0 227 -41q92 -40 164 -139q-18 -13 -51 -41l-51 -43q-60 78 -133 111q-74 33 -156 33q-34 0 -73 -12q-40 -12 -74 -39q-36 -28 -58 -72 t-22 -113q0 -47 10 -88q9 -35 26 -86q5 -13 29 -89q14 -43 25 -97h318v-105h-308q-1 -127 -29 -249q-26 -117 -110 -236h668v-119h-830v102q40 54 74 109q31 49 55 112q24 61 35 127q12 69 12 154h-178z" />
<glyph unicode="&#xa5;" d="M41 1411h158l143 -342l150 -367h12l160 379l139 330h153l-155 -353l-156 -353h270v-97h-311l-31 -69v-121h342v-90h-342v-328h-145v328h-338v90h338v117l-33 73h-305v97h264z" />
<glyph unicode="&#xa7;" horiz-adv-x="905" d="M100 721q0 59 31 127q30 66 98 119q-33 33 -55 79q-22 45 -22 99q0 71 25 124q25 52 70 93q42 38 103 59q60 21 129 21q75 0 147 -21q76 -22 126 -55q-15 -22 -30 -50l-28 -52q-45 33 -101 52q-51 17 -120 17q-42 0 -76 -11q-37 -12 -64 -33t-44 -53t-17 -71 q0 -109 127 -170q46 -23 144 -67q72 -32 133 -75q59 -41 97 -99t38 -140q0 -146 -115 -249q26 -32 49 -82q21 -47 21 -107q0 -74 -27 -131q-28 -59 -72 -96q-46 -39 -110 -60q-60 -20 -137 -20t-157 25q-77 24 -130 65l51 94q50 -35 107 -56q60 -22 127 -22q45 0 87 12 q46 13 74 33q31 22 50 58q18 34 18 82q0 84 -58 135q-60 52 -186 104q-63 26 -124 59q-57 31 -96 67t-61 85t-22 111zM215 733q0 -49 21 -82q21 -32 53 -56q31 -23 71 -41l76 -34l83 -38q44 -20 77 -42q50 30 71 74t21 90q0 62 -36 107q-37 47 -91 80q-54 34 -121 61 q-79 33 -125 53q-41 -32 -71 -80q-29 -46 -29 -92z" />
<glyph unicode="&#xa8;" horiz-adv-x="978" d="M211 1319q0 36 23 59q25 25 57 25q33 0 60 -25q26 -24 26 -59q0 -34 -26 -58q-25 -24 -60 -24q-33 0 -57 24q-23 23 -23 58zM584 1319q0 36 23 59q25 25 59 25t59 -25t25 -59q0 -33 -25 -58q-24 -24 -59 -24t-59 24q-23 23 -23 58z" />
<glyph unicode="&#xa9;" horiz-adv-x="1622" d="M111 698q0 154 54 286q54 131 149 228t225 151q129 54 278 54t280 -54q129 -53 225 -151q95 -97 149 -228q55 -134 55 -286q0 -151 -55 -284q-55 -132 -149 -228t-225 -150t-280 -54q-151 0 -281 54t-225 150q-93 95 -147 228q-53 132 -53 284zM213 698q0 -132 46 -243 q48 -116 128 -196q83 -83 192 -131t238 -48t240 48q108 47 191 131q79 81 127 196q46 111 46 243q0 133 -46 246q-48 117 -127 198q-83 84 -191 131q-111 48 -240 48t-238 -48t-192 -131q-80 -80 -128 -198q-46 -113 -46 -246zM485 561v260q0 71 27 130q28 61 73 100 q48 41 108 63q64 23 134 23q154 0 260 -80l-53 -82q-40 32 -96 49q-54 16 -111 16q-47 0 -87 -13t-75 -42q-34 -28 -55 -75q-20 -44 -20 -109v-219q0 -66 20 -110q21 -47 55 -75t74 -43q38 -14 84 -14q59 0 113 16q53 16 102 52l54 -82q-46 -35 -112 -58q-69 -24 -153 -24 q-74 0 -136 22q-60 21 -108 65q-47 42 -72 100q-26 60 -26 130z" />
<glyph unicode="&#xaa;" horiz-adv-x="679" d="M43 760q0 54 26 94q24 37 63 62q36 23 82 34t81 11h211v47q0 78 -46 105q-48 28 -118 28q-38 0 -92 -13q-49 -12 -107 -53l-59 86q70 47 133 65q59 17 129 17q277 0 277 -235v-443h-103l-12 74q-69 -47 -124 -64q-58 -18 -112 -18q-103 0 -167 53q-62 52 -62 150z M160 760q0 -52 37 -76q39 -25 90 -25q50 0 112 25q59 24 107 53v127h-191q-23 0 -50 -3q-30 -3 -51 -14q-25 -13 -39 -32q-15 -21 -15 -55z" />
<glyph unicode="&#xab;" horiz-adv-x="886" d="M109 463l249 366h127l-245 -366l245 -369h-129zM424 463l250 366h125l-244 -366l244 -369h-125z" />
<glyph unicode="&#xac;" d="M59 537v104h877l-2 -500h-105v396h-770z" />
<glyph unicode="&#xad;" horiz-adv-x="780" d="M106 485v123h568v-123h-568z" />
<glyph unicode="&#xae;" horiz-adv-x="1132" d="M143 1008q0 92 33 171t90 136t134 90q76 33 167 33q90 0 168 -33q76 -32 134 -90q56 -56 89 -136q33 -79 33 -171t-33 -170q-34 -80 -89 -135q-56 -56 -134 -89q-76 -32 -168 -32q-93 0 -167 32q-79 34 -134 89q-57 57 -90 135t-33 170zM213 1008q0 -79 27 -145 q27 -67 74 -115q48 -50 113 -77q67 -28 140 -28q74 0 141 28q64 27 111 77q50 53 75 115q28 68 28 145q0 75 -28 145q-26 65 -75 117q-47 50 -111 77t-141 27q-75 0 -140 -27t-113 -77q-46 -48 -74 -117q-27 -67 -27 -145zM410 760v495h202q66 0 106 -36q42 -37 42 -101 q0 -48 -29 -85q-27 -34 -76 -50l117 -223h-80l-108 213h-105v-213h-69zM479 1038h121q40 0 65 21t25 59q0 41 -25 59q-24 17 -63 17h-123v-156z" />
<glyph unicode="&#xb0;" horiz-adv-x="761" d="M117 1171q0 56 21 104q20 46 58 84q34 34 84 56q48 21 101 21q55 0 103 -21q50 -22 84 -56q36 -36 57 -84q20 -46 20 -104t-20 -102q-22 -48 -57 -82t-84 -55q-48 -21 -103 -21t-103 21q-49 21 -84 55t-57 82q-20 44 -20 102zM213 1171q0 -69 48 -118t120 -49t120 48 t48 119q0 73 -48 122q-48 50 -120 50t-120 -50q-48 -49 -48 -122z" />
<glyph unicode="&#xb1;" d="M68 0v104h862v-104h-862zM68 575v105h378v369h105v-369h377v-105h-377v-370h-105v370h-378z" />
<glyph unicode="&#xb4;" d="M408 1174l153 339l135 -45l-204 -327z" />
<glyph unicode="&#xb5;" horiz-adv-x="1017" d="M98 10v291v290v250v171h135v-645q0 -134 59 -191q58 -57 154 -55q69 0 152 37q85 38 182 104v750h135v-1012h-131l-4 121q-68 -45 -115 -69t-93 -39q-43 -14 -75 -18q-38 -5 -65 -5q-131 0 -199 71v-473h-133q0 97 -1 171t-1 251z" />
<glyph unicode="&#xb6;" horiz-adv-x="1009" d="M92 1098q0 72 28 140t77 117q51 51 116 80t146 29h186v-731h-186q-79 0 -148 29q-67 28 -115 78q-50 52 -76 115q-28 68 -28 143zM492 -145q98 12 153 37t81 65q27 41 31 88q5 55 5 109v1310h117v-1337q0 -85 -16 -159q-15 -68 -57 -115q-43 -48 -116 -76 q-77 -30 -190 -37z" />
<glyph unicode="&#xb7;" horiz-adv-x="419" d="M102 555q0 47 33 79q34 32 80 32q45 0 77 -32t32 -79q0 -44 -31 -78q-30 -33 -78 -33q-47 0 -80 33t-33 78z" />
<glyph unicode="&#xb8;" horiz-adv-x="866" d="M309 -377l27 70q47 -15 75 -18q40 -5 64 -5q46 0 81 20q34 19 34 62q0 34 -29 61t-82 27h-14q-6 0 -16 -2l-52 29l58 188q15 0 39 -2t36 -2l-43 -135q60 -2 96 -19q37 -18 60 -42q21 -23 33 -53q10 -26 10 -50q0 -26 -10 -52q-11 -28 -35 -52q-26 -26 -63 -40 q-42 -16 -97 -16q-13 0 -73 6q-49 5 -99 25z" />
<glyph unicode="&#xba;" horiz-adv-x="696" d="M59 813v168q0 56 23 105q24 50 62 83q42 36 94 55q51 19 112 19q64 0 115 -19q52 -19 91 -55q38 -35 59 -83q22 -50 22 -105v-162q0 -117 -78 -189q-79 -73 -211 -73q-62 0 -115 18q-52 18 -92 53q-39 34 -60 81q-22 49 -22 104zM172 831q0 -89 53 -130q51 -39 125 -39 q79 0 126 40q48 40 48 129v140q0 46 -16 77q-16 30 -41 52q-20 18 -55 30q-31 11 -62 11q-29 0 -62 -11q-36 -12 -58 -30q-26 -21 -42 -52t-16 -77v-140z" />
<glyph unicode="&#xbb;" horiz-adv-x="886" d="M111 94l241 369l-241 366h125l251 -366l-249 -369h-127zM426 94l244 369l-244 366h125l250 -366l-250 -369h-125z" />
<glyph unicode="&#xbf;" horiz-adv-x="913" d="M119 -72q0 86 45 164q46 81 100 150q62 81 104 150q44 73 44 151v112h131v-108q0 -61 -16 -114q-14 -48 -40 -94q-22 -41 -55 -83l-59 -78q-39 -51 -75 -110q-34 -56 -34 -129q0 -97 67 -164q66 -66 181 -66q75 0 152 25q72 24 129 65l67 -106q-84 -59 -174 -85t-188 -26 q-85 0 -154 27q-72 28 -120 73q-52 49 -78 109q-27 63 -27 137zM371 920q0 42 27 71t75 29q47 0 73 -28q25 -26 25 -72q0 -36 -25 -65q-26 -30 -73 -30q-48 0 -75 30t-27 65z" />
<glyph unicode="&#xf7;" d="M57 537v102h889v-102h-889zM406 231q0 43 29 69q31 28 71 28q37 0 67 -28q29 -27 29 -69q0 -39 -28 -69q-27 -29 -68 -29q-40 0 -71 29q-29 28 -29 69zM406 944q0 43 29 69q30 27 71 27q38 0 67 -27t29 -69q0 -40 -28 -70q-27 -28 -68 -28q-42 0 -71 28t-29 70z" />
<glyph unicode="&#x192;" horiz-adv-x="991" d="M-12 -156l37 109q70 -25 125 -25q91 0 141 74q48 71 69 219l74 516h-182q0 38 -1 55t-1 54h201l30 203q16 101 56 189q38 84 108 140t191 56q38 0 83 -8q47 -8 74 -17q-17 -68 -32 -119q-34 12 -66 16q-38 5 -64 5q-70 0 -114 -38t-68 -103q-26 -69 -37 -148l-24 -176 h221q0 -37 1 -54t1 -55h-240l-67 -483q-12 -100 -36 -181q-25 -85 -62 -139q-40 -58 -99 -89t-145 -31q-34 0 -85 8t-89 22z" />
<glyph unicode="&#x2c6;" d="M176 1196l291 283h92l275 -281l-62 -61l-266 209l-266 -211z" />
<glyph unicode="&#x2da;" horiz-adv-x="989" d="M317 1319q0 83 59 140q58 57 142 57t142 -57q59 -57 59 -140t-59 -142t-142 -59t-142 59t-59 142zM397 1319q0 -51 35 -86t86 -35q52 0 87 35q34 34 34 86q0 50 -34 84q-35 35 -87 35q-51 0 -86 -35t-35 -84z" />
<glyph unicode="&#x2dc;" d="M164 1260q39 74 94 116q53 41 111 41q36 0 70 -14q48 -20 71 -32q2 -1 67 -32q29 -14 58 -14q61 0 121 88l84 -47q-40 -83 -90 -121q-49 -37 -107 -37q-33 0 -69 14q-26 10 -67 28q-62 27 -67 29q-32 13 -63 13q-38 0 -66 -19q-29 -19 -63 -63z" />
<glyph unicode="&#x3a9;" horiz-adv-x="1236" d="M80 0v129h215q-86 55 -137 150q-49 91 -49 210v469q0 108 38 191q39 85 107 147t162 96q90 33 205 33q112 0 202 -33q94 -34 163 -96t108 -147q39 -86 39 -191v-471q0 -118 -50 -212q-50 -95 -137 -146h219v-129h-426v156q52 16 95 43q42 27 78 72q33 41 55 102 q20 54 20 131v430q0 90 -31 160q-30 67 -80 111q-51 45 -117 66t-138 21q-77 0 -143 -21t-117 -66q-49 -43 -79 -111t-30 -160v-430q0 -74 21 -131q20 -54 57 -101q33 -42 81 -71q45 -27 93 -43v-158h-424z" />
<glyph unicode="&#x3c0;" horiz-adv-x="1009" d="M100 0v1010h813v-1010h-135v889h-545v-889h-133z" />
<glyph unicode="&#x401;" horiz-adv-x="1116" d="M121 0v1411h926v-131h-783v-504h672v-131h-672v-516h783v-129h-926zM322 1634q0 36 23 59t56 23q37 0 61 -23q25 -24 25 -59q0 -34 -25 -58q-26 -24 -61 -24q-32 0 -56 24q-23 23 -23 58zM694 1634q0 35 24 59q23 23 58 23q37 0 60 -23q24 -24 24 -59q0 -34 -24 -58 t-60 -24q-34 0 -58 24t-24 58z" />
<glyph unicode="&#x402;" horiz-adv-x="1431" d="M20 1278v133h1074v-133h-553v-428q107 68 211 99q102 30 184 30q207 0 306 -108t99 -308v-250q0 -107 -37 -193t-106 -149q-66 -60 -161 -94q-93 -33 -203 -33v131q73 0 139 21q68 22 116 64q49 43 78 112t29 162v205q0 168 -76 235q-77 68 -211 68q-91 0 -191 -41 q-99 -41 -177 -96v-705h-146v1278h-375z" />
<glyph unicode="&#x403;" horiz-adv-x="1040" d="M125 0v1411h924v-131h-783v-1280h-141zM453 1569l290 235l97 -100l-330 -201z" />
<glyph unicode="&#x404;" horiz-adv-x="1048" d="M109 453v510q0 106 38 189t107 146q68 62 159 95q89 32 197 32q226 0 381 -116l-73 -113q-64 49 -143 72q-81 24 -165 24q-71 0 -131 -20q-64 -21 -114 -64q-54 -46 -82 -111q-31 -71 -31 -165v-144h530v-129h-530v-178q0 -95 32 -165q30 -67 82 -112q52 -46 113 -66 q63 -21 127 -21q89 0 168 23q81 23 148 77l71 -111q-59 -46 -159 -83q-99 -37 -224 -37q-115 0 -204 32q-93 34 -159 95q-68 63 -103 147q-35 83 -35 193z" />
<glyph unicode="&#x405;" horiz-adv-x="1118" d="M61 145l76 107q92 -59 203 -97q109 -38 223 -38q155 0 248 68q94 69 94 196q0 77 -33 123q-34 48 -85 77q-52 30 -116 46q-55 14 -128 28q-89 16 -163 41q-76 26 -140 71q-62 44 -100 111t-38 164q0 84 31 158q29 70 89 124q58 52 142 81t187 29q111 0 229 -22 q112 -21 213 -81l-65 -123q-90 50 -189 72q-101 23 -194 23q-56 0 -114 -16q-54 -15 -96 -48q-43 -34 -67 -83q-24 -50 -24 -118q0 -66 32 -108q33 -44 84 -72t113 -45q70 -19 121 -29q100 -23 176 -46q82 -25 146 -69q63 -44 101 -113q38 -70 38 -175q0 -93 -36 -165 q-38 -75 -100 -123q-68 -52 -156 -78q-91 -27 -202 -27q-141 0 -263 39q-126 40 -237 118z" />
<glyph unicode="&#x406;" horiz-adv-x="479" d="M168 0v1411h143v-1411h-143z" />
<glyph unicode="&#x407;" horiz-adv-x="479" d="M-27 1686q0 35 24 59t56 24q35 0 61 -24q25 -24 25 -59t-25 -59q-24 -23 -61 -23q-33 0 -56 23q-24 24 -24 59zM168 0v1411h143v-1411h-143zM346 1686q0 35 24 59t58 24q35 0 59 -24q25 -25 25 -59t-25 -59q-23 -23 -59 -23q-35 0 -58 23q-24 24 -24 59z" />
<glyph unicode="&#x408;" horiz-adv-x="1050" d="M41 84l70 115q136 -82 268 -82q77 0 143 21q63 20 114 66q48 44 75 114q26 68 26 169v924h144v-954q0 -106 -35 -194q-34 -85 -100 -148q-64 -61 -153 -96q-85 -33 -196 -33q-98 0 -192 25t-164 73z" />
<glyph unicode="&#x409;" horiz-adv-x="1863" d="M29 70q72 45 122 97t86 137q33 79 50 204q16 118 16 295v608h696v-612h416q97 0 173 -35q75 -34 127 -91q52 -56 79 -127t27 -145q0 -81 -28 -157q-27 -73 -80 -128q-54 -56 -129 -85q-79 -31 -175 -31h-557v1280h-412v-508q0 -187 -22 -319q-22 -133 -67 -232 q-44 -97 -108 -161q-62 -62 -147 -107zM999 131h390q63 0 113 17q53 18 90 52q39 36 61 84t22 117q0 123 -80 194t-211 71h-385v-535z" />
<glyph unicode="&#x40a;" horiz-adv-x="1863" d="M111 0v1411h143v-618h588v618h143v-616h418q99 0 174 -34q77 -35 127 -89q51 -56 78 -126q26 -68 26 -145q0 -83 -27 -157q-27 -73 -80 -128q-54 -56 -129 -85q-79 -31 -175 -31h-555v662h-588v-662h-143zM985 131h393q64 0 114 17q53 18 90 52q38 34 60 84q23 51 23 117 q0 123 -81 192t-210 69h-389v-531z" />
<glyph unicode="&#x40b;" horiz-adv-x="1431" d="M20 1278v133h1074v-133h-553v-424q104 65 203 94q107 31 188 31q109 0 190 -31q77 -30 127 -87q50 -58 71 -136q21 -79 21 -180v-545h-145v518q0 171 -64 247q-65 77 -212 77q-48 0 -98 -12q-58 -14 -99 -29q-47 -17 -96 -44q-52 -29 -86 -52v-705h-146v1278h-375z" />
<glyph unicode="&#x40c;" horiz-adv-x="1132" d="M117 0v1411h141v-620h262q33 0 73 8q38 8 74 30q35 22 66 65t53 110l136 407h137l-129 -405q-33 -103 -83 -175q-49 -71 -122 -94q94 -24 142 -98q50 -77 79 -178l139 -461h-149l-133 440q-22 73 -49 114q-29 45 -64 69q-34 24 -74 33q-43 10 -79 10h-279v-666h-141z M422 1569l291 235l96 -100l-330 -201z" />
<glyph unicode="&#x40e;" horiz-adv-x="1030" d="M23 1411h149l162 -438l176 -486h8l191 506l157 418h146l-430 -1112q-33 -89 -70 -156q-33 -58 -73 -97q-36 -34 -81 -50q-41 -14 -94 -14h-114v137h88q54 0 95 25q42 26 77 104l28 71zM240 1686h114q7 -54 54 -98q45 -42 110 -42q73 0 114 40q43 41 50 100h113 q-5 -33 -22 -82q-14 -42 -48 -80q-32 -36 -83 -61q-47 -23 -124 -23q-78 0 -128 23q-52 24 -85 61q-34 38 -48 80q-16 45 -17 82z" />
<glyph unicode="&#x40f;" horiz-adv-x="1236" d="M109 0v1411h143v-1282h729v1282h147v-1411h-440v-332h-153v332h-426z" />
<glyph unicode="&#x410;" horiz-adv-x="1193" d="M33 0l245 706l244 705h152l491 -1411h-155l-56 164l-55 164h-604l-111 -328h-151zM342 459h512q-13 43 -53 166l-74 218l-74 218l-53 164h-6l-52 -164l-72 -218l-73 -218z" />
<glyph unicode="&#x411;" horiz-adv-x="1132" d="M111 0v1411h835v-133h-692v-479h420q100 0 178 -35q76 -34 127 -91q53 -59 76 -127q24 -70 24 -145q0 -83 -27 -157q-27 -73 -80 -128q-54 -56 -129 -85q-79 -31 -175 -31h-557zM254 131h393q64 0 114 17q53 18 90 52t60 84q23 51 23 117q0 123 -80 194t-211 71h-389 v-535z" />
<glyph unicode="&#x412;" horiz-adv-x="1196" d="M117 0v1411h571q98 0 172 -30t123 -79t75 -116q25 -65 25 -139q0 -47 -10 -88q-10 -42 -33 -83q-22 -40 -60 -75q-40 -37 -95 -60q57 -23 101 -62q42 -37 69 -84t39 -97q12 -51 12 -99q0 -74 -26 -147q-25 -70 -75 -128q-47 -54 -124 -90q-72 -34 -170 -34h-594zM260 129 h422q128 0 205 69q76 69 76 201q0 64 -24 115q-25 53 -62 87t-91 55q-52 20 -104 20h-422v-547zM260 807h418q50 0 96 15q45 15 84 44q36 27 58 73t22 103q0 62 -23 110q-23 47 -60 74q-38 28 -89 41q-49 13 -109 13h-397v-473z" />
<glyph unicode="&#x413;" horiz-adv-x="1040" d="M125 0v1411h924v-131h-783v-1280h-141z" />
<glyph unicode="&#x414;" horiz-adv-x="1390" d="M20 135h103q47 43 86 99q36 52 61 135q24 79 39 191q15 111 21 271l22 580h867v-1280h110v-434h-141v303h-1028v-303h-140v438zM301 131h770v1149h-588l-20 -477q-6 -139 -18 -243q-13 -113 -29 -183q-17 -77 -47 -139q-28 -60 -68 -107z" />
<glyph unicode="&#x415;" horiz-adv-x="1116" d="M121 0v1411h926v-131h-783v-504h672v-131h-672v-516h783v-129h-926z" />
<glyph unicode="&#x416;" horiz-adv-x="1763" d="M49 0l137 457q28 99 79 180q48 76 143 100q-72 23 -123 91q-53 72 -82 173l-127 410h139l131 -407q22 -69 52 -110q32 -42 69 -66q34 -22 75 -30q35 -7 74 -7h195v620h143v-620h195q40 0 75 7q40 8 73 30q37 25 68 66q31 42 54 110l129 407h142l-129 -410 q-33 -104 -82 -173q-49 -68 -123 -91q94 -24 143 -100q51 -79 80 -180l137 -457h-153l-127 440q-21 72 -50 116q-31 48 -62 69q-36 25 -73 32q-47 9 -82 9h-215v-666h-143v666h-217q-35 0 -82 -9q-37 -7 -73 -32q-31 -21 -62 -69q-27 -42 -49 -116l-127 -440h-152z" />
<glyph unicode="&#x417;" horiz-adv-x="1036" d="M25 123l79 106q28 -22 70 -45q36 -19 84 -37q42 -15 92 -25q46 -9 90 -9q80 0 141 20q64 21 110 58q45 36 72 92q25 51 25 120q0 130 -74 200q-76 71 -192 71h-164v123h158q45 0 90 16q48 17 87 49q40 33 66 83q25 49 25 118q0 62 -25 106t-67 75q-39 29 -95 43 q-52 13 -112 13q-88 0 -178 -31q-91 -31 -151 -81l-78 106q91 65 185 98q93 33 237 33q85 0 158 -20q78 -22 137 -64q59 -43 95 -110t36 -162q0 -52 -14 -103q-14 -50 -41 -94q-26 -41 -67 -75q-43 -35 -95 -52q63 -22 103 -57q43 -39 69 -83q25 -44 38 -96q11 -45 11 -99 q0 -106 -39 -186q-39 -79 -107 -132q-69 -53 -156 -80q-85 -26 -188 -26q-71 0 -127 11q-64 13 -114 31q-56 21 -98 44t-76 51z" />
<glyph unicode="&#x418;" horiz-adv-x="1288" d="M117 0v1411h143v-1159h10l256 393l502 766h141v-1411h-143v1165h-8l-273 -420l-487 -745h-141z" />
<glyph unicode="&#x419;" horiz-adv-x="1288" d="M117 0v1411h143v-1159h10l256 393l502 766h141v-1411h-143v1165h-8l-273 -420l-487 -745h-141zM352 1714h115q7 -54 53 -97q45 -42 111 -42q72 0 113 40q44 42 51 99h112q-6 -38 -21 -82q-14 -42 -48 -80q-30 -34 -83 -60q-50 -24 -124 -24q-75 0 -128 24q-54 25 -85 60 q-34 38 -48 80q-17 48 -18 82z" />
<glyph unicode="&#x41a;" horiz-adv-x="1132" d="M117 0v1411h141v-620h262q33 0 73 8q38 8 74 30q35 22 66 65t53 110l136 407h137l-129 -405q-33 -103 -83 -175q-49 -71 -122 -94q94 -24 142 -98q50 -77 79 -178l139 -461h-149l-133 440q-22 73 -49 114q-29 45 -64 69q-34 24 -74 33q-43 10 -79 10h-279v-666h-141z" />
<glyph unicode="&#x41b;" horiz-adv-x="1241" d="M-2 76q68 41 118 94q51 54 85 135t52 202q17 113 17 294v610h852v-1411h-145v1280h-563v-508q0 -184 -24 -319q-25 -138 -67 -232q-44 -96 -110 -161q-64 -62 -150 -107z" />
<glyph unicode="&#x41c;" horiz-adv-x="1484" d="M115 0v1411h139l491 -1014h9l481 1014h133v-1411h-143v1071h-6l-414 -854h-113l-418 840h-8l-8 -1057h-143z" />
<glyph unicode="&#x41d;" horiz-adv-x="1243" d="M111 0v1411h143v-629h729v629h150v-1411h-150v651h-729v-651h-143z" />
<glyph unicode="&#x41e;" horiz-adv-x="1228" d="M106 459v493q0 105 36 192q35 84 103 149q67 64 161 98q93 34 208 34q114 0 207 -34q94 -34 162 -98q67 -62 104 -149q37 -86 37 -192v-495q0 -108 -38 -196q-37 -86 -105 -148t-162 -95q-92 -32 -205 -32q-118 0 -207 33q-95 35 -160 96q-67 63 -104 148q-37 86 -37 196 zM250 475q0 -94 31 -164q29 -66 81 -110q50 -43 117 -64q63 -20 135 -20q78 0 141 20q64 20 115 65q49 43 79 111q30 67 30 162v457q0 94 -30 162q-30 67 -80 111q-52 46 -115 66q-66 21 -140 21q-76 0 -142 -21q-64 -20 -116 -66q-48 -42 -77 -111t-29 -162v-457z" />
<glyph unicode="&#x41f;" horiz-adv-x="1236" d="M109 0v1411h1019v-1411h-147v1280h-729v-1280h-143z" />
<glyph unicode="&#x420;" horiz-adv-x="1120" d="M111 0v1411h571q101 0 175 -37q76 -38 124 -95q49 -58 73 -133q23 -72 23 -149q0 -76 -26 -147q-27 -74 -78 -132q-49 -56 -124 -95q-71 -37 -167 -37h-428v-586h-143zM254 721h399q59 0 109 19t89 55q38 35 59 86q22 53 22 116q0 61 -22 116q-20 50 -59 89 q-36 36 -89 58q-49 20 -109 20h-399v-559z" />
<glyph unicode="&#x421;" horiz-adv-x="1054" d="M109 453v510q0 106 38 189t107 146q68 62 159 95q89 32 197 32q226 0 381 -116l-73 -113q-64 49 -143 72q-81 24 -165 24q-71 0 -131 -20q-64 -21 -114 -64q-54 -46 -82 -111q-31 -71 -31 -165v-451q0 -95 32 -165q30 -67 82 -112q52 -46 113 -66q63 -21 127 -21 q89 0 168 23q81 23 148 77l71 -111q-59 -46 -159 -83q-99 -37 -224 -37q-110 0 -199 32q-91 33 -159 95q-69 63 -106 147t-37 193z" />
<glyph unicode="&#x422;" horiz-adv-x="1060" d="M33 1278v133h993v-133h-422v-1278h-145v1278h-426z" />
<glyph unicode="&#x423;" horiz-adv-x="1030" d="M23 1411h149l162 -438l176 -486h8l191 506l157 418h146l-430 -1112q-33 -89 -70 -156q-33 -58 -73 -97q-36 -34 -81 -50q-41 -14 -94 -14h-114v137h88q54 0 95 25q42 26 77 104l28 71z" />
<glyph unicode="&#x424;" horiz-adv-x="1533" d="M117 643v201q0 101 38 194q38 92 111 164q73 71 181 115q105 42 247 47v61h144v-61q142 -5 247 -47q111 -45 183 -114q73 -70 111 -164t38 -195v-199q0 -103 -38 -199q-37 -94 -111 -166q-74 -73 -182 -116q-105 -42 -248 -47v-117h-144v117q-144 5 -249 47 q-108 44 -180 114q-73 72 -110 164q-38 96 -38 201zM260 649q0 -93 33 -166q33 -74 91 -126t137 -79q84 -29 173 -30v983q-197 -4 -316 -113q-118 -108 -118 -293v-176zM838 248q90 1 174 30q81 28 137 79q57 53 90 126q33 74 33 166v176q0 185 -118 293q-119 109 -316 113 v-983z" />
<glyph unicode="&#x425;" horiz-adv-x="1077" d="M20 0l437 723l-408 688h168l322 -565l321 565h166l-408 -688l439 -723h-168l-350 602l-351 -602h-168z" />
<glyph unicode="&#x426;" horiz-adv-x="1277" d="M111 0v1411h143v-1282h729v1282h150v-1278l110 -2v-434h-143v303h-989z" />
<glyph unicode="&#x427;" horiz-adv-x="1161" d="M61 993v420h146v-395q0 -88 15 -154q14 -63 50 -108q35 -44 94 -65q58 -21 142 -21q101 0 208 37t181 90v616h145v-1411h-145v647q-91 -57 -199 -86q-106 -28 -196 -28q-232 0 -336 116q-105 117 -105 342z" />
<glyph unicode="&#x428;" horiz-adv-x="1810" d="M113 0v1411h143v-1282h578v1282h141v-1282h579v1282h144v-1411h-1585z" />
<glyph unicode="&#x429;" horiz-adv-x="1841" d="M113 0v1411h143v-1282h578v1282h141v-1282h577v1282h146v-1278l110 -2v-434h-141v303h-1554z" />
<glyph unicode="&#x42a;" horiz-adv-x="1470" d="M12 1278v133h566v-612h417q96 0 174 -35q76 -34 127 -91t78 -127q27 -71 27 -145q0 -81 -28 -157q-27 -73 -80 -128q-54 -56 -129 -85q-79 -31 -175 -31h-555v1278h-422zM578 131h391q123 0 206 68q82 67 82 202q0 124 -79 194q-80 71 -213 71h-387v-535z" />
<glyph unicode="&#x42b;" horiz-adv-x="1507" d="M121 0v1411h141v-612h420q97 0 173 -35q75 -34 127 -91q52 -56 79 -127q26 -68 26 -145q0 -83 -27 -157q-27 -73 -80 -128q-54 -56 -129 -85q-79 -31 -175 -31h-555zM262 131h393q64 0 114 17q53 18 90 52q39 36 61 84t22 117q0 123 -80 194t-211 71h-389v-535zM1241 0 v1411h143v-1411h-143z" />
<glyph unicode="&#x42c;" horiz-adv-x="1138" d="M121 0v1411h141v-612h420q97 0 173 -35q75 -34 127 -91q52 -56 79 -127q26 -68 26 -145q0 -83 -27 -157q-27 -73 -80 -128q-54 -56 -129 -85q-79 -31 -175 -31h-555zM262 131h393q64 0 114 17q53 18 90 52q39 36 61 84t22 117q0 123 -80 194t-211 71h-389v-535z" />
<glyph unicode="&#x42d;" horiz-adv-x="1048" d="M43 106l72 111q68 -51 149 -75q79 -23 168 -23q72 0 136 21q63 20 114 67q50 45 78 114q28 68 28 164v181h-555v129h555v137q0 192 -92 276t-243 84q-86 0 -165 -25q-80 -25 -143 -73l-71 113q82 61 177 90q93 28 206 28q236 0 356 -117q121 -118 121 -345v-506 q0 -106 -38 -194q-37 -86 -105 -148q-67 -61 -161 -96q-89 -33 -204 -33q-124 0 -222 37q-103 39 -161 83z" />
<glyph unicode="&#x42e;" horiz-adv-x="1529" d="M121 0v1411h143v-629h207v170q0 102 31 192q29 84 91 149q60 63 149 98q87 34 204 34q114 0 201 -34q86 -34 149 -98q64 -65 94 -149q31 -86 31 -192v-495q0 -112 -32 -196q-32 -85 -95 -148t-149 -95t-199 -32q-119 0 -204 33q-89 35 -149 96q-62 63 -91 148 q-31 90 -31 196v192h-207v-651h-143zM616 475q0 -95 26 -164q24 -64 70 -110q42 -42 104 -64q57 -20 130 -20q150 0 241 85t91 273v457q0 92 -25 162q-24 67 -68 111q-45 45 -105 66t-134 21q-151 0 -240 -86q-90 -87 -90 -274v-457z" />
<glyph unicode="&#x42f;" horiz-adv-x="1200" d="M84 0l119 414q28 91 60 147q35 60 106 90q-129 34 -188 130q-58 94 -58 216q0 83 25 158q25 74 75 132q48 55 124 90q74 34 173 34h572v-1411h-146v621h-338q-37 0 -78 -11q-37 -10 -73 -35t-64 -68q-27 -41 -49 -112l-115 -395h-145zM260 997q0 -66 23 -115 q24 -51 62 -79q41 -30 94 -45q54 -15 116 -15h391v537h-401q-128 0 -207 -74q-78 -74 -78 -209z" />
<glyph unicode="&#x430;" horiz-adv-x="985" d="M72 285q0 81 36 138q35 56 89 91t114 50q66 16 115 16h330v90q0 118 -65 174q-64 55 -191 55q-68 0 -140 -17q-76 -18 -153 -77l-68 102q90 66 186 91q93 24 185 24q202 0 291 -90q88 -89 88 -258v-674h-115l-18 109l-4 2q-137 -80 -217 -100q-84 -21 -144 -21 q-142 0 -231 77q-88 76 -88 218zM211 285q0 -91 59 -132q60 -42 146 -42q41 0 86 12q37 10 90 31q41 17 87 41q53 28 77 43v229h-299q-32 0 -80 -5q-40 -4 -80 -25q-37 -19 -61 -55q-25 -38 -25 -97z" />
<glyph unicode="&#x431;" horiz-adv-x="1009" d="M96 369v268q0 159 24 303q24 145 105 260q39 54 86 90q51 39 105 65q66 32 113 49l116 44l84 33q40 16 94 41l47 -113q-96 -49 -146 -68l-114 -45l-90 -35q-42 -17 -82 -42q-34 -21 -72 -59q-35 -35 -61 -83q-29 -53 -45 -115q-15 -58 -20 -120q29 37 62 59q40 27 76 40 q44 16 79 23q36 7 69 7q185 0 287 -97q100 -96 100 -270v-242q0 -86 -30 -155q-30 -70 -86 -118q-57 -49 -131 -74q-75 -25 -164 -25q-199 0 -302 100q-104 101 -104 279zM231 383q0 -74 21 -125q22 -53 57 -84q36 -31 87 -47q46 -14 110 -14q58 0 107 15t87 47t59 83 t21 125v192q0 147 -77 209t-197 62q-48 0 -97 -17q-47 -16 -88 -51t-65 -88q-25 -55 -25 -127v-180z" />
<glyph unicode="&#x432;" horiz-adv-x="968" d="M94 0v1010h471q79 0 137 -23q59 -23 95 -59q37 -37 55 -86t18 -103q0 -58 -29 -115q-31 -60 -108 -94q43 -18 72 -45q31 -29 47 -59q21 -38 27 -67q8 -37 8 -64q0 -55 -20 -109t-58 -95q-39 -42 -97 -66q-61 -25 -137 -25h-481zM229 119h322q95 0 147 45q54 46 54 131 q0 39 -17 71t-42 54q-27 24 -59 35q-35 12 -71 12h-334v-348zM229 590h326q74 0 126 37t52 110q0 42 -16 70q-17 29 -42 47q-29 20 -60 27q-37 8 -70 8h-316v-299z" />
<glyph unicode="&#x433;" horiz-adv-x="811" d="M96 0v1012h713v-123h-576v-889h-137z" />
<glyph unicode="&#x434;" horiz-adv-x="1132" d="M25 113h36q13 0 37 2q39 28 64 63q27 38 45 91q18 54 30 129q10 65 17 177q6 144 10 218l12 217h705v-893q27 0 40 -1t40 -1v-369h-125v254h-784v-254h-127v367zM274 117h574v774h-455l-14 -318q-7 -159 -31 -275q-22 -108 -74 -181z" />
<glyph unicode="&#x435;" horiz-adv-x="972" d="M98 358v275q0 89 30 161t83 122q54 51 127 78q76 28 162 28q88 0 160 -27q74 -28 125 -76q51 -49 81 -120q29 -70 29 -156v-190h-662v-80q0 -73 24 -122q25 -52 62 -82t90 -46q46 -14 105 -14q65 0 134 24q67 23 128 80l84 -92q-72 -72 -162 -102q-87 -29 -188 -29 q-88 0 -161 22q-74 22 -130 69q-54 45 -88 116q-33 69 -33 161zM233 565h527v62q0 72 -22 125q-21 52 -58 84q-38 33 -84 48t-96 15q-53 0 -100 -16q-48 -17 -85 -49q-35 -31 -59 -83q-23 -51 -23 -120v-66z" />
<glyph unicode="&#x436;" horiz-adv-x="1409" d="M49 0l98 330q22 74 56 130q33 54 104 70q-58 16 -92 67q-32 47 -55 124l-92 291h135l94 -297q16 -48 36 -76q21 -29 47 -44q27 -16 54 -20q25 -4 58 -4h145v441h133v-441h145q33 0 58 4q27 4 54 20q24 14 46 44q19 26 37 76l94 297h137l-92 -291q-23 -77 -55 -124 q-34 -51 -92 -67q71 -16 104 -70q34 -56 56 -130l98 -330h-141l-86 299q-16 52 -34 80q-20 30 -44 47q-23 16 -56 21q-40 6 -65 6h-164v-453h-133v453h-164q-25 0 -65 -6q-33 -5 -56 -21q-24 -17 -44 -47q-18 -28 -34 -80l-86 -299h-139z" />
<glyph unicode="&#x437;" horiz-adv-x="856" d="M27 106l82 95q54 -45 124 -68q72 -24 142 -24q123 0 189 54q67 55 67 128q0 85 -60 129q-59 43 -141 43h-139v112h141q75 0 131 43q58 44 58 121q0 40 -20 71q-19 29 -50 49t-71 29q-41 9 -79 9q-69 0 -133 -20q-66 -20 -118 -62q-9 9 -17 18l-27 28l-26 30 q-14 17 -14 18q77 62 164 87q90 26 182 26q159 0 250 -77q90 -77 90 -195q0 -25 -8 -60q-8 -36 -23 -63q-18 -33 -46 -58q-29 -26 -75 -43q50 -18 81 -48t49 -61q17 -30 25 -65q7 -31 7 -57q0 -135 -102 -219t-279 -84q-213 0 -354 114z" />
<glyph unicode="&#x438;" horiz-adv-x="1021" d="M102 0v1010h136v-799h6l45 67l60 88l61 88l45 66l336 490h127v-1010h-136v797h-8l-45 -67l-59 -89l-61 -89l-46 -67q-9 -11 -41 -57l-58 -86l-68 -99l-68 -100l-60 -86l-39 -57h-127z" />
<glyph unicode="&#x439;" horiz-adv-x="1021" d="M102 0v1010h136v-799h6l45 67l60 88l61 88l45 66l336 490h127v-1010h-136v797h-8l-45 -67l-59 -89l-61 -89l-46 -67q-9 -11 -41 -57l-58 -86l-68 -99l-68 -100l-60 -86l-39 -57h-127zM233 1405h115q7 -54 53 -97q45 -42 111 -42q73 0 114 40q43 41 50 99h112 q-6 -38 -21 -82q-14 -42 -48 -80q-30 -34 -83 -60q-50 -24 -124 -24q-76 0 -128 24q-54 25 -85 60q-34 38 -48 80q-17 48 -18 82z" />
<glyph unicode="&#x43a;" horiz-adv-x="978" d="M117 0v1012h135v-441h219q32 0 56 4q28 5 54 20t47 44t38 76l106 297h137l-104 -291q-28 -76 -57 -124q-31 -50 -91 -67q73 -17 103 -70q30 -55 57 -130l111 -330h-142l-98 299q-16 48 -36 79q-18 27 -44 47q-23 17 -54 22q-40 6 -65 6h-237v-453h-135z" />
<glyph unicode="&#x43b;" horiz-adv-x="1015" d="M8 76q56 30 93 62q42 36 68 89q28 57 41 141q13 82 13 216v424h676v-1008h-133v889h-412v-328q0 -145 -20 -239q-21 -98 -60 -166q-39 -67 -92 -111q-50 -41 -116 -76z" />
<glyph unicode="&#x43c;" horiz-adv-x="1208" d="M104 0v1010h127l222 -412q2 -7 25 -49l50 -94l50 -95q24 -46 26 -49l152 285l46 84l66 122l67 122q15 28 46 86h121v-1010h-135v723h-6l-29 -54l-40 -75l-40 -75l-29 -56l-174 -311h-96l-123 221l-184 344h-4v-717h-138z" />
<glyph unicode="&#x43d;" horiz-adv-x="1021" d="M104 0v1010h134v-437h544v437h138v-1010h-138v451h-544v-451h-134z" />
<glyph unicode="&#x43e;" horiz-adv-x="1007" d="M96 356v299q0 87 33 154q34 70 88 115q56 47 130 72q76 26 159 26q87 0 163 -26q75 -26 129 -72q55 -47 85 -115q30 -67 30 -154v-299q0 -85 -30 -154t-86 -116q-59 -49 -130 -72q-75 -24 -163 -24t-163 24q-73 23 -129 73q-55 49 -85 116q-31 70 -31 153zM231 385 q0 -72 23 -126q22 -52 60 -85q35 -31 88 -47q46 -14 106 -14q51 0 99 15q47 15 87 47q39 31 63 84q23 50 23 126v242q0 74 -24 125q-24 50 -65 84q-39 32 -88 47q-45 14 -95 14q-52 0 -98 -14q-50 -15 -89 -47q-41 -34 -65 -84q-25 -53 -25 -125v-242z" />
<glyph unicode="&#x43f;" horiz-adv-x="1009" d="M100 0v1010h813v-1010h-135v889h-545v-889h-133z" />
<glyph unicode="&#x440;" horiz-adv-x="1007" d="M102 -410v1418h115l19 -119q64 39 118 67q43 22 96 41q45 16 74 20q37 5 62 5q146 0 238 -86q91 -85 91 -268v-324q0 -173 -94 -264q-95 -92 -260 -92q-59 0 -136 12q-72 11 -189 66v-476h-134zM236 197q114 -51 176 -66q72 -18 137 -18q107 0 169 56t62 189v293 q0 135 -55 187q-56 53 -150 53q-32 0 -72 -10q-39 -10 -87 -29q-40 -16 -91 -44q-40 -22 -89 -54v-557z" />
<glyph unicode="&#x441;" horiz-adv-x="860" d="M98 352v301q0 82 31 153q29 68 85 117q52 46 126 74q72 27 154 27t171 -23q86 -22 152 -90l-82 -102q-63 55 -124 72q-58 16 -109 16q-50 0 -95 -14q-51 -16 -88 -46t-62 -84q-24 -53 -24 -126v-242q0 -74 24 -125q25 -53 61 -83q38 -32 86 -47t98 -15q46 0 114 18 t115 62l84 -97q-67 -60 -150 -84t-167 -24q-93 0 -164 26q-74 27 -126 75q-52 47 -81 115q-29 67 -29 146z" />
<glyph unicode="&#x442;" horiz-adv-x="843" d="M25 889v123h794v-123h-327v-889h-140v889h-327z" />
<glyph unicode="&#x443;" horiz-adv-x="917" d="M18 1010h144q3 -9 29 -94l40 -135l40 -135q19 -64 30 -93l133 -430h4l154 430l34 93l48 135l47 135l33 94h143l-62 -171l-92 -250l-106 -289l-106 -289l-91 -250l-61 -171h-146l150 422l-72 66z" />
<glyph unicode="&#x444;" horiz-adv-x="1251" d="M96 401v211q0 84 33 160t93 133q58 55 147 91q84 34 190 34v381h133v-381q111 0 195 -34q87 -35 146 -91q61 -58 92 -133q32 -78 32 -160v-209q0 -84 -34 -158q-35 -76 -94 -132t-146 -91q-84 -34 -191 -34v-400h-133v400q-106 0 -190 34q-91 37 -147 90q-61 58 -93 131 q-33 75 -33 158zM229 434q0 -132 81 -224q80 -90 249 -95v790q-85 -1 -148 -27q-62 -25 -103 -69q-39 -42 -59 -100t-20 -123v-152zM692 115q86 0 146 25q62 26 102 69t61 101t21 124v152q0 65 -20 123t-60 101q-42 45 -103 70q-62 25 -147 25v-790z" />
<glyph unicode="&#x445;" horiz-adv-x="856" d="M6 0l340 518l-321 494h163l236 -385l238 385h161l-325 -492l340 -520h-164l-252 410l-254 -410h-162z" />
<glyph unicode="&#x446;" horiz-adv-x="1042" d="M115 0v1012h129v-893h534v893h129v-895h82v-373h-129v256h-745z" />
<glyph unicode="&#x447;" horiz-adv-x="937" d="M57 702v310h133v-289q0 -122 55 -177q54 -54 156 -54q75 0 155 29q86 31 161 79v412h133v-1012h-133v465q-109 -65 -194 -85t-142 -20q-147 0 -236 84q-88 84 -88 258z" />
<glyph unicode="&#x448;" horiz-adv-x="1478" d="M111 0v1010h133v-889h426v889h135v-889h428v889h133v-1010h-1255z" />
<glyph unicode="&#x449;" horiz-adv-x="1490" d="M111 0v1010h137v-891h424v891h133v-891h428v891h133v-893h82v-375h-127v258h-1210z" />
<glyph unicode="&#x44a;" horiz-adv-x="1153" d="M14 887v123h461v-420h303q86 0 149 -24q64 -24 104 -63q43 -41 62 -93q19 -51 19 -113q0 -139 -90 -218q-89 -79 -254 -79h-426v887h-328zM473 121h297q98 0 154 44q55 43 55 132q0 70 -49 122t-158 52h-299v-350z" />
<glyph unicode="&#x44b;" horiz-adv-x="1210" d="M102 0v1012h134v-422h305q85 0 148 -24q66 -25 105 -63q41 -40 61 -93q19 -51 19 -113q0 -139 -90 -218q-89 -79 -254 -79h-428zM236 121h296q98 0 153 44q54 43 54 132q0 70 -49 122t-158 52h-296v-350zM979 0v1010h129v-1010h-129z" />
<glyph unicode="&#x44c;" horiz-adv-x="905" d="M102 0v1012h134v-422h305q85 0 148 -24q66 -25 105 -63q41 -40 61 -93q19 -51 19 -113q0 -139 -90 -218q-89 -79 -254 -79h-428zM236 121h296q98 0 153 44q54 43 54 132q0 70 -49 122t-158 52h-296v-350z" />
<glyph unicode="&#x44d;" horiz-adv-x="849" d="M37 98l78 103q63 -54 126 -70t111 -16q53 0 98 14q50 16 86 46q38 32 62 82q25 52 25 124v82h-414v119h414v49q0 149 -66 208q-65 58 -180 58q-22 0 -55 -5q-29 -4 -63 -14q-29 -8 -63 -26q-37 -19 -57 -37l-82 94q69 63 160 89q92 26 174 26q187 0 278 -99 q91 -98 91 -257v-306q0 -85 -30 -154q-30 -70 -82 -117q-53 -48 -127 -75q-72 -26 -163 -26q-84 0 -170 21q-85 21 -151 87z" />
<glyph unicode="&#x44e;" horiz-adv-x="1253" d="M94 0v1010h135v-439h158v84q0 85 29 154t81 115q53 46 123 72q72 26 154 26q179 0 283 -97t104 -270v-299q0 -174 -106 -270q-107 -96 -283 -96q-175 0 -280 96t-105 270v95h-158v-451h-135zM520 385q0 -72 20 -126q20 -53 53 -85q33 -31 81 -47q43 -14 102 -14 q51 0 97 15t81 47t56 84q20 50 20 126v242q0 74 -21 125q-20 50 -58 84q-35 32 -82 47q-43 14 -93 14q-52 0 -95 -14q-47 -15 -82 -47q-36 -33 -57 -84q-22 -53 -22 -125v-242z" />
<glyph unicode="&#x44f;" horiz-adv-x="958" d="M59 0l74 287q15 56 44 107q27 49 87 71q-89 27 -132 94q-44 68 -44 150q0 61 21 116q22 59 60 98q40 41 98 65q59 24 132 24h463v-1012h-133v432h-274q-67 0 -116 -33q-51 -34 -73 -123l-69 -276h-138zM217 711q0 -87 58 -124q59 -38 141 -38h313v340h-317 q-79 0 -137 -43t-58 -135z" />
<glyph unicode="&#x451;" horiz-adv-x="972" d="M98 358v275q0 89 30 161t83 122q54 51 127 78q76 28 162 28q88 0 160 -27q74 -28 125 -76q51 -49 81 -120q29 -70 29 -156v-190h-662v-80q0 -73 24 -122q25 -52 62 -82t90 -46q46 -14 105 -14q65 0 134 24q67 23 128 80l84 -92q-72 -72 -162 -102q-87 -29 -188 -29 q-88 0 -161 22q-74 22 -130 69q-54 45 -88 116q-33 69 -33 161zM233 565h527v62q0 72 -22 125q-21 52 -58 84q-38 33 -84 48t-96 15q-53 0 -100 -16q-48 -17 -85 -49q-35 -31 -59 -83q-23 -51 -23 -120v-66zM233 1327q0 35 24 59q25 25 56 25q34 0 61 -25q25 -24 25 -59 q0 -34 -25 -58q-26 -24 -61 -24q-32 0 -56 24t-24 58zM606 1327q0 35 24 59q25 25 58 25q35 0 60 -25q24 -24 24 -59q0 -34 -24 -58t-60 -24q-34 0 -58 24t-24 58z" />
<glyph unicode="&#x452;" horiz-adv-x="1011" d="M4 1178v110h102v178h136v-178h463v-110h-463v-297q130 83 217 111q89 28 145 28q160 0 239 -90q79 -89 79 -264v-449q0 -91 -32 -161q-30 -67 -87 -114q-56 -47 -130 -69q-77 -23 -161 -23v125q57 0 108 14q49 13 87 44q36 29 58 81q21 50 21 124v403q0 135 -54 190 q-54 56 -150 56q-68 0 -161 -39q-97 -41 -179 -94v-754h-136v1178h-102z" />
<glyph unicode="&#x453;" horiz-adv-x="811" d="M96 0v1012h713v-123h-576v-889h-137zM348 1174l154 339l135 -45l-205 -327z" />
<glyph unicode="&#x454;" horiz-adv-x="854" d="M96 352v301q0 84 30 153q30 70 82 117q51 47 124 74q72 27 155 27q82 0 171 -23q87 -23 153 -90l-80 -102q-66 55 -126 72q-58 16 -109 16q-55 0 -100 -14q-48 -15 -85 -46q-36 -30 -59 -84t-23 -126v-56h387v-116h-387v-70q0 -72 22 -125q22 -52 58 -83q39 -33 86 -47 q49 -15 103 -15q46 0 114 18q67 18 117 62l82 -97q-66 -60 -149 -84q-84 -24 -168 -24q-97 0 -168 26q-74 27 -125 75q-50 47 -78 115q-27 66 -27 146z" />
<glyph unicode="&#x455;" horiz-adv-x="915" d="M68 106l71 101q75 -59 157 -83q81 -24 177 -24q38 0 86 10q43 9 78 30q34 21 56 57t22 86q0 66 -43 100q-45 35 -121 53q-78 20 -153 32q-78 13 -148 41q-67 27 -112 78q-44 50 -44 140q0 66 27 120q27 53 74 93q46 39 113 60q69 22 145 22q106 0 194 -22q82 -21 160 -74 l-34 -50l-34 -51q-72 43 -137 60q-69 18 -147 18q-106 0 -168 -49q-64 -50 -64 -127q0 -35 19 -62q17 -24 50 -43q27 -16 76 -29q35 -10 95 -22l132 -26q69 -15 126 -45q56 -30 93 -83q36 -53 36 -138q0 -65 -28 -119q-27 -52 -79 -92q-51 -39 -121 -60q-67 -20 -159 -20 q-106 0 -201 23q-99 24 -194 95z" />
<glyph unicode="&#x456;" horiz-adv-x="409" d="M119 1329q0 38 25 62t61 24q35 0 60 -24q26 -24 26 -62q0 -34 -26 -60t-60 -26q-35 0 -61 26q-25 25 -25 60zM137 0v1012h133v-1012h-133z" />
<glyph unicode="&#x457;" horiz-adv-x="454" d="M-39 1319q0 35 24 59q25 25 56 25q33 0 60 -25q26 -24 26 -59q0 -34 -26 -58q-25 -24 -60 -24q-32 0 -56 24t-24 58zM160 0v1012h133v-1012h-133zM334 1319q0 36 23 59q25 25 59 25t59 -25t25 -59q0 -33 -25 -58q-24 -24 -59 -24t-59 24q-23 23 -23 58z" />
<glyph unicode="&#x458;" horiz-adv-x="475" d="M-29 -301h72q85 0 115 38t30 142v1131h136v-1151q0 -151 -67 -216t-196 -65h-90v121zM172 1329q0 37 25 62q24 24 59 24q34 0 60 -24t26 -62q0 -34 -26 -60t-60 -26q-35 0 -59 26q-25 27 -25 60z" />
<glyph unicode="&#x459;" horiz-adv-x="1480" d="M16 74q56 31 96 66q42 38 69 94q27 57 42 138t15 197v443h557v-422h305q85 0 148 -24q66 -25 105 -63q41 -40 61 -93q20 -54 20 -113q0 -138 -91 -218q-89 -79 -253 -79h-428v889h-300v-330q0 -133 -19 -227q-20 -99 -56 -165q-37 -68 -90 -115q-52 -46 -123 -77z M795 121h297q97 0 152 44q54 43 54 132q0 70 -49 122t-157 52h-297v-350z" />
<glyph unicode="&#x45a;" horiz-adv-x="1505" d="M119 0v1012h133v-424h438v424h133v-422h305q86 0 149 -24q64 -24 104 -63q43 -41 62 -93q19 -51 19 -113q0 -139 -90 -218q-89 -79 -252 -79h-430v473h-438v-473h-133zM823 121h297q98 0 154 44q55 43 55 132q0 70 -49 122t-158 52h-299v-350z" />
<glyph unicode="&#x45b;" horiz-adv-x="1011" d="M4 1178v110h102v178h136v-178h463v-110h-463v-297q130 83 217 111q89 28 145 28q160 0 239 -90q79 -89 79 -264v-666h-136v641q0 135 -54 190q-54 56 -150 56q-68 0 -161 -39q-97 -41 -179 -94v-754h-136v1178h-102z" />
<glyph unicode="&#x45c;" horiz-adv-x="978" d="M117 0v1012h135v-441h219q32 0 56 4q28 5 54 20t47 44t38 76l106 297h137l-104 -291q-28 -76 -57 -124q-31 -50 -91 -67q73 -17 103 -70q30 -55 57 -130l111 -330h-142l-98 299q-16 48 -36 79q-18 27 -44 47q-23 17 -54 22q-40 6 -65 6h-237v-453h-135zM377 1174l153 339 l136 -45l-205 -327z" />
<glyph unicode="&#x45e;" horiz-adv-x="917" d="M18 1010h144q3 -9 29 -94l40 -135l40 -135q19 -64 30 -93l133 -430h4l154 430l34 93l48 135l47 135l33 94h143l-62 -171l-92 -250l-106 -289l-106 -289l-91 -250l-61 -171h-146l150 422l-72 66zM178 1405h115q7 -54 53 -97q45 -42 111 -42q72 0 113 40q44 42 51 99h112 q-6 -38 -21 -82q-14 -42 -48 -80q-30 -34 -83 -60q-49 -24 -124 -24t-128 24q-54 25 -85 60q-34 38 -48 80q-17 48 -18 82z" />
<glyph unicode="&#x45f;" horiz-adv-x="1013" d="M100 0v1010h133v-891h547v891h135v-1010h-340v-295h-137v295h-338z" />
<glyph unicode="&#x490;" horiz-adv-x="1056" d="M125 0v1411h780v231h137v-362h-776v-1280h-141z" />
<glyph unicode="&#x491;" horiz-adv-x="821" d="M94 0v1012h592v196h127v-319h-584v-889h-135z" />
<glyph unicode="&#x4d9;" horiz-adv-x="972" d="M92 362v195h662v82q0 73 -21 122q-23 53 -56 81q-36 30 -83 45q-43 14 -100 14q-68 0 -142 -24q-72 -23 -133 -80l-82 92q78 75 168 104t191 29q86 0 158 -24q76 -25 125 -69q52 -46 82 -115t30 -161v-276q0 -88 -30 -160t-83 -122q-54 -51 -127 -78t-162 -27t-160 25 q-73 26 -125 75t-82 118t-30 154zM229 383q0 -72 22 -125q21 -51 57 -84t83 -48t98 -15t98 16q48 17 85 49q36 32 59 84t23 121v63h-525v-61z" />
<glyph unicode="&#x2000;" horiz-adv-x="902" />
<glyph unicode="&#x2001;" horiz-adv-x="1804" />
<glyph unicode="&#x2002;" horiz-adv-x="902" />
<glyph unicode="&#x2003;" horiz-adv-x="1804" />
<glyph unicode="&#x2004;" horiz-adv-x="601" />
<glyph unicode="&#x2005;" horiz-adv-x="451" />
<glyph unicode="&#x2006;" horiz-adv-x="300" />
<glyph unicode="&#x2007;" horiz-adv-x="300" />
<glyph unicode="&#x2008;" horiz-adv-x="225" />
<glyph unicode="&#x2009;" horiz-adv-x="360" />
<glyph unicode="&#x200a;" horiz-adv-x="100" />
<glyph unicode="&#x2010;" horiz-adv-x="780" d="M106 485v123h568v-123h-568z" />
<glyph unicode="&#x2011;" horiz-adv-x="780" d="M106 485v123h568v-123h-568z" />
<glyph unicode="&#x2012;" horiz-adv-x="780" d="M106 485v123h568v-123h-568z" />
<glyph unicode="&#x2013;" horiz-adv-x="1017" d="M41 483v125h936v-125h-936z" />
<glyph unicode="&#x2014;" horiz-adv-x="2041" d="M41 483v125h1960v-125h-1960z" />
<glyph unicode="&#x2018;" horiz-adv-x="528" d="M156 1190q0 46 15 89q14 40 40 81q23 35 57 65q32 28 68 45l47 -59q-44 -34 -68 -72q-23 -38 -28 -92h2q37 0 62 -28q26 -29 26 -70q0 -38 -29 -69q-28 -29 -76 -29q-60 0 -88 43t-28 96z" />
<glyph unicode="&#x2019;" horiz-adv-x="528" d="M162 1114q43 32 67 72q25 40 29 92q-39 0 -64 28q-24 27 -24 68q0 40 28 71q27 30 74 30q59 0 88 -44t29 -98q0 -45 -15 -88q-13 -38 -40 -80q-21 -33 -58 -65q-35 -30 -67 -47z" />
<glyph unicode="&#x201a;" horiz-adv-x="460" d="M119 -176q45 33 69 72q25 40 29 92q-48 2 -69 27t-21 73q0 39 29 68q28 28 75 28q60 0 87 -42q28 -44 28 -95q0 -50 -14 -91q-15 -44 -39 -81q-23 -35 -57 -65q-35 -30 -68 -46z" />
<glyph unicode="&#x201c;" horiz-adv-x="755" d="M129 1190q0 48 14 89q15 43 39 81q21 33 58 65q35 30 69 45l47 -59q-43 -32 -67 -72q-25 -40 -29 -92h2q38 0 62 -28q24 -29 24 -70q0 -39 -27 -69q-26 -29 -75 -29q-60 0 -88 43q-29 44 -29 96zM410 1190q0 48 14 89q15 43 39 81q23 35 57 65q34 29 70 45l47 -59 q-44 -34 -68 -72q-23 -38 -28 -92h2q37 0 61 -28q25 -30 25 -70q0 -38 -28 -69q-26 -29 -75 -29q-60 0 -88 43t-28 96z" />
<glyph unicode="&#x201d;" horiz-adv-x="755" d="M135 1114q43 35 67 72t29 92q-40 0 -65 28t-25 68t29 71q29 30 76 30q59 0 88 -44t29 -98q0 -45 -15 -88q-14 -41 -39 -80q-23 -35 -57 -65q-35 -30 -70 -47zM416 1114q43 32 67 72q25 40 29 92q-40 0 -65 28q-23 26 -23 68q0 40 28 71q27 30 74 30q59 0 88 -44t29 -98 q0 -45 -15 -88q-13 -38 -40 -80q-21 -33 -58 -65q-35 -30 -67 -47z" />
<glyph unicode="&#x201e;" horiz-adv-x="782" d="M121 -176q42 31 68 72q25 39 30 92q-47 2 -68 27q-22 27 -22 73q0 39 29 68q28 28 75 28q61 0 88 -42t27 -95q0 -50 -14 -91q-15 -44 -39 -81q-23 -35 -57 -65q-35 -30 -68 -46zM446 -176q44 34 68 72q25 40 29 92q-48 2 -69 27q-21 26 -21 73q0 40 28 68t76 28 q59 0 88 -42q29 -43 29 -95q0 -45 -16 -91q-14 -40 -40 -81q-23 -35 -57 -65q-36 -31 -67 -46z" />
<glyph unicode="&#x2020;" horiz-adv-x="935" d="M47 819v111h354v495h131v-495h357v-111h-357v-1208h-131v1208h-354z" />
<glyph unicode="&#x2021;" horiz-adv-x="935" d="M47 256v109h354v454h-354v111h354v495h131v-495h357v-111h-357v-454h357v-109h-357v-645h-131v645h-354z" />
<glyph unicode="&#x2022;" horiz-adv-x="780" d="M166 561q0 49 18 91t49 73t73 49q44 19 89 19t89 -19q42 -18 73 -49t49 -73q19 -44 19 -91q0 -45 -19 -88q-18 -41 -49 -72t-73 -49t-89 -18t-89 18t-73 49t-49 72q-18 40 -18 88z" />
<glyph unicode="&#x2026;" horiz-adv-x="1452" d="M125 94q0 35 26 66q25 30 72 30t76 -30q29 -31 29 -66q0 -43 -29 -74q-29 -30 -76 -30t-72 28q-26 29 -26 76zM621 94q0 37 26 66q27 30 74 30t76 -30q28 -29 28 -66q0 -45 -28 -74q-29 -30 -76 -30t-74 28q-26 27 -26 76zM1126 94q0 36 27 66t74 30t76 -30 q28 -29 28 -66q0 -44 -27 -74t-77 -30q-47 0 -74 28t-27 76z" />
<glyph unicode="&#x202f;" horiz-adv-x="360" />
<glyph unicode="&#x2030;" horiz-adv-x="2263" d="M94 791v397q0 50 23 94q23 45 61 74q40 31 90 47q49 16 109 16q59 0 108 -16q50 -16 90 -47t61 -74q21 -44 21 -94v-397q0 -53 -21 -97q-20 -42 -59 -73q-40 -32 -90 -48q-49 -16 -110 -16q-64 0 -113 16t-89 48q-39 31 -59 73q-22 46 -22 97zM211 805q0 -42 16 -68 q15 -24 41 -44q20 -15 54 -24q27 -7 55 -7t56 7q33 8 54 24q26 20 41 44q17 28 17 68v366q0 39 -17 67q-16 26 -41 45q-23 17 -54 25q-28 7 -56 7t-55 -7q-32 -8 -54 -25q-25 -19 -41 -45t-16 -67v-366zM309 -35l869 1495h110l-870 -1495h-109zM938 225v398q0 51 22 94 q23 44 62 74t90 48q48 17 109 17q60 0 108 -17q51 -18 90 -48q40 -31 61 -74t21 -94v-400q0 -53 -21 -95t-60 -73q-38 -31 -89 -47q-49 -16 -110 -16q-64 0 -113 16q-51 16 -89 47q-40 32 -60 74q-21 43 -21 96zM1055 238q0 -42 16 -68q15 -24 41 -44q23 -17 53 -25 q27 -7 56 -7q28 0 56 7q31 8 54 25q26 20 41 44q17 28 17 68v366q0 41 -17 69q-16 26 -41 45q-21 16 -54 24q-32 8 -56 8q-26 0 -56 -8q-32 -9 -53 -24q-25 -19 -41 -45t-16 -69v-366zM1604 225v398q0 51 22 94q23 44 62 74t90 48q48 17 108 17q61 0 109 -17q51 -18 90 -48 t60 -74q22 -46 22 -94v-400q0 -51 -22 -95q-21 -43 -59 -73q-38 -31 -89 -47q-49 -16 -111 -16q-63 0 -112 16q-52 17 -90 47t-59 74q-21 43 -21 96zM1720 238q0 -40 17 -68q15 -24 41 -44q23 -17 53 -25q27 -7 55 -7q29 0 57 7q31 8 54 25q26 20 41 44q16 26 16 68v366 q0 43 -16 69t-41 45q-21 16 -54 24q-32 8 -57 8t-55 -8q-32 -9 -53 -24q-25 -19 -41 -45q-17 -28 -17 -69v-366z" />
<glyph unicode="&#x2039;" horiz-adv-x="589" d="M111 463l251 366h125l-241 -366l241 -369h-127z" />
<glyph unicode="&#x203a;" horiz-adv-x="589" d="M111 94l241 369l-241 366h125l251 -366l-249 -369h-127z" />
<glyph unicode="&#x2044;" horiz-adv-x="307" d="M-336 -35l868 1495h111l-870 -1495h-109z" />
<glyph unicode="&#x205f;" horiz-adv-x="451" />
<glyph unicode="&#x20ac;" d="M66 555v102h806v-102h-561v-74q0 -95 29 -164q28 -67 78 -112t112 -66q60 -20 134 -20q73 0 143 16q74 17 133 53l64 -112q-63 -40 -147 -65t-189 -25q-121 0 -210 33q-95 35 -158 97q-65 64 -99 149q-35 88 -35 194v96h-100zM66 770v102h100v84q0 107 37 191 q37 85 103 148q64 61 159 97q88 33 203 33q100 0 180 -19q79 -19 153 -65l-67 -116q-57 32 -128 50q-65 17 -138 17q-76 0 -137 -20q-64 -21 -113 -64q-50 -44 -78 -111q-29 -70 -29 -165v-60h561v-102h-806z" />
<glyph unicode="&#x2122;" horiz-adv-x="1708" d="M78 1329v96h610v-96h-256v-735h-98v735h-256zM782 594v829h103q8 -14 33 -62l52 -103l62 -122l62 -123l52 -105q26 -50 34 -64h6l287 579h98v-829h-96v629h-5q-14 -28 -26 -54q-11 -25 -44 -88l-53 -105l-54 -108l-46 -90l-28 -55h-74q-14 21 -49 91l-76 148l-78 151 l-53 104h-6l-4 -623h-97z" />
<glyph unicode="&#x2202;" horiz-adv-x="1085" d="M98 438q0 104 33 190q32 84 88 144q54 59 128 91q73 32 153 32q72 0 162 -32q86 -31 188 -128q-1 133 -33 255q-30 114 -88 200q-58 85 -138 131q-82 47 -181 47q-29 0 -62 -3q-28 -3 -65 -11v100q35 10 71 13q35 3 68 3q154 0 261 -61q108 -61 175 -166q68 -106 98 -241 q31 -141 31 -283q0 -181 -36 -319t-99 -231q-62 -92 -151 -141q-87 -48 -191 -48q-90 0 -164 29q-75 29 -131 87q-55 57 -86 144q-31 88 -31 198zM225 442q0 -92 24 -158q25 -70 63 -109q40 -41 92 -62q53 -21 112 -21q86 0 148 45q59 43 101 118q39 70 61 163t26 182 q-89 104 -180 148q-89 43 -156 43q-66 0 -122 -31q-52 -29 -91 -80q-35 -46 -57 -112q-21 -63 -21 -126z" />
<glyph unicode="&#x2206;" horiz-adv-x="1193" d="M27 0l495 1411h150l250 -705l247 -706h-1142zM223 129h748l-93 272l-94 273l-192 543l-88 -266l-90 -265z" />
<glyph unicode="&#x220f;" horiz-adv-x="1226" d="M109 -182v1593h1019v-1593h-147v1462h-729v-1462h-143z" />
<glyph unicode="&#x2211;" horiz-adv-x="1015" d="M63 -53l359 692l-359 647v125h869v-133h-696l354 -639l-365 -694h725v-127h-887v129z" />
<glyph unicode="&#x221a;" horiz-adv-x="1150" d="M43 739l258 90l305 -815l379 1620h121l-436 -1804h-113l-332 868l-145 -53z" />
<glyph unicode="&#x221e;" horiz-adv-x="1490" d="M90 557q0 61 24 117t64 96q41 41 96 65q53 23 119 23q51 0 104 -21q49 -20 98 -56q48 -36 86 -75q42 -43 69 -85l23 30l24 29q63 74 144 126q80 52 173 52q64 0 115 -22q53 -23 92 -63t61 -95q23 -57 23 -121q0 -65 -24 -121t-64 -97q-41 -42 -96 -66q-53 -23 -119 -23 q-56 0 -101 19q-47 20 -91 53q-48 37 -84 75l-78 88q-38 -46 -81 -91t-83 -75q-43 -32 -94 -51q-50 -18 -107 -18q-64 0 -115 22q-52 22 -93 63q-39 39 -62 97t-23 125zM188 557q0 -44 17 -83q16 -37 44 -66q28 -30 65 -46q36 -16 79 -16t84 18q46 20 79 47q44 35 71 66 q34 39 57 76q-24 37 -55 72q-27 31 -71 66q-35 28 -80 49q-43 20 -85 20q-39 0 -78 -17q-35 -15 -65 -44q-29 -27 -45 -64q-17 -39 -17 -78zM811 555l65 -75q37 -41 69 -67q37 -30 76 -48q43 -19 83 -19q42 0 78 16q35 15 65 47q29 30 45 67q17 39 17 81q0 41 -17 80 q-16 36 -44 64q-29 29 -63 43q-38 16 -77 16q-44 0 -84 -18t-78 -45q-30 -22 -70 -65q-35 -38 -65 -77z" />
<glyph unicode="&#x222b;" horiz-adv-x="647" d="M-57 -297l26 92q28 -7 50 -9q14 -1 34 -1q40 0 69 16t52 54q24 40 38 99q16 67 26 155q14 112 20 307q6 184 6 448q0 70 3 154q2 62 12 158q7 82 26 163q18 76 52 131q36 58 88 88q53 31 139 31q19 0 54 -5q32 -4 60 -15l-24 -94q-32 9 -48 10q-28 2 -34 2q-42 0 -77 -18 q-34 -18 -58 -58q-25 -42 -40 -111q-17 -79 -24 -176q-3 -38 -5 -142q-1 -59 -1 -190q0 -135 -1 -203q-2 -123 -5 -177q-6 -125 -10 -189q-5 -78 -17 -162q-24 -200 -97 -290q-72 -88 -204 -88q-20 0 -53 5q-30 4 -57 15z" />
<glyph unicode="&#x2248;" d="M51 381q49 77 113 115q60 36 137 36q52 0 102 -19q59 -22 103 -42q55 -24 100 -42q48 -19 99 -19q54 0 87 26q30 24 72 80l84 -61q-47 -79 -103 -120q-57 -42 -145 -42q-48 0 -99 19q-53 20 -104 43q-43 20 -104 43q-52 20 -94 20q-53 0 -89 -27t-77 -74zM51 698 q49 77 113 115q62 37 137 37q50 0 102 -20q62 -24 103 -43q47 -22 100 -43q48 -19 99 -19t87 28q28 22 72 81l84 -64q-47 -79 -103 -120q-57 -42 -145 -42q-45 0 -99 20q-41 15 -104 44q-57 26 -104 44q-50 19 -94 19q-54 0 -89 -26q-36 -27 -77 -74z" />
<glyph unicode="&#x2260;" d="M59 336v108h271l194 271h-465v106h545l193 264h116l-192 -264h215v-106h-295l-195 -271h490v-108h-569l-177 -244h-116l176 244h-191z" />
<glyph unicode="&#x2264;" d="M61 4v105h875v-105h-875zM61 545v96l875 342v-117l-743 -272l743 -277v-114z" />
<glyph unicode="&#x2265;" d="M59 2v104h875v-104h-875zM59 201v114l744 275l-744 274v117l877 -342v-98z" />
<glyph unicode="&#x25ca;" horiz-adv-x="1013" d="M76 592l370 696h117l183 -348l182 -348l-365 -692h-117zM221 594l144 -270l139 -273h2l280 541l-282 545z" />
<glyph unicode="&#x25fc;" horiz-adv-x="1013" d="M0 0v1014h1014v-1014h-1014z" />
</font>
</defs>
</svg>
